<?xml version="1.0" encoding="utf-8" standalone="no"?>
<!DOCTYPE svg PUBLIC "-//W3C//DTD SVG 1.1//EN"
  "http://www.w3.org/Graphics/SVG/1.1/DTD/svg11.dtd">
<svg xmlns:xlink="http://www.w3.org/1999/xlink" width="460.8pt" height="345.6pt" viewBox="0 0 460.8 345.6" xmlns="http://www.w3.org/2000/svg" version="1.1">
 <metadata>
  <rdf:RDF xmlns:dc="http://purl.org/dc/elements/1.1/" xmlns:cc="http://creativecommons.org/ns#" xmlns:rdf="http://www.w3.org/1999/02/22-rdf-syntax-ns#">
   <cc:Work>
    <dc:type rdf:resource="http://purl.org/dc/dcmitype/StillImage"/>
    <dc:date>2025-08-01T11:47:27.851775</dc:date>
    <dc:format>image/svg+xml</dc:format>
    <dc:creator>
     <cc:Agent>
      <dc:title>Matplotlib v3.7.0, https://matplotlib.org/</dc:title>
     </cc:Agent>
    </dc:creator>
   </cc:Work>
  </rdf:RDF>
 </metadata>
 <defs>
  <style type="text/css">*{stroke-linejoin: round; stroke-linecap: butt}</style>
 </defs>
 <g id="figure_1">
  <g id="patch_1">
   <path d="M 0 345.6 
L 460.8 345.6 
L 460.8 0 
L 0 0 
z
" style="fill: #ffffff"/>
  </g>
  <g id="axes_1">
   <g id="patch_2">
    <path d="M 346.243795 188.749742 
C 344.775985 190.604399 343.029856 192.220691 341.067534 193.541113 
C 339.105211 194.861534 336.950245 195.870238 334.679305 196.531338 
C 332.408364 197.192437 330.048704 197.497997 327.684276 197.437147 
C 325.319848 197.376298 322.979029 196.949768 320.745099 196.172733 
C 318.51117 195.395698 316.410942 194.277484 314.519135 192.857874 
C 312.627329 191.438265 310.96665 189.734297 309.59618 187.806594 
C 308.225711 185.878892 307.1619 183.75059 306.442595 181.497409 
C 305.72329 179.244229 305.357123 176.893211 305.357123 174.528 
C 305.357123 172.162789 305.72329 169.811771 306.442595 167.558591 
C 307.1619 165.30541 308.225711 163.177108 309.59618 161.249406 
C 310.96665 159.321703 312.627329 157.617735 314.519135 156.198126 
C 316.410942 154.778516 318.51117 153.660302 320.745099 152.883267 
C 322.979029 152.106232 325.319848 151.679702 327.684276 151.618853 
C 330.048704 151.558003 332.408364 151.863563 334.679305 152.524662 
C 336.950245 153.185762 339.105211 154.194466 341.067534 155.514887 
C 343.029856 156.835309 344.775985 158.451601 346.243795 160.306258 
C 344.451674 146.179226 340.005317 132.517405 333.139349 120.0417 
C 326.27338 107.565995 317.110729 96.499773 306.13489 87.426974 
C 295.15905 78.354176 282.566534 71.437241 269.021822 67.041162 
C 255.477109 62.645083 241.222708 60.848568 227.01079 61.746415 
C 212.798872 62.644262 198.883891 66.220395 186.000109 72.286111 
C 173.116327 78.351826 161.494418 86.798522 151.747645 97.180485 
C 142.000872 107.562448 134.303742 119.693797 129.062416 132.934388 
C 123.821091 146.174979 121.129411 160.287749 121.129411 174.528 
C 121.129411 188.768251 123.821091 202.881021 129.062416 216.121612 
C 134.303742 229.362203 142.000872 241.493552 151.747645 251.875515 
C 161.494418 262.257478 173.116327 270.704174 186.000109 276.769889 
C 198.883891 282.835605 212.798872 286.411738 227.01079 287.309585 
C 241.222708 288.207432 255.477109 286.410917 269.021822 282.014838 
C 282.566534 277.618759 295.15905 270.701824 306.13489 261.629026 
C 317.110729 252.556227 326.27338 241.490005 333.139349 229.0143 
C 340.005317 216.538595 344.451674 202.876774 346.243795 188.749742 
" clip-path="url(#p6538060d6d)" style="fill: #0000ff; opacity: 0.4"/>
   </g>
   <g id="patch_3">
    <path d="M 346.243795 160.306258 
C 346.842177 165.023215 347.142262 169.77324 347.142262 174.528 
C 347.142262 179.28276 346.842177 184.032785 346.243795 188.749742 
C 349.446877 184.702474 351.190589 179.689406 351.190589 174.528 
C 351.190589 169.366594 349.446877 164.353526 346.243795 160.306258 
" clip-path="url(#p6538060d6d)" style="fill: #4682b4; opacity: 0.4"/>
   </g>
   <g id="patch_4">
    <path d="M 346.243795 188.749742 
C 346.842177 184.032785 347.142262 179.28276 347.142262 174.528 
C 347.142262 169.77324 346.842177 165.023215 346.243795 160.306258 
C 344.775985 158.451601 343.029856 156.835309 341.067534 155.514887 
C 339.105211 154.194466 336.950245 153.185762 334.679305 152.524662 
C 332.408364 151.863563 330.048704 151.558003 327.684276 151.618853 
C 325.319848 151.679702 322.979029 152.106232 320.745099 152.883267 
C 318.51117 153.660302 316.410942 154.778516 314.519135 156.198126 
C 312.627329 157.617735 310.96665 159.321703 309.59618 161.249406 
C 308.225711 163.177108 307.1619 165.30541 306.442595 167.558591 
C 305.72329 169.811771 305.357123 172.162789 305.357123 174.528 
C 305.357123 176.893211 305.72329 179.244229 306.442595 181.497409 
C 307.1619 183.75059 308.225711 185.878892 309.59618 187.806594 
C 310.96665 189.734297 312.627329 191.438265 314.519135 192.857874 
C 316.410942 194.277484 318.51117 195.395698 320.745099 196.172733 
C 322.979029 196.949768 325.319848 197.376298 327.684276 197.437147 
C 330.048704 197.497997 332.408364 197.192437 334.679305 196.531338 
C 336.950245 195.870238 339.105211 194.861534 341.067534 193.541113 
C 343.029856 192.220691 344.775985 190.604399 346.243795 188.749742 
" clip-path="url(#p6538060d6d)" style="fill: #315bff; opacity: 0.4"/>
   </g>
   <g id="text_1">
    <!-- 17570 -->
    <g transform="translate(197.337017 177.287375) scale(0.1 -0.1)">
     <defs>
      <path id="DejaVuSans-31" d="M 794 531 
L 1825 531 
L 1825 4091 
L 703 3866 
L 703 4441 
L 1819 4666 
L 2450 4666 
L 2450 531 
L 3481 531 
L 3481 0 
L 794 0 
L 794 531 
z
" transform="scale(0.015625)"/>
      <path id="DejaVuSans-37" d="M 525 4666 
L 3525 4666 
L 3525 4397 
L 1831 0 
L 1172 0 
L 2766 4134 
L 525 4134 
L 525 4666 
z
" transform="scale(0.015625)"/>
      <path id="DejaVuSans-35" d="M 691 4666 
L 3169 4666 
L 3169 4134 
L 1269 4134 
L 1269 2991 
Q 1406 3038 1543 3061 
Q 1681 3084 1819 3084 
Q 2600 3084 3056 2656 
Q 3513 2228 3513 1497 
Q 3513 744 3044 326 
Q 2575 -91 1722 -91 
Q 1428 -91 1123 -41 
Q 819 9 494 109 
L 494 744 
Q 775 591 1075 516 
Q 1375 441 1709 441 
Q 2250 441 2565 725 
Q 2881 1009 2881 1497 
Q 2881 1984 2565 2268 
Q 2250 2553 1709 2553 
Q 1456 2553 1204 2497 
Q 953 2441 691 2322 
L 691 4666 
z
" transform="scale(0.015625)"/>
      <path id="DejaVuSans-30" d="M 2034 4250 
Q 1547 4250 1301 3770 
Q 1056 3291 1056 2328 
Q 1056 1369 1301 889 
Q 1547 409 2034 409 
Q 2525 409 2770 889 
Q 3016 1369 3016 2328 
Q 3016 3291 2770 3770 
Q 2525 4250 2034 4250 
z
M 2034 4750 
Q 2819 4750 3233 4129 
Q 3647 3509 3647 2328 
Q 3647 1150 3233 529 
Q 2819 -91 2034 -91 
Q 1250 -91 836 529 
Q 422 1150 422 2328 
Q 422 3509 836 4129 
Q 1250 4750 2034 4750 
z
" transform="scale(0.015625)"/>
     </defs>
     <use xlink:href="#DejaVuSans-31"/>
     <use xlink:href="#DejaVuSans-37" x="63.623047"/>
     <use xlink:href="#DejaVuSans-35" x="127.246094"/>
     <use xlink:href="#DejaVuSans-37" x="190.869141"/>
     <use xlink:href="#DejaVuSans-30" x="254.492188"/>
    </g>
   </g>
   <g id="text_2">
    <!-- 36 -->
    <g transform="translate(342.803926 177.287375) scale(0.1 -0.1)">
     <defs>
      <path id="DejaVuSans-33" d="M 2597 2516 
Q 3050 2419 3304 2112 
Q 3559 1806 3559 1356 
Q 3559 666 3084 287 
Q 2609 -91 1734 -91 
Q 1441 -91 1130 -33 
Q 819 25 488 141 
L 488 750 
Q 750 597 1062 519 
Q 1375 441 1716 441 
Q 2309 441 2620 675 
Q 2931 909 2931 1356 
Q 2931 1769 2642 2001 
Q 2353 2234 1838 2234 
L 1294 2234 
L 1294 2753 
L 1863 2753 
Q 2328 2753 2575 2939 
Q 2822 3125 2822 3475 
Q 2822 3834 2567 4026 
Q 2313 4219 1838 4219 
Q 1578 4219 1281 4162 
Q 984 4106 628 3988 
L 628 4550 
Q 988 4650 1302 4700 
Q 1616 4750 1894 4750 
Q 2613 4750 3031 4423 
Q 3450 4097 3450 3541 
Q 3450 3153 3228 2886 
Q 3006 2619 2597 2516 
z
" transform="scale(0.015625)"/>
      <path id="DejaVuSans-36" d="M 2113 2584 
Q 1688 2584 1439 2293 
Q 1191 2003 1191 1497 
Q 1191 994 1439 701 
Q 1688 409 2113 409 
Q 2538 409 2786 701 
Q 3034 994 3034 1497 
Q 3034 2003 2786 2293 
Q 2538 2584 2113 2584 
z
M 3366 4563 
L 3366 3988 
Q 3128 4100 2886 4159 
Q 2644 4219 2406 4219 
Q 1781 4219 1451 3797 
Q 1122 3375 1075 2522 
Q 1259 2794 1537 2939 
Q 1816 3084 2150 3084 
Q 2853 3084 3261 2657 
Q 3669 2231 3669 1497 
Q 3669 778 3244 343 
Q 2819 -91 2113 -91 
Q 1303 -91 875 529 
Q 447 1150 447 2328 
Q 447 3434 972 4092 
Q 1497 4750 2381 4750 
Q 2619 4750 2861 4703 
Q 3103 4656 3366 4563 
z
" transform="scale(0.015625)"/>
     </defs>
     <use xlink:href="#DejaVuSans-33"/>
     <use xlink:href="#DejaVuSans-36" x="63.623047"/>
    </g>
   </g>
   <g id="text_3">
    <!-- 716 -->
    <g transform="translate(316.705943 177.287375) scale(0.1 -0.1)">
     <use xlink:href="#DejaVuSans-37"/>
     <use xlink:href="#DejaVuSans-31" x="63.623047"/>
     <use xlink:href="#DejaVuSans-36" x="127.246094"/>
    </g>
   </g>
  </g>
 </g>
 <defs>
  <clipPath id="p6538060d6d">
   <rect x="101.079837" y="41.472" width="270.160326" height="266.112"/>
  </clipPath>
 </defs>
</svg>
