<?xml version="1.0" encoding="utf-8" standalone="no"?>
<!DOCTYPE svg PUBLIC "-//W3C//DTD SVG 1.1//EN"
  "http://www.w3.org/Graphics/SVG/1.1/DTD/svg11.dtd">
<svg xmlns:xlink="http://www.w3.org/1999/xlink" width="460.8pt" height="345.6pt" viewBox="0 0 460.8 345.6" xmlns="http://www.w3.org/2000/svg" version="1.1">
 <metadata>
  <rdf:RDF xmlns:dc="http://purl.org/dc/elements/1.1/" xmlns:cc="http://creativecommons.org/ns#" xmlns:rdf="http://www.w3.org/1999/02/22-rdf-syntax-ns#">
   <cc:Work>
    <dc:type rdf:resource="http://purl.org/dc/dcmitype/StillImage"/>
    <dc:date>2025-07-23T14:49:12.259878</dc:date>
    <dc:format>image/svg+xml</dc:format>
    <dc:creator>
     <cc:Agent>
      <dc:title>Matplotlib v3.7.0, https://matplotlib.org/</dc:title>
     </cc:Agent>
    </dc:creator>
   </cc:Work>
  </rdf:RDF>
 </metadata>
 <defs>
  <style type="text/css">*{stroke-linejoin: round; stroke-linecap: butt}</style>
 </defs>
 <g id="figure_1">
  <g id="patch_1">
   <path d="M 0 345.6 
L 460.8 345.6 
L 460.8 0 
L 0 0 
z
" style="fill: #ffffff"/>
  </g>
  <g id="axes_1">
   <g id="patch_2">
    <path d="M 345.415291 190.664286 
C 343.802667 192.403863 341.938341 193.89191 339.884545 195.078756 
C 337.830749 196.265603 335.610592 197.137895 333.298181 197.666515 
C 330.98577 198.195135 328.607125 198.374135 326.241645 198.197541 
C 323.876165 198.020947 321.550465 197.490745 319.342177 196.624634 
C 317.13389 195.758523 315.067862 194.566248 313.213057 193.087606 
C 311.358252 191.608964 309.73554 189.860594 308.399087 187.900855 
C 307.062634 185.941116 306.027478 183.792059 305.328172 181.52542 
C 304.628865 179.258781 304.273278 176.900063 304.273278 174.528 
C 304.273278 172.155937 304.628865 169.797219 305.328172 167.53058 
C 306.027478 165.263941 307.062634 163.114884 308.399087 161.155145 
C 309.73554 159.195406 311.358252 157.447036 313.213057 155.968394 
C 315.067862 154.489752 317.13389 153.297477 319.342177 152.431366 
C 321.550465 151.565255 323.876165 151.035053 326.241645 150.858459 
C 328.607125 150.681865 330.98577 150.860865 333.298181 151.389485 
C 335.610592 151.918105 337.830749 152.790397 339.884545 153.977244 
C 341.938341 155.16409 343.802667 156.652137 345.415291 158.391714 
C 343.393516 144.378783 338.756035 130.869841 331.744817 118.569735 
C 324.733599 106.269629 315.472741 95.396071 304.445442 86.516405 
C 293.418143 77.636739 280.819586 70.908134 267.30712 66.681666 
C 253.794653 62.455198 239.607446 60.805674 225.485739 61.819162 
C 211.364031 62.832649 197.557775 66.491209 184.787333 72.603951 
C 172.016892 78.716692 160.5083 87.17542 150.862037 97.538788 
C 141.215773 107.902155 133.602576 119.986731 128.419675 133.161986 
C 123.236773 146.33724 120.575905 160.369971 120.575905 174.528 
C 120.575905 188.686029 123.236773 202.71876 128.419675 215.894014 
C 133.602576 229.069269 141.215773 241.153845 150.862037 251.517212 
C 160.5083 261.88058 172.016892 270.339308 184.787333 276.452049 
C 197.557775 282.564791 211.364031 286.223351 225.485739 287.236838 
C 239.607446 288.250326 253.794653 286.600802 267.30712 282.374334 
C 280.819586 278.147866 293.418143 271.419261 304.445442 262.539595 
C 315.472741 253.659929 324.733599 242.786371 331.744817 230.486265 
C 338.756035 218.186159 343.393516 204.677217 345.415291 190.664286 
" clip-path="url(#p4678e0bb09)" style="fill: #0000ff; opacity: 0.4"/>
   </g>
   <g id="patch_3">
    <path d="M 345.415291 158.391714 
C 346.186345 163.735897 346.573361 169.12848 346.573361 174.528 
C 346.573361 179.92752 346.186345 185.320103 345.415291 190.664286 
C 349.482354 186.277046 351.744095 180.510381 351.744095 174.528 
C 351.744095 168.545619 349.482354 162.778954 345.415291 158.391714 
" clip-path="url(#p4678e0bb09)" style="fill: #4682b4; opacity: 0.4"/>
   </g>
   <g id="patch_4">
    <path d="M 345.415291 190.664286 
C 346.186345 185.320103 346.573361 179.92752 346.573361 174.528 
C 346.573361 169.12848 346.186345 163.735897 345.415291 158.391714 
C 343.802667 156.652137 341.938341 155.16409 339.884545 153.977244 
C 337.830749 152.790397 335.610592 151.918105 333.298181 151.389485 
C 330.98577 150.860865 328.607125 150.681865 326.241645 150.858459 
C 323.876165 151.035053 321.550465 151.565255 319.342177 152.431366 
C 317.13389 153.297477 315.067862 154.489752 313.213057 155.968394 
C 311.358252 157.447036 309.73554 159.195406 308.399087 161.155145 
C 307.062634 163.114884 306.027478 165.263941 305.328172 167.53058 
C 304.628865 169.797219 304.273278 172.155937 304.273278 174.528 
C 304.273278 176.900063 304.628865 179.258781 305.328172 181.52542 
C 306.027478 183.792059 307.062634 185.941116 308.399087 187.900855 
C 309.73554 189.860594 311.358252 191.608964 313.213057 193.087606 
C 315.067862 194.566248 317.13389 195.758523 319.342177 196.624634 
C 321.550465 197.490745 323.876165 198.020947 326.241645 198.197541 
C 328.607125 198.374135 330.98577 198.195135 333.298181 197.666515 
C 335.610592 197.137895 337.830749 196.265603 339.884545 195.078756 
C 341.938341 193.89191 343.802667 192.403863 345.415291 190.664286 
" clip-path="url(#p4678e0bb09)" style="fill: #315bff; opacity: 0.4"/>
   </g>
   <g id="text_1">
    <!-- 16341 -->
    <g transform="translate(196.518341 177.287375) scale(0.1 -0.1)">
     <defs>
      <path id="DejaVuSans-31" d="M 794 531 
L 1825 531 
L 1825 4091 
L 703 3866 
L 703 4441 
L 1819 4666 
L 2450 4666 
L 2450 531 
L 3481 531 
L 3481 0 
L 794 0 
L 794 531 
z
" transform="scale(0.015625)"/>
      <path id="DejaVuSans-36" d="M 2113 2584 
Q 1688 2584 1439 2293 
Q 1191 2003 1191 1497 
Q 1191 994 1439 701 
Q 1688 409 2113 409 
Q 2538 409 2786 701 
Q 3034 994 3034 1497 
Q 3034 2003 2786 2293 
Q 2538 2584 2113 2584 
z
M 3366 4563 
L 3366 3988 
Q 3128 4100 2886 4159 
Q 2644 4219 2406 4219 
Q 1781 4219 1451 3797 
Q 1122 3375 1075 2522 
Q 1259 2794 1537 2939 
Q 1816 3084 2150 3084 
Q 2853 3084 3261 2657 
Q 3669 2231 3669 1497 
Q 3669 778 3244 343 
Q 2819 -91 2113 -91 
Q 1303 -91 875 529 
Q 447 1150 447 2328 
Q 447 3434 972 4092 
Q 1497 4750 2381 4750 
Q 2619 4750 2861 4703 
Q 3103 4656 3366 4563 
z
" transform="scale(0.015625)"/>
      <path id="DejaVuSans-33" d="M 2597 2516 
Q 3050 2419 3304 2112 
Q 3559 1806 3559 1356 
Q 3559 666 3084 287 
Q 2609 -91 1734 -91 
Q 1441 -91 1130 -33 
Q 819 25 488 141 
L 488 750 
Q 750 597 1062 519 
Q 1375 441 1716 441 
Q 2309 441 2620 675 
Q 2931 909 2931 1356 
Q 2931 1769 2642 2001 
Q 2353 2234 1838 2234 
L 1294 2234 
L 1294 2753 
L 1863 2753 
Q 2328 2753 2575 2939 
Q 2822 3125 2822 3475 
Q 2822 3834 2567 4026 
Q 2313 4219 1838 4219 
Q 1578 4219 1281 4162 
Q 984 4106 628 3988 
L 628 4550 
Q 988 4650 1302 4700 
Q 1616 4750 1894 4750 
Q 2613 4750 3031 4423 
Q 3450 4097 3450 3541 
Q 3450 3153 3228 2886 
Q 3006 2619 2597 2516 
z
" transform="scale(0.015625)"/>
      <path id="DejaVuSans-34" d="M 2419 4116 
L 825 1625 
L 2419 1625 
L 2419 4116 
z
M 2253 4666 
L 3047 4666 
L 3047 1625 
L 3713 1625 
L 3713 1100 
L 3047 1100 
L 3047 0 
L 2419 0 
L 2419 1100 
L 313 1100 
L 313 1709 
L 2253 4666 
z
" transform="scale(0.015625)"/>
     </defs>
     <use xlink:href="#DejaVuSans-31"/>
     <use xlink:href="#DejaVuSans-36" x="63.623047"/>
     <use xlink:href="#DejaVuSans-33" x="127.246094"/>
     <use xlink:href="#DejaVuSans-34" x="190.869141"/>
     <use xlink:href="#DejaVuSans-31" x="254.492188"/>
    </g>
   </g>
   <g id="text_2">
    <!-- 49 -->
    <g transform="translate(342.796228 177.287375) scale(0.1 -0.1)">
     <defs>
      <path id="DejaVuSans-39" d="M 703 97 
L 703 672 
Q 941 559 1184 500 
Q 1428 441 1663 441 
Q 2288 441 2617 861 
Q 2947 1281 2994 2138 
Q 2813 1869 2534 1725 
Q 2256 1581 1919 1581 
Q 1219 1581 811 2004 
Q 403 2428 403 3163 
Q 403 3881 828 4315 
Q 1253 4750 1959 4750 
Q 2769 4750 3195 4129 
Q 3622 3509 3622 2328 
Q 3622 1225 3098 567 
Q 2575 -91 1691 -91 
Q 1453 -91 1209 -44 
Q 966 3 703 97 
z
M 1959 2075 
Q 2384 2075 2632 2365 
Q 2881 2656 2881 3163 
Q 2881 3666 2632 3958 
Q 2384 4250 1959 4250 
Q 1534 4250 1286 3958 
Q 1038 3666 1038 3163 
Q 1038 2656 1286 2365 
Q 1534 2075 1959 2075 
z
" transform="scale(0.015625)"/>
     </defs>
     <use xlink:href="#DejaVuSans-34"/>
     <use xlink:href="#DejaVuSans-39" x="63.623047"/>
    </g>
   </g>
   <g id="text_3">
    <!-- 703 -->
    <g transform="translate(315.879569 177.287375) scale(0.1 -0.1)">
     <defs>
      <path id="DejaVuSans-37" d="M 525 4666 
L 3525 4666 
L 3525 4397 
L 1831 0 
L 1172 0 
L 2766 4134 
L 525 4134 
L 525 4666 
z
" transform="scale(0.015625)"/>
      <path id="DejaVuSans-30" d="M 2034 4250 
Q 1547 4250 1301 3770 
Q 1056 3291 1056 2328 
Q 1056 1369 1301 889 
Q 1547 409 2034 409 
Q 2525 409 2770 889 
Q 3016 1369 3016 2328 
Q 3016 3291 2770 3770 
Q 2525 4250 2034 4250 
z
M 2034 4750 
Q 2819 4750 3233 4129 
Q 3647 3509 3647 2328 
Q 3647 1150 3233 529 
Q 2819 -91 2034 -91 
Q 1250 -91 836 529 
Q 422 1150 422 2328 
Q 422 3509 836 4129 
Q 1250 4750 2034 4750 
z
" transform="scale(0.015625)"/>
     </defs>
     <use xlink:href="#DejaVuSans-37"/>
     <use xlink:href="#DejaVuSans-30" x="63.623047"/>
     <use xlink:href="#DejaVuSans-33" x="127.246094"/>
    </g>
   </g>
  </g>
 </g>
 <defs>
  <clipPath id="p4678e0bb09">
   <rect x="100.518633" y="41.472" width="271.282734" height="266.112"/>
  </clipPath>
 </defs>
</svg>
