<?xml version="1.0" encoding="utf-8" standalone="no"?>
<!DOCTYPE svg PUBLIC "-//W3C//DTD SVG 1.1//EN"
  "http://www.w3.org/Graphics/SVG/1.1/DTD/svg11.dtd">
<svg xmlns:xlink="http://www.w3.org/1999/xlink" width="460.8pt" height="345.6pt" viewBox="0 0 460.8 345.6" xmlns="http://www.w3.org/2000/svg" version="1.1">
 <metadata>
  <rdf:RDF xmlns:dc="http://purl.org/dc/elements/1.1/" xmlns:cc="http://creativecommons.org/ns#" xmlns:rdf="http://www.w3.org/1999/02/22-rdf-syntax-ns#">
   <cc:Work>
    <dc:type rdf:resource="http://purl.org/dc/dcmitype/StillImage"/>
    <dc:date>2025-08-18T12:26:24.550681</dc:date>
    <dc:format>image/svg+xml</dc:format>
    <dc:creator>
     <cc:Agent>
      <dc:title>Matplotlib v3.7.0, https://matplotlib.org/</dc:title>
     </cc:Agent>
    </dc:creator>
   </cc:Work>
  </rdf:RDF>
 </metadata>
 <defs>
  <style type="text/css">*{stroke-linejoin: round; stroke-linecap: butt}</style>
 </defs>
 <g id="figure_1">
  <g id="patch_1">
   <path d="M 0 345.6 
L 460.8 345.6 
L 460.8 0 
L 0 0 
z
" style="fill: #ffffff"/>
  </g>
  <g id="axes_1">
   <g id="patch_2">
    <path d="M 346.240862 188.761338 
C 344.771878 190.617331 343.02438 192.234771 341.06054 193.556117 
C 339.0967 194.877463 336.940085 195.886856 334.667421 196.548385 
C 332.394757 197.209914 330.033319 197.515641 327.667117 197.454688 
C 325.300916 197.393735 322.95835 196.966834 320.722759 196.189172 
C 318.487169 195.411511 316.385383 194.292422 314.492178 192.871719 
C 312.598973 191.451017 310.937068 189.74575 309.565589 187.816588 
C 308.19411 185.887425 307.129516 183.757519 306.409682 181.502644 
C 305.689848 179.247769 305.323413 176.894986 305.323413 174.528 
C 305.323413 172.161014 305.689848 169.808231 306.409682 167.553356 
C 307.129516 165.298481 308.19411 163.168575 309.565589 161.239412 
C 310.937068 159.31025 312.598973 157.604983 314.492178 156.184281 
C 316.385383 154.763578 318.487169 153.644489 320.722759 152.866828 
C 322.95835 152.089166 325.300916 151.662265 327.667117 151.601312 
C 330.033319 151.540359 332.394757 151.846086 334.667421 152.507615 
C 336.940085 153.169144 339.0967 154.178537 341.06054 155.499883 
C 343.02438 156.821229 344.771878 158.438669 346.240862 160.294662 
C 344.447341 146.168306 339.999817 132.5074 333.132957 120.03275 
C 326.266098 107.5581 317.102841 96.493039 306.126678 87.421407 
C 295.150515 78.349775 282.557953 71.433981 269.013427 67.038931 
C 255.468901 62.64388 241.214899 60.848258 227.003521 61.746809 
C 212.792143 62.64536 198.877816 66.221997 185.994717 72.288002 
C 173.111618 78.354006 161.490393 86.80078 151.744227 97.182634 
C 141.998061 107.564488 134.301439 119.695558 129.060467 132.935756 
C 123.819494 146.175955 121.128001 160.288244 121.128001 174.528 
C 121.128001 188.767756 123.819494 202.880045 129.060467 216.120244 
C 134.301439 229.360442 141.998061 241.491512 151.744227 251.873366 
C 161.490393 262.25522 173.111618 270.701994 185.994717 276.767998 
C 198.877816 282.834003 212.792143 286.41064 227.003521 287.309191 
C 241.214899 288.207742 255.468901 286.41212 269.013427 282.017069 
C 282.557953 277.622019 295.150515 270.706225 306.126678 261.634593 
C 317.102841 252.562961 326.266098 241.4979 333.132957 229.02325 
C 339.999817 216.5486 344.447341 202.887694 346.240862 188.761338 
" clip-path="url(#p8ca9a993f5)" style="fill: #0000ff; opacity: 0.4"/>
   </g>
   <g id="patch_3">
    <path d="M 346.240862 160.294662 
C 346.840223 165.015426 347.140801 169.769339 347.140801 174.528 
C 347.140801 179.286661 346.840223 184.040574 346.240862 188.761338 
C 349.446745 184.710854 351.191999 179.693666 351.191999 174.528 
C 351.191999 169.362334 349.446745 164.345146 346.240862 160.294662 
" clip-path="url(#p8ca9a993f5)" style="fill: #4682b4; opacity: 0.4"/>
   </g>
   <g id="patch_4">
    <path d="M 346.240862 188.761338 
C 346.840223 184.040574 347.140801 179.286661 347.140801 174.528 
C 347.140801 169.769339 346.840223 165.015426 346.240862 160.294662 
C 344.771878 158.438669 343.02438 156.821229 341.06054 155.499883 
C 339.0967 154.178537 336.940085 153.169144 334.667421 152.507615 
C 332.394757 151.846086 330.033319 151.540359 327.667117 151.601312 
C 325.300916 151.662265 322.95835 152.089166 320.722759 152.866828 
C 318.487169 153.644489 316.385383 154.763578 314.492178 156.184281 
C 312.598973 157.604983 310.937068 159.31025 309.565589 161.239412 
C 308.19411 163.168575 307.129516 165.298481 306.409682 167.553356 
C 305.689848 169.808231 305.323413 172.161014 305.323413 174.528 
C 305.323413 176.894986 305.689848 179.247769 306.409682 181.502644 
C 307.129516 183.757519 308.19411 185.887425 309.565589 187.816588 
C 310.937068 189.74575 312.598973 191.451017 314.492178 192.871719 
C 316.385383 194.292422 318.487169 195.411511 320.722759 196.189172 
C 322.95835 196.966834 325.300916 197.393735 327.667117 197.454688 
C 330.033319 197.515641 332.394757 197.209914 334.667421 196.548385 
C 336.940085 195.886856 339.0967 194.877463 341.06054 193.556117 
C 343.02438 192.234771 344.771878 190.617331 346.240862 188.761338 
" clip-path="url(#p8ca9a993f5)" style="fill: #315bff; opacity: 0.4"/>
   </g>
   <g id="text_1">
    <!-- 17542 -->
    <g transform="translate(197.319457 177.287375) scale(0.1 -0.1)">
     <defs>
      <path id="DejaVuSans-31" d="M 794 531 
L 1825 531 
L 1825 4091 
L 703 3866 
L 703 4441 
L 1819 4666 
L 2450 4666 
L 2450 531 
L 3481 531 
L 3481 0 
L 794 0 
L 794 531 
z
" transform="scale(0.015625)"/>
      <path id="DejaVuSans-37" d="M 525 4666 
L 3525 4666 
L 3525 4397 
L 1831 0 
L 1172 0 
L 2766 4134 
L 525 4134 
L 525 4666 
z
" transform="scale(0.015625)"/>
      <path id="DejaVuSans-35" d="M 691 4666 
L 3169 4666 
L 3169 4134 
L 1269 4134 
L 1269 2991 
Q 1406 3038 1543 3061 
Q 1681 3084 1819 3084 
Q 2600 3084 3056 2656 
Q 3513 2228 3513 1497 
Q 3513 744 3044 326 
Q 2575 -91 1722 -91 
Q 1428 -91 1123 -41 
Q 819 9 494 109 
L 494 744 
Q 775 591 1075 516 
Q 1375 441 1709 441 
Q 2250 441 2565 725 
Q 2881 1009 2881 1497 
Q 2881 1984 2565 2268 
Q 2250 2553 1709 2553 
Q 1456 2553 1204 2497 
Q 953 2441 691 2322 
L 691 4666 
z
" transform="scale(0.015625)"/>
      <path id="DejaVuSans-34" d="M 2419 4116 
L 825 1625 
L 2419 1625 
L 2419 4116 
z
M 2253 4666 
L 3047 4666 
L 3047 1625 
L 3713 1625 
L 3713 1100 
L 3047 1100 
L 3047 0 
L 2419 0 
L 2419 1100 
L 313 1100 
L 313 1709 
L 2253 4666 
z
" transform="scale(0.015625)"/>
      <path id="DejaVuSans-32" d="M 1228 531 
L 3431 531 
L 3431 0 
L 469 0 
L 469 531 
Q 828 903 1448 1529 
Q 2069 2156 2228 2338 
Q 2531 2678 2651 2914 
Q 2772 3150 2772 3378 
Q 2772 3750 2511 3984 
Q 2250 4219 1831 4219 
Q 1534 4219 1204 4116 
Q 875 4013 500 3803 
L 500 4441 
Q 881 4594 1212 4672 
Q 1544 4750 1819 4750 
Q 2544 4750 2975 4387 
Q 3406 4025 3406 3419 
Q 3406 3131 3298 2873 
Q 3191 2616 2906 2266 
Q 2828 2175 2409 1742 
Q 1991 1309 1228 531 
z
" transform="scale(0.015625)"/>
     </defs>
     <use xlink:href="#DejaVuSans-31"/>
     <use xlink:href="#DejaVuSans-37" x="63.623047"/>
     <use xlink:href="#DejaVuSans-35" x="127.246094"/>
     <use xlink:href="#DejaVuSans-34" x="190.869141"/>
     <use xlink:href="#DejaVuSans-32" x="254.492188"/>
    </g>
   </g>
   <g id="text_2">
    <!-- 36 -->
    <g transform="translate(342.8039 177.287375) scale(0.1 -0.1)">
     <defs>
      <path id="DejaVuSans-33" d="M 2597 2516 
Q 3050 2419 3304 2112 
Q 3559 1806 3559 1356 
Q 3559 666 3084 287 
Q 2609 -91 1734 -91 
Q 1441 -91 1130 -33 
Q 819 25 488 141 
L 488 750 
Q 750 597 1062 519 
Q 1375 441 1716 441 
Q 2309 441 2620 675 
Q 2931 909 2931 1356 
Q 2931 1769 2642 2001 
Q 2353 2234 1838 2234 
L 1294 2234 
L 1294 2753 
L 1863 2753 
Q 2328 2753 2575 2939 
Q 2822 3125 2822 3475 
Q 2822 3834 2567 4026 
Q 2313 4219 1838 4219 
Q 1578 4219 1281 4162 
Q 984 4106 628 3988 
L 628 4550 
Q 988 4650 1302 4700 
Q 1616 4750 1894 4750 
Q 2613 4750 3031 4423 
Q 3450 4097 3450 3541 
Q 3450 3153 3228 2886 
Q 3006 2619 2597 2516 
z
" transform="scale(0.015625)"/>
      <path id="DejaVuSans-36" d="M 2113 2584 
Q 1688 2584 1439 2293 
Q 1191 2003 1191 1497 
Q 1191 994 1439 701 
Q 1688 409 2113 409 
Q 2538 409 2786 701 
Q 3034 994 3034 1497 
Q 3034 2003 2786 2293 
Q 2538 2584 2113 2584 
z
M 3366 4563 
L 3366 3988 
Q 3128 4100 2886 4159 
Q 2644 4219 2406 4219 
Q 1781 4219 1451 3797 
Q 1122 3375 1075 2522 
Q 1259 2794 1537 2939 
Q 1816 3084 2150 3084 
Q 2853 3084 3261 2657 
Q 3669 2231 3669 1497 
Q 3669 778 3244 343 
Q 2819 -91 2113 -91 
Q 1303 -91 875 529 
Q 447 1150 447 2328 
Q 447 3434 972 4092 
Q 1497 4750 2381 4750 
Q 2619 4750 2861 4703 
Q 3103 4656 3366 4563 
z
" transform="scale(0.015625)"/>
     </defs>
     <use xlink:href="#DejaVuSans-33"/>
     <use xlink:href="#DejaVuSans-36" x="63.623047"/>
    </g>
   </g>
   <g id="text_3">
    <!-- 716 -->
    <g transform="translate(316.688357 177.287375) scale(0.1 -0.1)">
     <use xlink:href="#DejaVuSans-37"/>
     <use xlink:href="#DejaVuSans-31" x="63.623047"/>
     <use xlink:href="#DejaVuSans-36" x="127.246094"/>
    </g>
   </g>
  </g>
 </g>
 <defs>
  <clipPath id="p8ca9a993f5">
   <rect x="101.078401" y="41.472" width="270.163198" height="266.112"/>
  </clipPath>
 </defs>
</svg>
