<?xml version="1.0" encoding="utf-8" standalone="no"?>
<!DOCTYPE svg PUBLIC "-//W3C//DTD SVG 1.1//EN"
  "http://www.w3.org/Graphics/SVG/1.1/DTD/svg11.dtd">
<svg xmlns:xlink="http://www.w3.org/1999/xlink" width="576pt" height="432pt" viewBox="0 0 576 432" xmlns="http://www.w3.org/2000/svg" version="1.1">
 <metadata>
  <rdf:RDF xmlns:dc="http://purl.org/dc/elements/1.1/" xmlns:cc="http://creativecommons.org/ns#" xmlns:rdf="http://www.w3.org/1999/02/22-rdf-syntax-ns#">
   <cc:Work>
    <dc:type rdf:resource="http://purl.org/dc/dcmitype/StillImage"/>
    <dc:date>2026-03-21T15:17:21.399044</dc:date>
    <dc:format>image/svg+xml</dc:format>
    <dc:creator>
     <cc:Agent>
      <dc:title>Matplotlib v3.7.0, https://matplotlib.org/</dc:title>
     </cc:Agent>
    </dc:creator>
   </cc:Work>
  </rdf:RDF>
 </metadata>
 <defs>
  <style type="text/css">*{stroke-linejoin: round; stroke-linecap: butt}</style>
 </defs>
 <g id="figure_1">
  <g id="patch_1">
   <path d="M 0 432 
L 576 432 
L 576 0 
L 0 0 
z
" style="fill: #ffffff"/>
  </g>
  <g id="axes_1">
   <g id="patch_2">
    <path d="M 375.462 239.952 
C 375.462 216.150731 370.773669 192.580899 361.665318 170.591393 
C 352.556966 148.601888 339.205729 128.620349 322.37569 111.79031 
C 305.545651 94.960271 285.564112 81.609034 263.574607 72.500682 
C 241.585101 63.392331 218.015269 58.704 194.214 58.704 
C 170.412731 58.704 146.842899 63.392331 124.853393 72.500682 
C 102.863888 81.609034 82.882349 94.960271 66.05231 111.79031 
C 49.222271 128.620349 35.871034 148.601888 26.762682 170.591393 
C 17.654331 192.580899 12.966 216.150731 12.966 239.952 
C 12.966 263.753269 17.654331 287.323101 26.762682 309.312607 
C 35.871034 331.302112 49.222271 351.283651 66.05231 368.11369 
C 82.882349 384.943729 102.863888 398.294966 124.853393 407.403318 
C 146.842899 416.511669 170.412731 421.2 194.214 421.2 
C 218.015269 421.2 241.585101 416.511669 263.574607 407.403318 
C 285.564112 398.294966 305.545651 384.943729 322.37569 368.11369 
C 339.205729 351.283651 352.556966 331.302112 361.665318 309.312607 
C 370.773669 287.323101 375.462 263.753269 375.462 239.952 
M 194.214 239.952 
C 194.214 239.952 194.214 239.952 194.214 239.952 
C 194.214 239.952 194.214 239.952 194.214 239.952 
C 194.214 239.952 194.214 239.952 194.214 239.952 
C 194.214 239.952 194.214 239.952 194.214 239.952 
C 194.214 239.952 194.214 239.952 194.214 239.952 
C 194.214 239.952 194.214 239.952 194.214 239.952 
C 194.214 239.952 194.214 239.952 194.214 239.952 
C 194.214 239.952 194.214 239.952 194.214 239.952 
C 194.214 239.952 194.214 239.952 194.214 239.952 
C 194.214 239.952 194.214 239.952 194.214 239.952 
C 194.214 239.952 194.214 239.952 194.214 239.952 
C 194.214 239.952 194.214 239.952 194.214 239.952 
C 194.214 239.952 194.214 239.952 194.214 239.952 
C 194.214 239.952 194.214 239.952 194.214 239.952 
C 194.214 239.952 194.214 239.952 194.214 239.952 
C 194.214 239.952 194.214 239.952 194.214 239.952 
z
" style="fill: #ffffff"/>
   </g>
   <g id="patch_3">
    <path d="M 194.214 239.952 
C 194.214 239.952 194.214 239.952 194.214 239.952 
C 194.214 239.952 194.214 239.952 194.214 239.952 
L 354.556918 176.023707 
C 358.602162 186.169861 361.675251 196.677111 363.734816 207.404023 
C 365.794382 218.130935 366.831143 229.02916 366.831143 239.952 
z
" clip-path="url(#pe3014be834)" style="fill: #1f77b4; stroke: #ffffff; stroke-linejoin: miter"/>
   </g>
   <g id="patch_4">
    <path d="M 194.214 239.952 
C 194.214 239.952 194.214 239.952 194.214 239.952 
C 194.214 239.952 194.214 239.952 194.214 239.952 
L 320.535923 122.310809 
C 327.804437 130.115666 334.333995 138.577388 340.040786 147.587362 
C 345.747577 156.597336 350.607079 166.116847 354.556918 176.023707 
z
" clip-path="url(#pe3014be834)" style="fill: #ff7f0e; stroke: #ffffff; stroke-linejoin: miter"/>
   </g>
   <g id="patch_5">
    <path d="M 194.214 239.952 
C 194.214 239.952 194.214 239.952 194.214 239.952 
C 194.214 239.952 194.214 239.952 194.214 239.952 
L 296.805024 101.129236 
C 301.075433 104.285099 305.197948 107.636328 309.159418 111.172231 
C 313.120888 114.708134 316.917094 118.424947 320.535923 122.310809 
z
" clip-path="url(#pe3014be834)" style="fill: #2ca02c; stroke: #ffffff; stroke-linejoin: miter"/>
   </g>
   <g id="patch_6">
    <path d="M 194.214 239.952 
C 194.214 239.952 194.214 239.952 194.214 239.952 
C 194.214 239.952 194.214 239.952 194.214 239.952 
L 271.346558 85.526463 
C 275.804916 87.753326 280.164747 90.172218 284.413796 92.77634 
C 288.662845 95.380462 292.797128 98.167372 296.805024 101.129236 
z
" clip-path="url(#pe3014be834)" style="fill: #d62728; stroke: #ffffff; stroke-linejoin: miter"/>
   </g>
   <g id="patch_7">
    <path d="M 194.214 239.952 
C 194.214 239.952 194.214 239.952 194.214 239.952 
C 194.214 239.952 194.214 239.952 194.214 239.952 
L 247.431501 75.743061 
C 251.532517 77.072135 255.582305 78.554373 259.572345 80.186657 
C 263.562385 81.818941 267.489877 83.600125 271.346558 85.526463 
z
" clip-path="url(#pe3014be834)" style="fill: #9467bd; stroke: #ffffff; stroke-linejoin: miter"/>
   </g>
   <g id="patch_8">
    <path d="M 194.214 239.952 
C 194.214 239.952 194.214 239.952 194.214 239.952 
C 194.214 239.952 194.214 239.952 194.214 239.952 
C 194.214 239.952 194.214 239.952 194.214 239.952 
C 194.214 239.952 194.214 239.952 194.214 239.952 
C 194.214 239.952 194.214 239.952 194.214 239.952 
C 194.214 239.952 194.214 239.952 194.214 239.952 
C 194.214 239.952 194.214 239.952 194.214 239.952 
C 194.214 239.952 194.214 239.952 194.214 239.952 
C 194.214 239.952 194.214 239.952 194.214 239.952 
C 194.214 239.952 194.214 239.952 194.214 239.952 
C 194.214 239.952 194.214 239.952 194.214 239.952 
C 194.214 239.952 194.214 239.952 194.214 239.952 
C 194.214 239.952 194.214 239.952 194.214 239.952 
C 194.214 239.952 194.214 239.952 194.214 239.952 
C 194.214 239.952 194.214 239.952 194.214 239.952 
C 194.214 239.952 194.214 239.952 194.214 239.952 
L 366.831143 239.952 
C 366.831143 258.062776 363.980903 276.061237 358.385179 293.285873 
C 352.789455 310.51051 344.517652 326.747681 333.87379 341.400613 
C 323.229927 356.053545 310.346022 368.940494 295.695606 379.587818 
C 281.045189 390.235142 264.809972 398.510781 247.586658 404.110574 
C 230.363344 409.710367 212.365558 412.564859 194.254782 412.569138 
C 176.144006 412.573417 158.144872 409.727429 140.918914 404.135775 
C 123.692956 398.54412 107.453831 390.276154 92.798385 379.635754 
C 78.142939 368.995353 65.252946 356.114493 54.602161 341.466593 
C 43.951376 326.818692 35.671902 310.58543 30.06804 293.36344 
C 24.464178 276.14145 21.605434 258.144338 21.596876 240.033563 
C 21.588319 221.922789 24.430054 203.922983 30.017639 186.695705 
C 35.605223 169.468427 43.869353 153.227348 54.50629 138.569389 
C 65.143228 123.911429 78.021042 111.018394 92.666426 100.364149 
C 107.31181 89.709903 123.543115 81.426594 140.763781 75.818664 
C 157.984447 70.210733 175.980883 67.347737 194.091655 67.3349 
C 212.202427 67.322064 230.202903 70.159547 247.431501 75.743061 
z
" clip-path="url(#pe3014be834)" style="fill: #8c564b; stroke: #ffffff; stroke-linejoin: miter"/>
   </g>
   <g id="matplotlib.axis_1"/>
   <g id="matplotlib.axis_2"/>
   <g id="patch_9">
    <path d="M 375.462 239.952 
C 375.462 216.150731 370.773669 192.580899 361.665318 170.591393 
C 352.556966 148.601888 339.205729 128.620349 322.37569 111.79031 
C 305.545651 94.960271 285.564112 81.609034 263.574607 72.500682 
C 241.585101 63.392331 218.015269 58.704 194.214 58.704 
C 170.412731 58.704 146.842899 63.392331 124.853393 72.500682 
C 102.863888 81.609034 82.882349 94.960271 66.05231 111.79031 
C 49.222271 128.620349 35.871034 148.601888 26.762682 170.591393 
C 17.654331 192.580899 12.966 216.150731 12.966 239.952 
C 12.966 263.753269 17.654331 287.323101 26.762682 309.312607 
C 35.871034 331.302112 49.222271 351.283651 66.05231 368.11369 
C 82.882349 384.943729 102.863888 398.294966 124.853393 407.403318 
C 146.842899 416.511669 170.412731 421.2 194.214 421.2 
C 218.015269 421.2 241.585101 416.511669 263.574607 407.403318 
C 285.564112 398.294966 305.545651 384.943729 322.37569 368.11369 
C 339.205729 351.283651 352.556966 331.302112 361.665318 309.312607 
C 370.773669 287.323101 375.462 263.753269 375.462 239.952 
" style="fill: none; stroke: #000000; stroke-width: 0.8; stroke-linejoin: miter; stroke-linecap: square"/>
   </g>
   <g id="text_1">
    <text style="font: 12px 'DejaVu Sans', 'Bitstream Vera Sans', 'Computer Modern Sans Serif', 'Lucida Grande', 'Verdana', 'Geneva', 'Lucid', 'Arial', 'Helvetica', 'Avant Garde', sans-serif; text-anchor: middle" x="194.214" y="16.4544" transform="rotate(-0 194.214 16.4544)">GenusTaxa Distribution (Pie Chart)</text>
   </g>
   <g id="legend_1">
    <g id="patch_10">
     <path d="M 404.0868 308.253562 
L 618.500081 308.253562 
Q 621.500081 308.253562 621.500081 305.253562 
L 621.500081 174.650438 
Q 621.500081 171.650438 618.500081 171.650438 
L 404.0868 171.650438 
Q 401.0868 171.650438 401.0868 174.650438 
L 401.0868 305.253562 
Q 401.0868 308.253562 404.0868 308.253562 
z
" style="fill: #ffffff; opacity: 0.8; stroke: #cccccc; stroke-linejoin: miter"/>
    </g>
    <g id="patch_11">
     <path d="M 407.0868 189.048094 
L 437.0868 189.048094 
L 437.0868 178.548094 
L 407.0868 178.548094 
z
" style="fill: #1f77b4; stroke: #ffffff; stroke-linejoin: miter"/>
    </g>
    <g id="text_2">
     <text style="font: 15px 'DejaVu Sans', 'Bitstream Vera Sans', 'Computer Modern Sans Serif', 'Lucida Grande', 'Verdana', 'Geneva', 'Lucid', 'Arial', 'Helvetica', 'Avant Garde', sans-serif; text-anchor: start" x="449.0868" y="189.048094" transform="rotate(-0 449.0868 189.048094)">Pseudomonas: 6.0%</text>
    </g>
    <g id="patch_12">
     <path d="M 407.0868 211.065281 
L 437.0868 211.065281 
L 437.0868 200.565281 
L 407.0868 200.565281 
z
" style="fill: #ff7f0e; stroke: #ffffff; stroke-linejoin: miter"/>
    </g>
    <g id="text_3">
     <text style="font: 15px 'DejaVu Sans', 'Bitstream Vera Sans', 'Computer Modern Sans Serif', 'Lucida Grande', 'Verdana', 'Geneva', 'Lucid', 'Arial', 'Helvetica', 'Avant Garde', sans-serif; text-anchor: start" x="449.0868" y="211.065281" transform="rotate(-0 449.0868 211.065281)">Streptomyces: 5.9%</text>
    </g>
    <g id="patch_13">
     <path d="M 407.0868 233.082469 
L 437.0868 233.082469 
L 437.0868 222.582469 
L 407.0868 222.582469 
z
" style="fill: #2ca02c; stroke: #ffffff; stroke-linejoin: miter"/>
    </g>
    <g id="text_4">
     <text style="font: 15px 'DejaVu Sans', 'Bitstream Vera Sans', 'Computer Modern Sans Serif', 'Lucida Grande', 'Verdana', 'Geneva', 'Lucid', 'Arial', 'Helvetica', 'Avant Garde', sans-serif; text-anchor: start" x="449.0868" y="233.082469" transform="rotate(-0 449.0868 233.082469)">Burkholderia: 2.9%</text>
    </g>
    <g id="patch_14">
     <path d="M 407.0868 255.099656 
L 437.0868 255.099656 
L 437.0868 244.599656 
L 407.0868 244.599656 
z
" style="fill: #d62728; stroke: #ffffff; stroke-linejoin: miter"/>
    </g>
    <g id="text_5">
     <text style="font: 15px 'DejaVu Sans', 'Bitstream Vera Sans', 'Computer Modern Sans Serif', 'Lucida Grande', 'Verdana', 'Geneva', 'Lucid', 'Arial', 'Helvetica', 'Avant Garde', sans-serif; text-anchor: start" x="449.0868" y="255.099656" transform="rotate(-0 449.0868 255.099656)">Bradyrhizobium: 2.8%</text>
    </g>
    <g id="patch_15">
     <path d="M 407.0868 277.116844 
L 437.0868 277.116844 
L 437.0868 266.616844 
L 407.0868 266.616844 
z
" style="fill: #9467bd; stroke: #ffffff; stroke-linejoin: miter"/>
    </g>
    <g id="text_6">
     <text style="font: 15px 'DejaVu Sans', 'Bitstream Vera Sans', 'Computer Modern Sans Serif', 'Lucida Grande', 'Verdana', 'Geneva', 'Lucid', 'Arial', 'Helvetica', 'Avant Garde', sans-serif; text-anchor: start" x="449.0868" y="277.116844" transform="rotate(-0 449.0868 277.116844)">Mesorhizobium: 2.4%</text>
    </g>
    <g id="patch_16">
     <path d="M 407.0868 299.134031 
L 437.0868 299.134031 
L 437.0868 288.634031 
L 407.0868 288.634031 
z
" style="fill: #8c564b; stroke: #ffffff; stroke-linejoin: miter"/>
    </g>
    <g id="text_7">
     <text style="font: 15px 'DejaVu Sans', 'Bitstream Vera Sans', 'Computer Modern Sans Serif', 'Lucida Grande', 'Verdana', 'Geneva', 'Lucid', 'Arial', 'Helvetica', 'Avant Garde', sans-serif; text-anchor: start" x="449.0868" y="299.134031" transform="rotate(-0 449.0868 299.134031)">Other: 80.0%</text>
    </g>
   </g>
  </g>
 </g>
 <defs>
  <clipPath id="pe3014be834">
   <path d="M 375.462 239.952 
C 375.462 216.150731 370.773669 192.580899 361.665318 170.591393 
C 352.556966 148.601888 339.205729 128.620349 322.37569 111.79031 
C 305.545651 94.960271 285.564112 81.609034 263.574607 72.500682 
C 241.585101 63.392331 218.015269 58.704 194.214 58.704 
C 170.412731 58.704 146.842899 63.392331 124.853393 72.500682 
C 102.863888 81.609034 82.882349 94.960271 66.05231 111.79031 
C 49.222271 128.620349 35.871034 148.601888 26.762682 170.591393 
C 17.654331 192.580899 12.966 216.150731 12.966 239.952 
C 12.966 263.753269 17.654331 287.323101 26.762682 309.312607 
C 35.871034 331.302112 49.222271 351.283651 66.05231 368.11369 
C 82.882349 384.943729 102.863888 398.294966 124.853393 407.403318 
C 146.842899 416.511669 170.412731 421.2 194.214 421.2 
C 218.015269 421.2 241.585101 416.511669 263.574607 407.403318 
C 285.564112 398.294966 305.545651 384.943729 322.37569 368.11369 
C 339.205729 351.283651 352.556966 331.302112 361.665318 309.312607 
C 370.773669 287.323101 375.462 263.753269 375.462 239.952 
M 194.214 239.952 
C 194.214 239.952 194.214 239.952 194.214 239.952 
C 194.214 239.952 194.214 239.952 194.214 239.952 
C 194.214 239.952 194.214 239.952 194.214 239.952 
C 194.214 239.952 194.214 239.952 194.214 239.952 
C 194.214 239.952 194.214 239.952 194.214 239.952 
C 194.214 239.952 194.214 239.952 194.214 239.952 
C 194.214 239.952 194.214 239.952 194.214 239.952 
C 194.214 239.952 194.214 239.952 194.214 239.952 
C 194.214 239.952 194.214 239.952 194.214 239.952 
C 194.214 239.952 194.214 239.952 194.214 239.952 
C 194.214 239.952 194.214 239.952 194.214 239.952 
C 194.214 239.952 194.214 239.952 194.214 239.952 
C 194.214 239.952 194.214 239.952 194.214 239.952 
C 194.214 239.952 194.214 239.952 194.214 239.952 
C 194.214 239.952 194.214 239.952 194.214 239.952 
C 194.214 239.952 194.214 239.952 194.214 239.952 
z
"/>
  </clipPath>
 </defs>
</svg>
