<?xml version="1.0" encoding="utf-8" standalone="no"?>
<!DOCTYPE svg PUBLIC "-//W3C//DTD SVG 1.1//EN"
  "http://www.w3.org/Graphics/SVG/1.1/DTD/svg11.dtd">
<svg xmlns:xlink="http://www.w3.org/1999/xlink" width="576pt" height="432pt" viewBox="0 0 576 432" xmlns="http://www.w3.org/2000/svg" version="1.1">
 <metadata>
  <rdf:RDF xmlns:dc="http://purl.org/dc/elements/1.1/" xmlns:cc="http://creativecommons.org/ns#" xmlns:rdf="http://www.w3.org/1999/02/22-rdf-syntax-ns#">
   <cc:Work>
    <dc:type rdf:resource="http://purl.org/dc/dcmitype/StillImage"/>
    <dc:date>2025-08-04T11:19:01.092221</dc:date>
    <dc:format>image/svg+xml</dc:format>
    <dc:creator>
     <cc:Agent>
      <dc:title>Matplotlib v3.7.0, https://matplotlib.org/</dc:title>
     </cc:Agent>
    </dc:creator>
   </cc:Work>
  </rdf:RDF>
 </metadata>
 <defs>
  <style type="text/css">*{stroke-linejoin: round; stroke-linecap: butt}</style>
 </defs>
 <g id="figure_1">
  <g id="patch_1">
   <path d="M 0 432 
L 576 432 
L 576 0 
L 0 0 
z
" style="fill: #ffffff"/>
  </g>
  <g id="axes_1">
   <g id="patch_2">
    <path d="M 374.247 239.952 
C 374.247 216.150731 369.558669 192.580899 360.450318 170.591393 
C 351.341966 148.601888 337.990729 128.620349 321.16069 111.79031 
C 304.330651 94.960271 284.349112 81.609034 262.359607 72.500682 
C 240.370101 63.392331 216.800269 58.704 192.999 58.704 
C 169.197731 58.704 145.627899 63.392331 123.638393 72.500682 
C 101.648888 81.609034 81.667349 94.960271 64.83731 111.79031 
C 48.007271 128.620349 34.656034 148.601888 25.547682 170.591393 
C 16.439331 192.580899 11.751 216.150731 11.751 239.952 
C 11.751 263.753269 16.439331 287.323101 25.547682 309.312607 
C 34.656034 331.302112 48.007271 351.283651 64.83731 368.11369 
C 81.667349 384.943729 101.648888 398.294966 123.638393 407.403318 
C 145.627899 416.511669 169.197731 421.2 192.999 421.2 
C 216.800269 421.2 240.370101 416.511669 262.359607 407.403318 
C 284.349112 398.294966 304.330651 384.943729 321.16069 368.11369 
C 337.990729 351.283651 351.341966 331.302112 360.450318 309.312607 
C 369.558669 287.323101 374.247 263.753269 374.247 239.952 
M 192.999 239.952 
C 192.999 239.952 192.999 239.952 192.999 239.952 
C 192.999 239.952 192.999 239.952 192.999 239.952 
C 192.999 239.952 192.999 239.952 192.999 239.952 
C 192.999 239.952 192.999 239.952 192.999 239.952 
C 192.999 239.952 192.999 239.952 192.999 239.952 
C 192.999 239.952 192.999 239.952 192.999 239.952 
C 192.999 239.952 192.999 239.952 192.999 239.952 
C 192.999 239.952 192.999 239.952 192.999 239.952 
C 192.999 239.952 192.999 239.952 192.999 239.952 
C 192.999 239.952 192.999 239.952 192.999 239.952 
C 192.999 239.952 192.999 239.952 192.999 239.952 
C 192.999 239.952 192.999 239.952 192.999 239.952 
C 192.999 239.952 192.999 239.952 192.999 239.952 
C 192.999 239.952 192.999 239.952 192.999 239.952 
C 192.999 239.952 192.999 239.952 192.999 239.952 
C 192.999 239.952 192.999 239.952 192.999 239.952 
z
" style="fill: #ffffff"/>
   </g>
   <g id="patch_3">
    <path d="M 192.999 239.952 
C 192.999 239.952 192.999 239.952 192.999 239.952 
C 192.999 239.952 192.999 239.952 192.999 239.952 
L 352.994028 175.15795 
C 357.15256 185.426554 360.312881 196.071699 362.431232 206.94599 
C 364.549583 217.820282 365.616143 228.873299 365.616143 239.952 
z
" clip-path="url(#p861045765f)" style="fill: #a1c9f4; stroke: #ffffff; stroke-linejoin: miter"/>
   </g>
   <g id="patch_4">
    <path d="M 192.999 239.952 
C 192.999 239.952 192.999 239.952 192.999 239.952 
C 192.999 239.952 192.999 239.952 192.999 239.952 
L 331.666723 137.151511 
C 336.005496 143.004087 339.969401 149.12548 343.534651 155.478952 
C 347.0999 161.832423 350.259346 168.405238 352.994028 175.15795 
z
" clip-path="url(#p861045765f)" style="fill: #ffb482; stroke: #ffffff; stroke-linejoin: miter"/>
   </g>
   <g id="patch_5">
    <path d="M 192.999 239.952 
C 192.999 239.952 192.999 239.952 192.999 239.952 
C 192.999 239.952 192.999 239.952 192.999 239.952 
L 304.863773 108.487364 
C 309.857165 112.736299 314.604424 117.266279 319.082469 122.055279 
C 323.560514 126.84428 327.762075 131.884526 331.666723 137.151511 
z
" clip-path="url(#p861045765f)" style="fill: #8de5a1; stroke: #ffffff; stroke-linejoin: miter"/>
   </g>
   <g id="patch_6">
    <path d="M 192.999 239.952 
C 192.999 239.952 192.999 239.952 192.999 239.952 
C 192.999 239.952 192.999 239.952 192.999 239.952 
L 277.662521 89.523392 
C 282.487046 92.238708 287.178152 95.184551 291.719569 98.350703 
C 296.260985 101.516855 300.647458 104.899653 304.863773 108.487364 
z
" clip-path="url(#p861045765f)" style="fill: #ff9f9b; stroke: #ffffff; stroke-linejoin: miter"/>
   </g>
   <g id="patch_7">
    <path d="M 192.999 239.952 
C 192.999 239.952 192.999 239.952 192.999 239.952 
C 192.999 239.952 192.999 239.952 192.999 239.952 
L 254.743848 78.755686 
C 258.688954 80.266824 262.577256 81.922282 266.400897 83.718715 
C 270.224539 85.515147 273.980943 87.451343 277.662521 89.523392 
z
" clip-path="url(#p861045765f)" style="fill: #d0bbff; stroke: #ffffff; stroke-linejoin: miter"/>
   </g>
   <g id="patch_8">
    <path d="M 192.999 239.952 
C 192.999 239.952 192.999 239.952 192.999 239.952 
C 192.999 239.952 192.999 239.952 192.999 239.952 
C 192.999 239.952 192.999 239.952 192.999 239.952 
C 192.999 239.952 192.999 239.952 192.999 239.952 
C 192.999 239.952 192.999 239.952 192.999 239.952 
C 192.999 239.952 192.999 239.952 192.999 239.952 
C 192.999 239.952 192.999 239.952 192.999 239.952 
C 192.999 239.952 192.999 239.952 192.999 239.952 
C 192.999 239.952 192.999 239.952 192.999 239.952 
C 192.999 239.952 192.999 239.952 192.999 239.952 
C 192.999 239.952 192.999 239.952 192.999 239.952 
C 192.999 239.952 192.999 239.952 192.999 239.952 
C 192.999 239.952 192.999 239.952 192.999 239.952 
C 192.999 239.952 192.999 239.952 192.999 239.952 
C 192.999 239.952 192.999 239.952 192.999 239.952 
C 192.999 239.952 192.999 239.952 192.999 239.952 
L 365.616143 239.952 
C 365.616143 258.252382 362.705911 276.436879 356.994635 293.823233 
C 351.283359 311.209587 342.843371 327.577605 331.991328 342.313178 
C 321.139285 357.048752 308.012625 369.965261 293.103844 380.578094 
C 278.195063 391.190926 261.692975 399.365675 244.216719 404.795633 
C 226.740463 410.225591 208.511369 412.841989 190.213371 412.546665 
C 171.915372 412.25134 153.780206 409.048032 136.488283 403.056926 
C 119.19636 397.065819 102.966675 388.362789 88.408146 377.274363 
C 73.849617 366.185936 61.146623 352.852543 50.775765 337.774438 
C 40.404906 322.696333 32.497527 306.064473 27.350301 288.502866 
C 22.203076 270.941259 19.881192 252.672316 20.471764 234.381466 
C 21.062336 216.090617 24.557885 198.009506 30.827262 180.816517 
C 37.096639 163.623528 46.060444 147.536402 57.382367 133.15871 
C 68.70429 118.781018 82.240942 106.294847 97.484445 96.168664 
C 112.727948 86.042481 129.485248 78.404529 147.127632 73.541377 
C 164.770016 68.678224 183.074049 66.65146 201.352987 67.537126 
C 219.631924 68.422792 237.65427 72.209671 254.743848 78.755686 
z
" clip-path="url(#p861045765f)" style="fill: #debb9b; stroke: #ffffff; stroke-linejoin: miter"/>
   </g>
   <g id="matplotlib.axis_1"/>
   <g id="matplotlib.axis_2"/>
   <g id="patch_9">
    <path d="M 374.247 239.952 
C 374.247 216.150731 369.558669 192.580899 360.450318 170.591393 
C 351.341966 148.601888 337.990729 128.620349 321.16069 111.79031 
C 304.330651 94.960271 284.349112 81.609034 262.359607 72.500682 
C 240.370101 63.392331 216.800269 58.704 192.999 58.704 
C 169.197731 58.704 145.627899 63.392331 123.638393 72.500682 
C 101.648888 81.609034 81.667349 94.960271 64.83731 111.79031 
C 48.007271 128.620349 34.656034 148.601888 25.547682 170.591393 
C 16.439331 192.580899 11.751 216.150731 11.751 239.952 
C 11.751 263.753269 16.439331 287.323101 25.547682 309.312607 
C 34.656034 331.302112 48.007271 351.283651 64.83731 368.11369 
C 81.667349 384.943729 101.648888 398.294966 123.638393 407.403318 
C 145.627899 416.511669 169.197731 421.2 192.999 421.2 
C 216.800269 421.2 240.370101 416.511669 262.359607 407.403318 
C 284.349112 398.294966 304.330651 384.943729 321.16069 368.11369 
C 337.990729 351.283651 351.341966 331.302112 360.450318 309.312607 
C 369.558669 287.323101 374.247 263.753269 374.247 239.952 
" style="fill: none; stroke: #000000; stroke-width: 0.8; stroke-linejoin: miter; stroke-linecap: square"/>
   </g>
   <g id="text_1">
    <!-- Genus_SecretedTaxa Distribution (Pie Chart) -->
    <g transform="translate(59.936813 16.4544) scale(0.12 -0.12)">
     <defs>
      <path id="DejaVuSans-47" d="M 3809 666 
L 3809 1919 
L 2778 1919 
L 2778 2438 
L 4434 2438 
L 4434 434 
Q 4069 175 3628 42 
Q 3188 -91 2688 -91 
Q 1594 -91 976 548 
Q 359 1188 359 2328 
Q 359 3472 976 4111 
Q 1594 4750 2688 4750 
Q 3144 4750 3555 4637 
Q 3966 4525 4313 4306 
L 4313 3634 
Q 3963 3931 3569 4081 
Q 3175 4231 2741 4231 
Q 1884 4231 1454 3753 
Q 1025 3275 1025 2328 
Q 1025 1384 1454 906 
Q 1884 428 2741 428 
Q 3075 428 3337 486 
Q 3600 544 3809 666 
z
" transform="scale(0.015625)"/>
      <path id="DejaVuSans-65" d="M 3597 1894 
L 3597 1613 
L 953 1613 
Q 991 1019 1311 708 
Q 1631 397 2203 397 
Q 2534 397 2845 478 
Q 3156 559 3463 722 
L 3463 178 
Q 3153 47 2828 -22 
Q 2503 -91 2169 -91 
Q 1331 -91 842 396 
Q 353 884 353 1716 
Q 353 2575 817 3079 
Q 1281 3584 2069 3584 
Q 2775 3584 3186 3129 
Q 3597 2675 3597 1894 
z
M 3022 2063 
Q 3016 2534 2758 2815 
Q 2500 3097 2075 3097 
Q 1594 3097 1305 2825 
Q 1016 2553 972 2059 
L 3022 2063 
z
" transform="scale(0.015625)"/>
      <path id="DejaVuSans-6e" d="M 3513 2113 
L 3513 0 
L 2938 0 
L 2938 2094 
Q 2938 2591 2744 2837 
Q 2550 3084 2163 3084 
Q 1697 3084 1428 2787 
Q 1159 2491 1159 1978 
L 1159 0 
L 581 0 
L 581 3500 
L 1159 3500 
L 1159 2956 
Q 1366 3272 1645 3428 
Q 1925 3584 2291 3584 
Q 2894 3584 3203 3211 
Q 3513 2838 3513 2113 
z
" transform="scale(0.015625)"/>
      <path id="DejaVuSans-75" d="M 544 1381 
L 544 3500 
L 1119 3500 
L 1119 1403 
Q 1119 906 1312 657 
Q 1506 409 1894 409 
Q 2359 409 2629 706 
Q 2900 1003 2900 1516 
L 2900 3500 
L 3475 3500 
L 3475 0 
L 2900 0 
L 2900 538 
Q 2691 219 2414 64 
Q 2138 -91 1772 -91 
Q 1169 -91 856 284 
Q 544 659 544 1381 
z
M 1991 3584 
L 1991 3584 
z
" transform="scale(0.015625)"/>
      <path id="DejaVuSans-73" d="M 2834 3397 
L 2834 2853 
Q 2591 2978 2328 3040 
Q 2066 3103 1784 3103 
Q 1356 3103 1142 2972 
Q 928 2841 928 2578 
Q 928 2378 1081 2264 
Q 1234 2150 1697 2047 
L 1894 2003 
Q 2506 1872 2764 1633 
Q 3022 1394 3022 966 
Q 3022 478 2636 193 
Q 2250 -91 1575 -91 
Q 1294 -91 989 -36 
Q 684 19 347 128 
L 347 722 
Q 666 556 975 473 
Q 1284 391 1588 391 
Q 1994 391 2212 530 
Q 2431 669 2431 922 
Q 2431 1156 2273 1281 
Q 2116 1406 1581 1522 
L 1381 1569 
Q 847 1681 609 1914 
Q 372 2147 372 2553 
Q 372 3047 722 3315 
Q 1072 3584 1716 3584 
Q 2034 3584 2315 3537 
Q 2597 3491 2834 3397 
z
" transform="scale(0.015625)"/>
      <path id="DejaVuSans-5f" d="M 3263 -1063 
L 3263 -1509 
L -63 -1509 
L -63 -1063 
L 3263 -1063 
z
" transform="scale(0.015625)"/>
      <path id="DejaVuSans-53" d="M 3425 4513 
L 3425 3897 
Q 3066 4069 2747 4153 
Q 2428 4238 2131 4238 
Q 1616 4238 1336 4038 
Q 1056 3838 1056 3469 
Q 1056 3159 1242 3001 
Q 1428 2844 1947 2747 
L 2328 2669 
Q 3034 2534 3370 2195 
Q 3706 1856 3706 1288 
Q 3706 609 3251 259 
Q 2797 -91 1919 -91 
Q 1588 -91 1214 -16 
Q 841 59 441 206 
L 441 856 
Q 825 641 1194 531 
Q 1563 422 1919 422 
Q 2459 422 2753 634 
Q 3047 847 3047 1241 
Q 3047 1584 2836 1778 
Q 2625 1972 2144 2069 
L 1759 2144 
Q 1053 2284 737 2584 
Q 422 2884 422 3419 
Q 422 4038 858 4394 
Q 1294 4750 2059 4750 
Q 2388 4750 2728 4690 
Q 3069 4631 3425 4513 
z
" transform="scale(0.015625)"/>
      <path id="DejaVuSans-63" d="M 3122 3366 
L 3122 2828 
Q 2878 2963 2633 3030 
Q 2388 3097 2138 3097 
Q 1578 3097 1268 2742 
Q 959 2388 959 1747 
Q 959 1106 1268 751 
Q 1578 397 2138 397 
Q 2388 397 2633 464 
Q 2878 531 3122 666 
L 3122 134 
Q 2881 22 2623 -34 
Q 2366 -91 2075 -91 
Q 1284 -91 818 406 
Q 353 903 353 1747 
Q 353 2603 823 3093 
Q 1294 3584 2113 3584 
Q 2378 3584 2631 3529 
Q 2884 3475 3122 3366 
z
" transform="scale(0.015625)"/>
      <path id="DejaVuSans-72" d="M 2631 2963 
Q 2534 3019 2420 3045 
Q 2306 3072 2169 3072 
Q 1681 3072 1420 2755 
Q 1159 2438 1159 1844 
L 1159 0 
L 581 0 
L 581 3500 
L 1159 3500 
L 1159 2956 
Q 1341 3275 1631 3429 
Q 1922 3584 2338 3584 
Q 2397 3584 2469 3576 
Q 2541 3569 2628 3553 
L 2631 2963 
z
" transform="scale(0.015625)"/>
      <path id="DejaVuSans-74" d="M 1172 4494 
L 1172 3500 
L 2356 3500 
L 2356 3053 
L 1172 3053 
L 1172 1153 
Q 1172 725 1289 603 
Q 1406 481 1766 481 
L 2356 481 
L 2356 0 
L 1766 0 
Q 1100 0 847 248 
Q 594 497 594 1153 
L 594 3053 
L 172 3053 
L 172 3500 
L 594 3500 
L 594 4494 
L 1172 4494 
z
" transform="scale(0.015625)"/>
      <path id="DejaVuSans-64" d="M 2906 2969 
L 2906 4863 
L 3481 4863 
L 3481 0 
L 2906 0 
L 2906 525 
Q 2725 213 2448 61 
Q 2172 -91 1784 -91 
Q 1150 -91 751 415 
Q 353 922 353 1747 
Q 353 2572 751 3078 
Q 1150 3584 1784 3584 
Q 2172 3584 2448 3432 
Q 2725 3281 2906 2969 
z
M 947 1747 
Q 947 1113 1208 752 
Q 1469 391 1925 391 
Q 2381 391 2643 752 
Q 2906 1113 2906 1747 
Q 2906 2381 2643 2742 
Q 2381 3103 1925 3103 
Q 1469 3103 1208 2742 
Q 947 2381 947 1747 
z
" transform="scale(0.015625)"/>
      <path id="DejaVuSans-54" d="M -19 4666 
L 3928 4666 
L 3928 4134 
L 2272 4134 
L 2272 0 
L 1638 0 
L 1638 4134 
L -19 4134 
L -19 4666 
z
" transform="scale(0.015625)"/>
      <path id="DejaVuSans-61" d="M 2194 1759 
Q 1497 1759 1228 1600 
Q 959 1441 959 1056 
Q 959 750 1161 570 
Q 1363 391 1709 391 
Q 2188 391 2477 730 
Q 2766 1069 2766 1631 
L 2766 1759 
L 2194 1759 
z
M 3341 1997 
L 3341 0 
L 2766 0 
L 2766 531 
Q 2569 213 2275 61 
Q 1981 -91 1556 -91 
Q 1019 -91 701 211 
Q 384 513 384 1019 
Q 384 1609 779 1909 
Q 1175 2209 1959 2209 
L 2766 2209 
L 2766 2266 
Q 2766 2663 2505 2880 
Q 2244 3097 1772 3097 
Q 1472 3097 1187 3025 
Q 903 2953 641 2809 
L 641 3341 
Q 956 3463 1253 3523 
Q 1550 3584 1831 3584 
Q 2591 3584 2966 3190 
Q 3341 2797 3341 1997 
z
" transform="scale(0.015625)"/>
      <path id="DejaVuSans-78" d="M 3513 3500 
L 2247 1797 
L 3578 0 
L 2900 0 
L 1881 1375 
L 863 0 
L 184 0 
L 1544 1831 
L 300 3500 
L 978 3500 
L 1906 2253 
L 2834 3500 
L 3513 3500 
z
" transform="scale(0.015625)"/>
      <path id="DejaVuSans-20" transform="scale(0.015625)"/>
      <path id="DejaVuSans-44" d="M 1259 4147 
L 1259 519 
L 2022 519 
Q 2988 519 3436 956 
Q 3884 1394 3884 2338 
Q 3884 3275 3436 3711 
Q 2988 4147 2022 4147 
L 1259 4147 
z
M 628 4666 
L 1925 4666 
Q 3281 4666 3915 4102 
Q 4550 3538 4550 2338 
Q 4550 1131 3912 565 
Q 3275 0 1925 0 
L 628 0 
L 628 4666 
z
" transform="scale(0.015625)"/>
      <path id="DejaVuSans-69" d="M 603 3500 
L 1178 3500 
L 1178 0 
L 603 0 
L 603 3500 
z
M 603 4863 
L 1178 4863 
L 1178 4134 
L 603 4134 
L 603 4863 
z
" transform="scale(0.015625)"/>
      <path id="DejaVuSans-62" d="M 3116 1747 
Q 3116 2381 2855 2742 
Q 2594 3103 2138 3103 
Q 1681 3103 1420 2742 
Q 1159 2381 1159 1747 
Q 1159 1113 1420 752 
Q 1681 391 2138 391 
Q 2594 391 2855 752 
Q 3116 1113 3116 1747 
z
M 1159 2969 
Q 1341 3281 1617 3432 
Q 1894 3584 2278 3584 
Q 2916 3584 3314 3078 
Q 3713 2572 3713 1747 
Q 3713 922 3314 415 
Q 2916 -91 2278 -91 
Q 1894 -91 1617 61 
Q 1341 213 1159 525 
L 1159 0 
L 581 0 
L 581 4863 
L 1159 4863 
L 1159 2969 
z
" transform="scale(0.015625)"/>
      <path id="DejaVuSans-6f" d="M 1959 3097 
Q 1497 3097 1228 2736 
Q 959 2375 959 1747 
Q 959 1119 1226 758 
Q 1494 397 1959 397 
Q 2419 397 2687 759 
Q 2956 1122 2956 1747 
Q 2956 2369 2687 2733 
Q 2419 3097 1959 3097 
z
M 1959 3584 
Q 2709 3584 3137 3096 
Q 3566 2609 3566 1747 
Q 3566 888 3137 398 
Q 2709 -91 1959 -91 
Q 1206 -91 779 398 
Q 353 888 353 1747 
Q 353 2609 779 3096 
Q 1206 3584 1959 3584 
z
" transform="scale(0.015625)"/>
      <path id="DejaVuSans-28" d="M 1984 4856 
Q 1566 4138 1362 3434 
Q 1159 2731 1159 2009 
Q 1159 1288 1364 580 
Q 1569 -128 1984 -844 
L 1484 -844 
Q 1016 -109 783 600 
Q 550 1309 550 2009 
Q 550 2706 781 3412 
Q 1013 4119 1484 4856 
L 1984 4856 
z
" transform="scale(0.015625)"/>
      <path id="DejaVuSans-50" d="M 1259 4147 
L 1259 2394 
L 2053 2394 
Q 2494 2394 2734 2622 
Q 2975 2850 2975 3272 
Q 2975 3691 2734 3919 
Q 2494 4147 2053 4147 
L 1259 4147 
z
M 628 4666 
L 2053 4666 
Q 2838 4666 3239 4311 
Q 3641 3956 3641 3272 
Q 3641 2581 3239 2228 
Q 2838 1875 2053 1875 
L 1259 1875 
L 1259 0 
L 628 0 
L 628 4666 
z
" transform="scale(0.015625)"/>
      <path id="DejaVuSans-43" d="M 4122 4306 
L 4122 3641 
Q 3803 3938 3442 4084 
Q 3081 4231 2675 4231 
Q 1875 4231 1450 3742 
Q 1025 3253 1025 2328 
Q 1025 1406 1450 917 
Q 1875 428 2675 428 
Q 3081 428 3442 575 
Q 3803 722 4122 1019 
L 4122 359 
Q 3791 134 3420 21 
Q 3050 -91 2638 -91 
Q 1578 -91 968 557 
Q 359 1206 359 2328 
Q 359 3453 968 4101 
Q 1578 4750 2638 4750 
Q 3056 4750 3426 4639 
Q 3797 4528 4122 4306 
z
" transform="scale(0.015625)"/>
      <path id="DejaVuSans-68" d="M 3513 2113 
L 3513 0 
L 2938 0 
L 2938 2094 
Q 2938 2591 2744 2837 
Q 2550 3084 2163 3084 
Q 1697 3084 1428 2787 
Q 1159 2491 1159 1978 
L 1159 0 
L 581 0 
L 581 4863 
L 1159 4863 
L 1159 2956 
Q 1366 3272 1645 3428 
Q 1925 3584 2291 3584 
Q 2894 3584 3203 3211 
Q 3513 2838 3513 2113 
z
" transform="scale(0.015625)"/>
      <path id="DejaVuSans-29" d="M 513 4856 
L 1013 4856 
Q 1481 4119 1714 3412 
Q 1947 2706 1947 2009 
Q 1947 1309 1714 600 
Q 1481 -109 1013 -844 
L 513 -844 
Q 928 -128 1133 580 
Q 1338 1288 1338 2009 
Q 1338 2731 1133 3434 
Q 928 4138 513 4856 
z
" transform="scale(0.015625)"/>
     </defs>
     <use xlink:href="#DejaVuSans-47"/>
     <use xlink:href="#DejaVuSans-65" x="77.490234"/>
     <use xlink:href="#DejaVuSans-6e" x="139.013672"/>
     <use xlink:href="#DejaVuSans-75" x="202.392578"/>
     <use xlink:href="#DejaVuSans-73" x="265.771484"/>
     <use xlink:href="#DejaVuSans-5f" x="317.871094"/>
     <use xlink:href="#DejaVuSans-53" x="367.871094"/>
     <use xlink:href="#DejaVuSans-65" x="431.347656"/>
     <use xlink:href="#DejaVuSans-63" x="492.871094"/>
     <use xlink:href="#DejaVuSans-72" x="547.851562"/>
     <use xlink:href="#DejaVuSans-65" x="586.714844"/>
     <use xlink:href="#DejaVuSans-74" x="648.238281"/>
     <use xlink:href="#DejaVuSans-65" x="687.447266"/>
     <use xlink:href="#DejaVuSans-64" x="748.970703"/>
     <use xlink:href="#DejaVuSans-54" x="812.447266"/>
     <use xlink:href="#DejaVuSans-61" x="857.03125"/>
     <use xlink:href="#DejaVuSans-78" x="918.310547"/>
     <use xlink:href="#DejaVuSans-61" x="977.490234"/>
     <use xlink:href="#DejaVuSans-20" x="1038.769531"/>
     <use xlink:href="#DejaVuSans-44" x="1070.556641"/>
     <use xlink:href="#DejaVuSans-69" x="1147.558594"/>
     <use xlink:href="#DejaVuSans-73" x="1175.341797"/>
     <use xlink:href="#DejaVuSans-74" x="1227.441406"/>
     <use xlink:href="#DejaVuSans-72" x="1266.650391"/>
     <use xlink:href="#DejaVuSans-69" x="1307.763672"/>
     <use xlink:href="#DejaVuSans-62" x="1335.546875"/>
     <use xlink:href="#DejaVuSans-75" x="1399.023438"/>
     <use xlink:href="#DejaVuSans-74" x="1462.402344"/>
     <use xlink:href="#DejaVuSans-69" x="1501.611328"/>
     <use xlink:href="#DejaVuSans-6f" x="1529.394531"/>
     <use xlink:href="#DejaVuSans-6e" x="1590.576172"/>
     <use xlink:href="#DejaVuSans-20" x="1653.955078"/>
     <use xlink:href="#DejaVuSans-28" x="1685.742188"/>
     <use xlink:href="#DejaVuSans-50" x="1724.755859"/>
     <use xlink:href="#DejaVuSans-69" x="1782.808594"/>
     <use xlink:href="#DejaVuSans-65" x="1810.591797"/>
     <use xlink:href="#DejaVuSans-20" x="1872.115234"/>
     <use xlink:href="#DejaVuSans-43" x="1903.902344"/>
     <use xlink:href="#DejaVuSans-68" x="1973.726562"/>
     <use xlink:href="#DejaVuSans-61" x="2037.105469"/>
     <use xlink:href="#DejaVuSans-72" x="2098.384766"/>
     <use xlink:href="#DejaVuSans-74" x="2139.498047"/>
     <use xlink:href="#DejaVuSans-29" x="2178.707031"/>
    </g>
   </g>
   <g id="legend_1">
    <g id="patch_10">
     <path d="M 402.8718 308.253562 
L 619.935863 308.253562 
Q 622.935863 308.253562 622.935863 305.253562 
L 622.935863 174.650438 
Q 622.935863 171.650438 619.935863 171.650438 
L 402.8718 171.650438 
Q 399.8718 171.650438 399.8718 174.650438 
L 399.8718 305.253562 
Q 399.8718 308.253562 402.8718 308.253562 
z
" style="fill: #ffffff; opacity: 0.8; stroke: #cccccc; stroke-linejoin: miter"/>
    </g>
    <g id="patch_11">
     <path d="M 405.8718 189.048094 
L 435.8718 189.048094 
L 435.8718 178.548094 
L 405.8718 178.548094 
z
" style="fill: #a1c9f4; stroke: #ffffff; stroke-linejoin: miter"/>
    </g>
    <g id="text_2">
     <!-- Bifidobacterium: 6.1% -->
     <g transform="translate(447.8718 189.048094) scale(0.15 -0.15)">
      <defs>
       <path id="DejaVuSans-42" d="M 1259 2228 
L 1259 519 
L 2272 519 
Q 2781 519 3026 730 
Q 3272 941 3272 1375 
Q 3272 1813 3026 2020 
Q 2781 2228 2272 2228 
L 1259 2228 
z
M 1259 4147 
L 1259 2741 
L 2194 2741 
Q 2656 2741 2882 2914 
Q 3109 3088 3109 3444 
Q 3109 3797 2882 3972 
Q 2656 4147 2194 4147 
L 1259 4147 
z
M 628 4666 
L 2241 4666 
Q 2963 4666 3353 4366 
Q 3744 4066 3744 3513 
Q 3744 3084 3544 2831 
Q 3344 2578 2956 2516 
Q 3422 2416 3680 2098 
Q 3938 1781 3938 1306 
Q 3938 681 3513 340 
Q 3088 0 2303 0 
L 628 0 
L 628 4666 
z
" transform="scale(0.015625)"/>
       <path id="DejaVuSans-66" d="M 2375 4863 
L 2375 4384 
L 1825 4384 
Q 1516 4384 1395 4259 
Q 1275 4134 1275 3809 
L 1275 3500 
L 2222 3500 
L 2222 3053 
L 1275 3053 
L 1275 0 
L 697 0 
L 697 3053 
L 147 3053 
L 147 3500 
L 697 3500 
L 697 3744 
Q 697 4328 969 4595 
Q 1241 4863 1831 4863 
L 2375 4863 
z
" transform="scale(0.015625)"/>
       <path id="DejaVuSans-6d" d="M 3328 2828 
Q 3544 3216 3844 3400 
Q 4144 3584 4550 3584 
Q 5097 3584 5394 3201 
Q 5691 2819 5691 2113 
L 5691 0 
L 5113 0 
L 5113 2094 
Q 5113 2597 4934 2840 
Q 4756 3084 4391 3084 
Q 3944 3084 3684 2787 
Q 3425 2491 3425 1978 
L 3425 0 
L 2847 0 
L 2847 2094 
Q 2847 2600 2669 2842 
Q 2491 3084 2119 3084 
Q 1678 3084 1418 2786 
Q 1159 2488 1159 1978 
L 1159 0 
L 581 0 
L 581 3500 
L 1159 3500 
L 1159 2956 
Q 1356 3278 1631 3431 
Q 1906 3584 2284 3584 
Q 2666 3584 2933 3390 
Q 3200 3197 3328 2828 
z
" transform="scale(0.015625)"/>
       <path id="DejaVuSans-3a" d="M 750 794 
L 1409 794 
L 1409 0 
L 750 0 
L 750 794 
z
M 750 3309 
L 1409 3309 
L 1409 2516 
L 750 2516 
L 750 3309 
z
" transform="scale(0.015625)"/>
       <path id="DejaVuSans-36" d="M 2113 2584 
Q 1688 2584 1439 2293 
Q 1191 2003 1191 1497 
Q 1191 994 1439 701 
Q 1688 409 2113 409 
Q 2538 409 2786 701 
Q 3034 994 3034 1497 
Q 3034 2003 2786 2293 
Q 2538 2584 2113 2584 
z
M 3366 4563 
L 3366 3988 
Q 3128 4100 2886 4159 
Q 2644 4219 2406 4219 
Q 1781 4219 1451 3797 
Q 1122 3375 1075 2522 
Q 1259 2794 1537 2939 
Q 1816 3084 2150 3084 
Q 2853 3084 3261 2657 
Q 3669 2231 3669 1497 
Q 3669 778 3244 343 
Q 2819 -91 2113 -91 
Q 1303 -91 875 529 
Q 447 1150 447 2328 
Q 447 3434 972 4092 
Q 1497 4750 2381 4750 
Q 2619 4750 2861 4703 
Q 3103 4656 3366 4563 
z
" transform="scale(0.015625)"/>
       <path id="DejaVuSans-2e" d="M 684 794 
L 1344 794 
L 1344 0 
L 684 0 
L 684 794 
z
" transform="scale(0.015625)"/>
       <path id="DejaVuSans-31" d="M 794 531 
L 1825 531 
L 1825 4091 
L 703 3866 
L 703 4441 
L 1819 4666 
L 2450 4666 
L 2450 531 
L 3481 531 
L 3481 0 
L 794 0 
L 794 531 
z
" transform="scale(0.015625)"/>
       <path id="DejaVuSans-25" d="M 4653 2053 
Q 4381 2053 4226 1822 
Q 4072 1591 4072 1178 
Q 4072 772 4226 539 
Q 4381 306 4653 306 
Q 4919 306 5073 539 
Q 5228 772 5228 1178 
Q 5228 1588 5073 1820 
Q 4919 2053 4653 2053 
z
M 4653 2450 
Q 5147 2450 5437 2106 
Q 5728 1763 5728 1178 
Q 5728 594 5436 251 
Q 5144 -91 4653 -91 
Q 4153 -91 3862 251 
Q 3572 594 3572 1178 
Q 3572 1766 3864 2108 
Q 4156 2450 4653 2450 
z
M 1428 4353 
Q 1159 4353 1004 4120 
Q 850 3888 850 3481 
Q 850 3069 1003 2837 
Q 1156 2606 1428 2606 
Q 1700 2606 1854 2837 
Q 2009 3069 2009 3481 
Q 2009 3884 1853 4118 
Q 1697 4353 1428 4353 
z
M 4250 4750 
L 4750 4750 
L 1831 -91 
L 1331 -91 
L 4250 4750 
z
M 1428 4750 
Q 1922 4750 2215 4408 
Q 2509 4066 2509 3481 
Q 2509 2891 2217 2550 
Q 1925 2209 1428 2209 
Q 931 2209 642 2551 
Q 353 2894 353 3481 
Q 353 4063 643 4406 
Q 934 4750 1428 4750 
z
" transform="scale(0.015625)"/>
      </defs>
      <use xlink:href="#DejaVuSans-42"/>
      <use xlink:href="#DejaVuSans-69" x="68.603516"/>
      <use xlink:href="#DejaVuSans-66" x="96.386719"/>
      <use xlink:href="#DejaVuSans-69" x="131.591797"/>
      <use xlink:href="#DejaVuSans-64" x="159.375"/>
      <use xlink:href="#DejaVuSans-6f" x="222.851562"/>
      <use xlink:href="#DejaVuSans-62" x="284.033203"/>
      <use xlink:href="#DejaVuSans-61" x="347.509766"/>
      <use xlink:href="#DejaVuSans-63" x="408.789062"/>
      <use xlink:href="#DejaVuSans-74" x="463.769531"/>
      <use xlink:href="#DejaVuSans-65" x="502.978516"/>
      <use xlink:href="#DejaVuSans-72" x="564.501953"/>
      <use xlink:href="#DejaVuSans-69" x="605.615234"/>
      <use xlink:href="#DejaVuSans-75" x="633.398438"/>
      <use xlink:href="#DejaVuSans-6d" x="696.777344"/>
      <use xlink:href="#DejaVuSans-3a" x="794.189453"/>
      <use xlink:href="#DejaVuSans-20" x="827.880859"/>
      <use xlink:href="#DejaVuSans-36" x="859.667969"/>
      <use xlink:href="#DejaVuSans-2e" x="923.291016"/>
      <use xlink:href="#DejaVuSans-31" x="955.078125"/>
      <use xlink:href="#DejaVuSans-25" x="1018.701172"/>
     </g>
    </g>
    <g id="patch_12">
     <path d="M 405.8718 211.065281 
L 435.8718 211.065281 
L 435.8718 200.565281 
L 405.8718 200.565281 
z
" style="fill: #ffb482; stroke: #ffffff; stroke-linejoin: miter"/>
    </g>
    <g id="text_3">
     <!-- Clostridium: 4.0% -->
     <g transform="translate(447.8718 211.065281) scale(0.15 -0.15)">
      <defs>
       <path id="DejaVuSans-6c" d="M 603 4863 
L 1178 4863 
L 1178 0 
L 603 0 
L 603 4863 
z
" transform="scale(0.015625)"/>
       <path id="DejaVuSans-34" d="M 2419 4116 
L 825 1625 
L 2419 1625 
L 2419 4116 
z
M 2253 4666 
L 3047 4666 
L 3047 1625 
L 3713 1625 
L 3713 1100 
L 3047 1100 
L 3047 0 
L 2419 0 
L 2419 1100 
L 313 1100 
L 313 1709 
L 2253 4666 
z
" transform="scale(0.015625)"/>
       <path id="DejaVuSans-30" d="M 2034 4250 
Q 1547 4250 1301 3770 
Q 1056 3291 1056 2328 
Q 1056 1369 1301 889 
Q 1547 409 2034 409 
Q 2525 409 2770 889 
Q 3016 1369 3016 2328 
Q 3016 3291 2770 3770 
Q 2525 4250 2034 4250 
z
M 2034 4750 
Q 2819 4750 3233 4129 
Q 3647 3509 3647 2328 
Q 3647 1150 3233 529 
Q 2819 -91 2034 -91 
Q 1250 -91 836 529 
Q 422 1150 422 2328 
Q 422 3509 836 4129 
Q 1250 4750 2034 4750 
z
" transform="scale(0.015625)"/>
      </defs>
      <use xlink:href="#DejaVuSans-43"/>
      <use xlink:href="#DejaVuSans-6c" x="69.824219"/>
      <use xlink:href="#DejaVuSans-6f" x="97.607422"/>
      <use xlink:href="#DejaVuSans-73" x="158.789062"/>
      <use xlink:href="#DejaVuSans-74" x="210.888672"/>
      <use xlink:href="#DejaVuSans-72" x="250.097656"/>
      <use xlink:href="#DejaVuSans-69" x="291.210938"/>
      <use xlink:href="#DejaVuSans-64" x="318.994141"/>
      <use xlink:href="#DejaVuSans-69" x="382.470703"/>
      <use xlink:href="#DejaVuSans-75" x="410.253906"/>
      <use xlink:href="#DejaVuSans-6d" x="473.632812"/>
      <use xlink:href="#DejaVuSans-3a" x="571.044922"/>
      <use xlink:href="#DejaVuSans-20" x="604.736328"/>
      <use xlink:href="#DejaVuSans-34" x="636.523438"/>
      <use xlink:href="#DejaVuSans-2e" x="700.146484"/>
      <use xlink:href="#DejaVuSans-30" x="731.933594"/>
      <use xlink:href="#DejaVuSans-25" x="795.556641"/>
     </g>
    </g>
    <g id="patch_13">
     <path d="M 405.8718 233.082469 
L 435.8718 233.082469 
L 435.8718 222.582469 
L 405.8718 222.582469 
z
" style="fill: #8de5a1; stroke: #ffffff; stroke-linejoin: miter"/>
    </g>
    <g id="text_4">
     <!-- Microcystis: 3.6% -->
     <g transform="translate(447.8718 233.082469) scale(0.15 -0.15)">
      <defs>
       <path id="DejaVuSans-4d" d="M 628 4666 
L 1569 4666 
L 2759 1491 
L 3956 4666 
L 4897 4666 
L 4897 0 
L 4281 0 
L 4281 4097 
L 3078 897 
L 2444 897 
L 1241 4097 
L 1241 0 
L 628 0 
L 628 4666 
z
" transform="scale(0.015625)"/>
       <path id="DejaVuSans-79" d="M 2059 -325 
Q 1816 -950 1584 -1140 
Q 1353 -1331 966 -1331 
L 506 -1331 
L 506 -850 
L 844 -850 
Q 1081 -850 1212 -737 
Q 1344 -625 1503 -206 
L 1606 56 
L 191 3500 
L 800 3500 
L 1894 763 
L 2988 3500 
L 3597 3500 
L 2059 -325 
z
" transform="scale(0.015625)"/>
       <path id="DejaVuSans-33" d="M 2597 2516 
Q 3050 2419 3304 2112 
Q 3559 1806 3559 1356 
Q 3559 666 3084 287 
Q 2609 -91 1734 -91 
Q 1441 -91 1130 -33 
Q 819 25 488 141 
L 488 750 
Q 750 597 1062 519 
Q 1375 441 1716 441 
Q 2309 441 2620 675 
Q 2931 909 2931 1356 
Q 2931 1769 2642 2001 
Q 2353 2234 1838 2234 
L 1294 2234 
L 1294 2753 
L 1863 2753 
Q 2328 2753 2575 2939 
Q 2822 3125 2822 3475 
Q 2822 3834 2567 4026 
Q 2313 4219 1838 4219 
Q 1578 4219 1281 4162 
Q 984 4106 628 3988 
L 628 4550 
Q 988 4650 1302 4700 
Q 1616 4750 1894 4750 
Q 2613 4750 3031 4423 
Q 3450 4097 3450 3541 
Q 3450 3153 3228 2886 
Q 3006 2619 2597 2516 
z
" transform="scale(0.015625)"/>
      </defs>
      <use xlink:href="#DejaVuSans-4d"/>
      <use xlink:href="#DejaVuSans-69" x="86.279297"/>
      <use xlink:href="#DejaVuSans-63" x="114.0625"/>
      <use xlink:href="#DejaVuSans-72" x="169.042969"/>
      <use xlink:href="#DejaVuSans-6f" x="207.90625"/>
      <use xlink:href="#DejaVuSans-63" x="269.087891"/>
      <use xlink:href="#DejaVuSans-79" x="324.068359"/>
      <use xlink:href="#DejaVuSans-73" x="383.248047"/>
      <use xlink:href="#DejaVuSans-74" x="435.347656"/>
      <use xlink:href="#DejaVuSans-69" x="474.556641"/>
      <use xlink:href="#DejaVuSans-73" x="502.339844"/>
      <use xlink:href="#DejaVuSans-3a" x="554.439453"/>
      <use xlink:href="#DejaVuSans-20" x="588.130859"/>
      <use xlink:href="#DejaVuSans-33" x="619.917969"/>
      <use xlink:href="#DejaVuSans-2e" x="683.541016"/>
      <use xlink:href="#DejaVuSans-36" x="715.328125"/>
      <use xlink:href="#DejaVuSans-25" x="778.951172"/>
     </g>
    </g>
    <g id="patch_14">
     <path d="M 405.8718 255.099656 
L 435.8718 255.099656 
L 435.8718 244.599656 
L 405.8718 244.599656 
z
" style="fill: #ff9f9b; stroke: #ffffff; stroke-linejoin: miter"/>
    </g>
    <g id="text_5">
     <!-- Synechococcus: 3.1% -->
     <g transform="translate(447.8718 255.099656) scale(0.15 -0.15)">
      <use xlink:href="#DejaVuSans-53"/>
      <use xlink:href="#DejaVuSans-79" x="63.476562"/>
      <use xlink:href="#DejaVuSans-6e" x="122.65625"/>
      <use xlink:href="#DejaVuSans-65" x="186.035156"/>
      <use xlink:href="#DejaVuSans-63" x="247.558594"/>
      <use xlink:href="#DejaVuSans-68" x="302.539062"/>
      <use xlink:href="#DejaVuSans-6f" x="365.917969"/>
      <use xlink:href="#DejaVuSans-63" x="427.099609"/>
      <use xlink:href="#DejaVuSans-6f" x="482.080078"/>
      <use xlink:href="#DejaVuSans-63" x="543.261719"/>
      <use xlink:href="#DejaVuSans-63" x="598.242188"/>
      <use xlink:href="#DejaVuSans-75" x="653.222656"/>
      <use xlink:href="#DejaVuSans-73" x="716.601562"/>
      <use xlink:href="#DejaVuSans-3a" x="768.701172"/>
      <use xlink:href="#DejaVuSans-20" x="802.392578"/>
      <use xlink:href="#DejaVuSans-33" x="834.179688"/>
      <use xlink:href="#DejaVuSans-2e" x="897.802734"/>
      <use xlink:href="#DejaVuSans-31" x="929.589844"/>
      <use xlink:href="#DejaVuSans-25" x="993.212891"/>
     </g>
    </g>
    <g id="patch_15">
     <path d="M 405.8718 277.116844 
L 435.8718 277.116844 
L 435.8718 266.616844 
L 405.8718 266.616844 
z
" style="fill: #d0bbff; stroke: #ffffff; stroke-linejoin: miter"/>
    </g>
    <g id="text_6">
     <!-- Prochlorococcus: 2.3% -->
     <g transform="translate(447.8718 277.116844) scale(0.15 -0.15)">
      <defs>
       <path id="DejaVuSans-32" d="M 1228 531 
L 3431 531 
L 3431 0 
L 469 0 
L 469 531 
Q 828 903 1448 1529 
Q 2069 2156 2228 2338 
Q 2531 2678 2651 2914 
Q 2772 3150 2772 3378 
Q 2772 3750 2511 3984 
Q 2250 4219 1831 4219 
Q 1534 4219 1204 4116 
Q 875 4013 500 3803 
L 500 4441 
Q 881 4594 1212 4672 
Q 1544 4750 1819 4750 
Q 2544 4750 2975 4387 
Q 3406 4025 3406 3419 
Q 3406 3131 3298 2873 
Q 3191 2616 2906 2266 
Q 2828 2175 2409 1742 
Q 1991 1309 1228 531 
z
" transform="scale(0.015625)"/>
      </defs>
      <use xlink:href="#DejaVuSans-50"/>
      <use xlink:href="#DejaVuSans-72" x="58.552734"/>
      <use xlink:href="#DejaVuSans-6f" x="97.416016"/>
      <use xlink:href="#DejaVuSans-63" x="158.597656"/>
      <use xlink:href="#DejaVuSans-68" x="213.578125"/>
      <use xlink:href="#DejaVuSans-6c" x="276.957031"/>
      <use xlink:href="#DejaVuSans-6f" x="304.740234"/>
      <use xlink:href="#DejaVuSans-72" x="365.921875"/>
      <use xlink:href="#DejaVuSans-6f" x="404.785156"/>
      <use xlink:href="#DejaVuSans-63" x="465.966797"/>
      <use xlink:href="#DejaVuSans-6f" x="520.947266"/>
      <use xlink:href="#DejaVuSans-63" x="582.128906"/>
      <use xlink:href="#DejaVuSans-63" x="637.109375"/>
      <use xlink:href="#DejaVuSans-75" x="692.089844"/>
      <use xlink:href="#DejaVuSans-73" x="755.46875"/>
      <use xlink:href="#DejaVuSans-3a" x="807.568359"/>
      <use xlink:href="#DejaVuSans-20" x="841.259766"/>
      <use xlink:href="#DejaVuSans-32" x="873.046875"/>
      <use xlink:href="#DejaVuSans-2e" x="936.669922"/>
      <use xlink:href="#DejaVuSans-33" x="968.457031"/>
      <use xlink:href="#DejaVuSans-25" x="1032.080078"/>
     </g>
    </g>
    <g id="patch_16">
     <path d="M 405.8718 299.134031 
L 435.8718 299.134031 
L 435.8718 288.634031 
L 405.8718 288.634031 
z
" style="fill: #debb9b; stroke: #ffffff; stroke-linejoin: miter"/>
    </g>
    <g id="text_7">
     <!-- Other: 80.8% -->
     <g transform="translate(447.8718 299.134031) scale(0.15 -0.15)">
      <defs>
       <path id="DejaVuSans-4f" d="M 2522 4238 
Q 1834 4238 1429 3725 
Q 1025 3213 1025 2328 
Q 1025 1447 1429 934 
Q 1834 422 2522 422 
Q 3209 422 3611 934 
Q 4013 1447 4013 2328 
Q 4013 3213 3611 3725 
Q 3209 4238 2522 4238 
z
M 2522 4750 
Q 3503 4750 4090 4092 
Q 4678 3434 4678 2328 
Q 4678 1225 4090 567 
Q 3503 -91 2522 -91 
Q 1538 -91 948 565 
Q 359 1222 359 2328 
Q 359 3434 948 4092 
Q 1538 4750 2522 4750 
z
" transform="scale(0.015625)"/>
       <path id="DejaVuSans-38" d="M 2034 2216 
Q 1584 2216 1326 1975 
Q 1069 1734 1069 1313 
Q 1069 891 1326 650 
Q 1584 409 2034 409 
Q 2484 409 2743 651 
Q 3003 894 3003 1313 
Q 3003 1734 2745 1975 
Q 2488 2216 2034 2216 
z
M 1403 2484 
Q 997 2584 770 2862 
Q 544 3141 544 3541 
Q 544 4100 942 4425 
Q 1341 4750 2034 4750 
Q 2731 4750 3128 4425 
Q 3525 4100 3525 3541 
Q 3525 3141 3298 2862 
Q 3072 2584 2669 2484 
Q 3125 2378 3379 2068 
Q 3634 1759 3634 1313 
Q 3634 634 3220 271 
Q 2806 -91 2034 -91 
Q 1263 -91 848 271 
Q 434 634 434 1313 
Q 434 1759 690 2068 
Q 947 2378 1403 2484 
z
M 1172 3481 
Q 1172 3119 1398 2916 
Q 1625 2713 2034 2713 
Q 2441 2713 2670 2916 
Q 2900 3119 2900 3481 
Q 2900 3844 2670 4047 
Q 2441 4250 2034 4250 
Q 1625 4250 1398 4047 
Q 1172 3844 1172 3481 
z
" transform="scale(0.015625)"/>
      </defs>
      <use xlink:href="#DejaVuSans-4f"/>
      <use xlink:href="#DejaVuSans-74" x="78.710938"/>
      <use xlink:href="#DejaVuSans-68" x="117.919922"/>
      <use xlink:href="#DejaVuSans-65" x="181.298828"/>
      <use xlink:href="#DejaVuSans-72" x="242.822266"/>
      <use xlink:href="#DejaVuSans-3a" x="282.185547"/>
      <use xlink:href="#DejaVuSans-20" x="315.876953"/>
      <use xlink:href="#DejaVuSans-38" x="347.664062"/>
      <use xlink:href="#DejaVuSans-30" x="411.287109"/>
      <use xlink:href="#DejaVuSans-2e" x="474.910156"/>
      <use xlink:href="#DejaVuSans-38" x="506.697266"/>
      <use xlink:href="#DejaVuSans-25" x="570.320312"/>
     </g>
    </g>
   </g>
  </g>
 </g>
 <defs>
  <clipPath id="p861045765f">
   <path d="M 374.247 239.952 
C 374.247 216.150731 369.558669 192.580899 360.450318 170.591393 
C 351.341966 148.601888 337.990729 128.620349 321.16069 111.79031 
C 304.330651 94.960271 284.349112 81.609034 262.359607 72.500682 
C 240.370101 63.392331 216.800269 58.704 192.999 58.704 
C 169.197731 58.704 145.627899 63.392331 123.638393 72.500682 
C 101.648888 81.609034 81.667349 94.960271 64.83731 111.79031 
C 48.007271 128.620349 34.656034 148.601888 25.547682 170.591393 
C 16.439331 192.580899 11.751 216.150731 11.751 239.952 
C 11.751 263.753269 16.439331 287.323101 25.547682 309.312607 
C 34.656034 331.302112 48.007271 351.283651 64.83731 368.11369 
C 81.667349 384.943729 101.648888 398.294966 123.638393 407.403318 
C 145.627899 416.511669 169.197731 421.2 192.999 421.2 
C 216.800269 421.2 240.370101 416.511669 262.359607 407.403318 
C 284.349112 398.294966 304.330651 384.943729 321.16069 368.11369 
C 337.990729 351.283651 351.341966 331.302112 360.450318 309.312607 
C 369.558669 287.323101 374.247 263.753269 374.247 239.952 
M 192.999 239.952 
C 192.999 239.952 192.999 239.952 192.999 239.952 
C 192.999 239.952 192.999 239.952 192.999 239.952 
C 192.999 239.952 192.999 239.952 192.999 239.952 
C 192.999 239.952 192.999 239.952 192.999 239.952 
C 192.999 239.952 192.999 239.952 192.999 239.952 
C 192.999 239.952 192.999 239.952 192.999 239.952 
C 192.999 239.952 192.999 239.952 192.999 239.952 
C 192.999 239.952 192.999 239.952 192.999 239.952 
C 192.999 239.952 192.999 239.952 192.999 239.952 
C 192.999 239.952 192.999 239.952 192.999 239.952 
C 192.999 239.952 192.999 239.952 192.999 239.952 
C 192.999 239.952 192.999 239.952 192.999 239.952 
C 192.999 239.952 192.999 239.952 192.999 239.952 
C 192.999 239.952 192.999 239.952 192.999 239.952 
C 192.999 239.952 192.999 239.952 192.999 239.952 
C 192.999 239.952 192.999 239.952 192.999 239.952 
z
"/>
  </clipPath>
 </defs>
</svg>
