<?xml version="1.0" encoding="utf-8" standalone="no"?>
<!DOCTYPE svg PUBLIC "-//W3C//DTD SVG 1.1//EN"
  "http://www.w3.org/Graphics/SVG/1.1/DTD/svg11.dtd">
<svg xmlns:xlink="http://www.w3.org/1999/xlink" width="576pt" height="432pt" viewBox="0 0 576 432" xmlns="http://www.w3.org/2000/svg" version="1.1">
 <metadata>
  <rdf:RDF xmlns:dc="http://purl.org/dc/elements/1.1/" xmlns:cc="http://creativecommons.org/ns#" xmlns:rdf="http://www.w3.org/1999/02/22-rdf-syntax-ns#">
   <cc:Work>
    <dc:type rdf:resource="http://purl.org/dc/dcmitype/StillImage"/>
    <dc:date>2025-07-29T12:56:36.863460</dc:date>
    <dc:format>image/svg+xml</dc:format>
    <dc:creator>
     <cc:Agent>
      <dc:title>Matplotlib v3.7.0, https://matplotlib.org/</dc:title>
     </cc:Agent>
    </dc:creator>
   </cc:Work>
  </rdf:RDF>
 </metadata>
 <defs>
  <style type="text/css">*{stroke-linejoin: round; stroke-linecap: butt}</style>
 </defs>
 <g id="figure_1">
  <g id="patch_1">
   <path d="M 0 432 
L 576 432 
L 576 0 
L 0 0 
z
" style="fill: #ffffff"/>
  </g>
  <g id="axes_1">
   <g id="patch_2">
    <path d="M 356.658 239.952 
C 356.658 217.243172 352.184856 194.755158 343.494564 173.774937 
C 334.804271 152.794715 322.065835 133.730298 306.008269 117.672731 
C 289.950702 101.615165 270.886285 88.876729 249.906063 80.186436 
C 228.925842 71.496144 206.437828 67.023 183.729 67.023 
C 161.020172 67.023 138.532158 71.496144 117.551937 80.186436 
C 96.571715 88.876729 77.507298 101.615165 61.449731 117.672731 
C 45.392165 133.730298 32.653729 152.794715 23.963436 173.774937 
C 15.273144 194.755158 10.8 217.243172 10.8 239.952 
C 10.8 262.660828 15.273144 285.148842 23.963436 306.129063 
C 32.653729 327.109285 45.392165 346.173702 61.449731 362.231269 
C 77.507298 378.288835 96.571715 391.027271 117.551937 399.717564 
C 138.532158 408.407856 161.020172 412.881 183.729 412.881 
C 206.437828 412.881 228.925842 408.407856 249.906063 399.717564 
C 270.886285 391.027271 289.950702 378.288835 306.008269 362.231269 
C 322.065835 346.173702 334.804271 327.109285 343.494564 306.129063 
C 352.184856 285.148842 356.658 262.660828 356.658 239.952 
M 183.729 239.952 
C 183.729 239.952 183.729 239.952 183.729 239.952 
C 183.729 239.952 183.729 239.952 183.729 239.952 
C 183.729 239.952 183.729 239.952 183.729 239.952 
C 183.729 239.952 183.729 239.952 183.729 239.952 
C 183.729 239.952 183.729 239.952 183.729 239.952 
C 183.729 239.952 183.729 239.952 183.729 239.952 
C 183.729 239.952 183.729 239.952 183.729 239.952 
C 183.729 239.952 183.729 239.952 183.729 239.952 
C 183.729 239.952 183.729 239.952 183.729 239.952 
C 183.729 239.952 183.729 239.952 183.729 239.952 
C 183.729 239.952 183.729 239.952 183.729 239.952 
C 183.729 239.952 183.729 239.952 183.729 239.952 
C 183.729 239.952 183.729 239.952 183.729 239.952 
C 183.729 239.952 183.729 239.952 183.729 239.952 
C 183.729 239.952 183.729 239.952 183.729 239.952 
C 183.729 239.952 183.729 239.952 183.729 239.952 
z
" style="fill: #ffffff"/>
   </g>
   <g id="patch_3">
    <path d="M 183.729 239.952 
C 183.729 239.952 183.729 239.952 183.729 239.952 
C 183.729 239.952 183.729 239.952 183.729 239.952 
C 183.729 239.952 183.729 239.952 183.729 239.952 
C 183.729 239.952 183.729 239.952 183.729 239.952 
C 183.729 239.952 183.729 239.952 183.729 239.952 
C 183.729 239.952 183.729 239.952 183.729 239.952 
C 183.729 239.952 183.729 239.952 183.729 239.952 
C 183.729 239.952 183.729 239.952 183.729 239.952 
L 63.156622 352.141614 
C 44.878756 332.498033 31.675291 308.682111 24.698916 282.773023 
C 17.72254 256.863935 17.182355 229.638251 23.12552 203.472826 
C 29.068686 177.307402 41.317068 152.986489 58.801359 132.633351 
C 76.28565 112.280214 98.481796 96.504892 123.45203 86.684604 
C 148.422265 76.864315 175.418157 73.293402 202.082915 76.283611 
C 228.747673 79.27382 254.282076 88.735527 276.456923 103.842705 
C 298.631769 118.949884 316.782414 139.249729 329.324272 162.970026 
C 341.866131 186.690322 348.423286 213.120104 348.423286 239.952 
z
" clip-path="url(#p0daf09a319)" style="fill: #a1c9f4; stroke: #ffffff; stroke-linejoin: miter"/>
   </g>
   <g id="patch_4">
    <path d="M 183.729 239.952 
C 183.729 239.952 183.729 239.952 183.729 239.952 
C 183.729 239.952 183.729 239.952 183.729 239.952 
L 222.714111 399.965652 
C 194.270419 406.895564 164.486776 406.117616 136.443641 397.712269 
C 108.400506 389.306923 83.099213 373.574308 63.156622 352.141614 
z
" clip-path="url(#p0daf09a319)" style="fill: #ffb482; stroke: #ffffff; stroke-linejoin: miter"/>
   </g>
   <g id="patch_5">
    <path d="M 183.729 239.952 
C 183.729 239.952 183.729 239.952 183.729 239.952 
C 183.729 239.952 183.729 239.952 183.729 239.952 
L 312.087877 343.142146 
C 300.803208 357.179218 287.29198 369.270599 272.093191 378.933932 
C 256.894403 388.597264 240.212886 395.702318 222.714111 399.965652 
z
" clip-path="url(#p0daf09a319)" style="fill: #8de5a1; stroke: #ffffff; stroke-linejoin: miter"/>
   </g>
   <g id="patch_6">
    <path d="M 183.729 239.952 
C 183.729 239.952 183.729 239.952 183.729 239.952 
C 183.729 239.952 183.729 239.952 183.729 239.952 
L 327.718933 319.896399 
C 325.449596 323.983761 323.007248 327.972644 320.398528 331.852206 
C 317.789808 335.731769 315.017079 339.498494 312.087877 343.142146 
z
" clip-path="url(#p0daf09a319)" style="fill: #ff9f9b; stroke: #ffffff; stroke-linejoin: miter"/>
   </g>
   <g id="patch_7">
    <path d="M 183.729 239.952 
C 183.729 239.952 183.729 239.952 183.729 239.952 
C 183.729 239.952 183.729 239.952 183.729 239.952 
L 338.595478 295.992894 
C 337.104343 300.113577 335.449338 304.173105 333.634414 308.161785 
C 331.819489 312.150464 329.846092 316.065118 327.718933 319.896399 
z
" clip-path="url(#p0daf09a319)" style="fill: #d0bbff; stroke: #ffffff; stroke-linejoin: miter"/>
   </g>
   <g id="patch_8">
    <path d="M 183.729 239.952 
C 183.729 239.952 183.729 239.952 183.729 239.952 
C 183.729 239.952 183.729 239.952 183.729 239.952 
L 348.423286 239.952 
C 348.423286 249.488465 347.594986 259.006936 345.947728 268.400056 
C 344.300471 277.793176 341.840472 287.025499 338.595478 295.992894 
z
" clip-path="url(#p0daf09a319)" style="fill: #debb9b; stroke: #ffffff; stroke-linejoin: miter"/>
   </g>
   <g id="matplotlib.axis_1"/>
   <g id="matplotlib.axis_2"/>
   <g id="patch_9">
    <path d="M 356.658 239.952 
C 356.658 217.243172 352.184856 194.755158 343.494564 173.774937 
C 334.804271 152.794715 322.065835 133.730298 306.008269 117.672731 
C 289.950702 101.615165 270.886285 88.876729 249.906063 80.186436 
C 228.925842 71.496144 206.437828 67.023 183.729 67.023 
C 161.020172 67.023 138.532158 71.496144 117.551937 80.186436 
C 96.571715 88.876729 77.507298 101.615165 61.449731 117.672731 
C 45.392165 133.730298 32.653729 152.794715 23.963436 173.774937 
C 15.273144 194.755158 10.8 217.243172 10.8 239.952 
C 10.8 262.660828 15.273144 285.148842 23.963436 306.129063 
C 32.653729 327.109285 45.392165 346.173702 61.449731 362.231269 
C 77.507298 378.288835 96.571715 391.027271 117.551937 399.717564 
C 138.532158 408.407856 161.020172 412.881 183.729 412.881 
C 206.437828 412.881 228.925842 408.407856 249.906063 399.717564 
C 270.886285 391.027271 289.950702 378.288835 306.008269 362.231269 
C 322.065835 346.173702 334.804271 327.109285 343.494564 306.129063 
C 352.184856 285.148842 356.658 262.660828 356.658 239.952 
" style="fill: none; stroke: #000000; stroke-width: 0.8; stroke-linejoin: miter; stroke-linecap: square"/>
   </g>
   <g id="text_1">
    <!-- PhylumTaxa Distribution (Pie Chart) -->
    <g transform="translate(77.129625 26.4372) scale(0.12 -0.12)">
     <defs>
      <path id="DejaVuSans-50" d="M 1259 4147 
L 1259 2394 
L 2053 2394 
Q 2494 2394 2734 2622 
Q 2975 2850 2975 3272 
Q 2975 3691 2734 3919 
Q 2494 4147 2053 4147 
L 1259 4147 
z
M 628 4666 
L 2053 4666 
Q 2838 4666 3239 4311 
Q 3641 3956 3641 3272 
Q 3641 2581 3239 2228 
Q 2838 1875 2053 1875 
L 1259 1875 
L 1259 0 
L 628 0 
L 628 4666 
z
" transform="scale(0.015625)"/>
      <path id="DejaVuSans-68" d="M 3513 2113 
L 3513 0 
L 2938 0 
L 2938 2094 
Q 2938 2591 2744 2837 
Q 2550 3084 2163 3084 
Q 1697 3084 1428 2787 
Q 1159 2491 1159 1978 
L 1159 0 
L 581 0 
L 581 4863 
L 1159 4863 
L 1159 2956 
Q 1366 3272 1645 3428 
Q 1925 3584 2291 3584 
Q 2894 3584 3203 3211 
Q 3513 2838 3513 2113 
z
" transform="scale(0.015625)"/>
      <path id="DejaVuSans-79" d="M 2059 -325 
Q 1816 -950 1584 -1140 
Q 1353 -1331 966 -1331 
L 506 -1331 
L 506 -850 
L 844 -850 
Q 1081 -850 1212 -737 
Q 1344 -625 1503 -206 
L 1606 56 
L 191 3500 
L 800 3500 
L 1894 763 
L 2988 3500 
L 3597 3500 
L 2059 -325 
z
" transform="scale(0.015625)"/>
      <path id="DejaVuSans-6c" d="M 603 4863 
L 1178 4863 
L 1178 0 
L 603 0 
L 603 4863 
z
" transform="scale(0.015625)"/>
      <path id="DejaVuSans-75" d="M 544 1381 
L 544 3500 
L 1119 3500 
L 1119 1403 
Q 1119 906 1312 657 
Q 1506 409 1894 409 
Q 2359 409 2629 706 
Q 2900 1003 2900 1516 
L 2900 3500 
L 3475 3500 
L 3475 0 
L 2900 0 
L 2900 538 
Q 2691 219 2414 64 
Q 2138 -91 1772 -91 
Q 1169 -91 856 284 
Q 544 659 544 1381 
z
M 1991 3584 
L 1991 3584 
z
" transform="scale(0.015625)"/>
      <path id="DejaVuSans-6d" d="M 3328 2828 
Q 3544 3216 3844 3400 
Q 4144 3584 4550 3584 
Q 5097 3584 5394 3201 
Q 5691 2819 5691 2113 
L 5691 0 
L 5113 0 
L 5113 2094 
Q 5113 2597 4934 2840 
Q 4756 3084 4391 3084 
Q 3944 3084 3684 2787 
Q 3425 2491 3425 1978 
L 3425 0 
L 2847 0 
L 2847 2094 
Q 2847 2600 2669 2842 
Q 2491 3084 2119 3084 
Q 1678 3084 1418 2786 
Q 1159 2488 1159 1978 
L 1159 0 
L 581 0 
L 581 3500 
L 1159 3500 
L 1159 2956 
Q 1356 3278 1631 3431 
Q 1906 3584 2284 3584 
Q 2666 3584 2933 3390 
Q 3200 3197 3328 2828 
z
" transform="scale(0.015625)"/>
      <path id="DejaVuSans-54" d="M -19 4666 
L 3928 4666 
L 3928 4134 
L 2272 4134 
L 2272 0 
L 1638 0 
L 1638 4134 
L -19 4134 
L -19 4666 
z
" transform="scale(0.015625)"/>
      <path id="DejaVuSans-61" d="M 2194 1759 
Q 1497 1759 1228 1600 
Q 959 1441 959 1056 
Q 959 750 1161 570 
Q 1363 391 1709 391 
Q 2188 391 2477 730 
Q 2766 1069 2766 1631 
L 2766 1759 
L 2194 1759 
z
M 3341 1997 
L 3341 0 
L 2766 0 
L 2766 531 
Q 2569 213 2275 61 
Q 1981 -91 1556 -91 
Q 1019 -91 701 211 
Q 384 513 384 1019 
Q 384 1609 779 1909 
Q 1175 2209 1959 2209 
L 2766 2209 
L 2766 2266 
Q 2766 2663 2505 2880 
Q 2244 3097 1772 3097 
Q 1472 3097 1187 3025 
Q 903 2953 641 2809 
L 641 3341 
Q 956 3463 1253 3523 
Q 1550 3584 1831 3584 
Q 2591 3584 2966 3190 
Q 3341 2797 3341 1997 
z
" transform="scale(0.015625)"/>
      <path id="DejaVuSans-78" d="M 3513 3500 
L 2247 1797 
L 3578 0 
L 2900 0 
L 1881 1375 
L 863 0 
L 184 0 
L 1544 1831 
L 300 3500 
L 978 3500 
L 1906 2253 
L 2834 3500 
L 3513 3500 
z
" transform="scale(0.015625)"/>
      <path id="DejaVuSans-20" transform="scale(0.015625)"/>
      <path id="DejaVuSans-44" d="M 1259 4147 
L 1259 519 
L 2022 519 
Q 2988 519 3436 956 
Q 3884 1394 3884 2338 
Q 3884 3275 3436 3711 
Q 2988 4147 2022 4147 
L 1259 4147 
z
M 628 4666 
L 1925 4666 
Q 3281 4666 3915 4102 
Q 4550 3538 4550 2338 
Q 4550 1131 3912 565 
Q 3275 0 1925 0 
L 628 0 
L 628 4666 
z
" transform="scale(0.015625)"/>
      <path id="DejaVuSans-69" d="M 603 3500 
L 1178 3500 
L 1178 0 
L 603 0 
L 603 3500 
z
M 603 4863 
L 1178 4863 
L 1178 4134 
L 603 4134 
L 603 4863 
z
" transform="scale(0.015625)"/>
      <path id="DejaVuSans-73" d="M 2834 3397 
L 2834 2853 
Q 2591 2978 2328 3040 
Q 2066 3103 1784 3103 
Q 1356 3103 1142 2972 
Q 928 2841 928 2578 
Q 928 2378 1081 2264 
Q 1234 2150 1697 2047 
L 1894 2003 
Q 2506 1872 2764 1633 
Q 3022 1394 3022 966 
Q 3022 478 2636 193 
Q 2250 -91 1575 -91 
Q 1294 -91 989 -36 
Q 684 19 347 128 
L 347 722 
Q 666 556 975 473 
Q 1284 391 1588 391 
Q 1994 391 2212 530 
Q 2431 669 2431 922 
Q 2431 1156 2273 1281 
Q 2116 1406 1581 1522 
L 1381 1569 
Q 847 1681 609 1914 
Q 372 2147 372 2553 
Q 372 3047 722 3315 
Q 1072 3584 1716 3584 
Q 2034 3584 2315 3537 
Q 2597 3491 2834 3397 
z
" transform="scale(0.015625)"/>
      <path id="DejaVuSans-74" d="M 1172 4494 
L 1172 3500 
L 2356 3500 
L 2356 3053 
L 1172 3053 
L 1172 1153 
Q 1172 725 1289 603 
Q 1406 481 1766 481 
L 2356 481 
L 2356 0 
L 1766 0 
Q 1100 0 847 248 
Q 594 497 594 1153 
L 594 3053 
L 172 3053 
L 172 3500 
L 594 3500 
L 594 4494 
L 1172 4494 
z
" transform="scale(0.015625)"/>
      <path id="DejaVuSans-72" d="M 2631 2963 
Q 2534 3019 2420 3045 
Q 2306 3072 2169 3072 
Q 1681 3072 1420 2755 
Q 1159 2438 1159 1844 
L 1159 0 
L 581 0 
L 581 3500 
L 1159 3500 
L 1159 2956 
Q 1341 3275 1631 3429 
Q 1922 3584 2338 3584 
Q 2397 3584 2469 3576 
Q 2541 3569 2628 3553 
L 2631 2963 
z
" transform="scale(0.015625)"/>
      <path id="DejaVuSans-62" d="M 3116 1747 
Q 3116 2381 2855 2742 
Q 2594 3103 2138 3103 
Q 1681 3103 1420 2742 
Q 1159 2381 1159 1747 
Q 1159 1113 1420 752 
Q 1681 391 2138 391 
Q 2594 391 2855 752 
Q 3116 1113 3116 1747 
z
M 1159 2969 
Q 1341 3281 1617 3432 
Q 1894 3584 2278 3584 
Q 2916 3584 3314 3078 
Q 3713 2572 3713 1747 
Q 3713 922 3314 415 
Q 2916 -91 2278 -91 
Q 1894 -91 1617 61 
Q 1341 213 1159 525 
L 1159 0 
L 581 0 
L 581 4863 
L 1159 4863 
L 1159 2969 
z
" transform="scale(0.015625)"/>
      <path id="DejaVuSans-6f" d="M 1959 3097 
Q 1497 3097 1228 2736 
Q 959 2375 959 1747 
Q 959 1119 1226 758 
Q 1494 397 1959 397 
Q 2419 397 2687 759 
Q 2956 1122 2956 1747 
Q 2956 2369 2687 2733 
Q 2419 3097 1959 3097 
z
M 1959 3584 
Q 2709 3584 3137 3096 
Q 3566 2609 3566 1747 
Q 3566 888 3137 398 
Q 2709 -91 1959 -91 
Q 1206 -91 779 398 
Q 353 888 353 1747 
Q 353 2609 779 3096 
Q 1206 3584 1959 3584 
z
" transform="scale(0.015625)"/>
      <path id="DejaVuSans-6e" d="M 3513 2113 
L 3513 0 
L 2938 0 
L 2938 2094 
Q 2938 2591 2744 2837 
Q 2550 3084 2163 3084 
Q 1697 3084 1428 2787 
Q 1159 2491 1159 1978 
L 1159 0 
L 581 0 
L 581 3500 
L 1159 3500 
L 1159 2956 
Q 1366 3272 1645 3428 
Q 1925 3584 2291 3584 
Q 2894 3584 3203 3211 
Q 3513 2838 3513 2113 
z
" transform="scale(0.015625)"/>
      <path id="DejaVuSans-28" d="M 1984 4856 
Q 1566 4138 1362 3434 
Q 1159 2731 1159 2009 
Q 1159 1288 1364 580 
Q 1569 -128 1984 -844 
L 1484 -844 
Q 1016 -109 783 600 
Q 550 1309 550 2009 
Q 550 2706 781 3412 
Q 1013 4119 1484 4856 
L 1984 4856 
z
" transform="scale(0.015625)"/>
      <path id="DejaVuSans-65" d="M 3597 1894 
L 3597 1613 
L 953 1613 
Q 991 1019 1311 708 
Q 1631 397 2203 397 
Q 2534 397 2845 478 
Q 3156 559 3463 722 
L 3463 178 
Q 3153 47 2828 -22 
Q 2503 -91 2169 -91 
Q 1331 -91 842 396 
Q 353 884 353 1716 
Q 353 2575 817 3079 
Q 1281 3584 2069 3584 
Q 2775 3584 3186 3129 
Q 3597 2675 3597 1894 
z
M 3022 2063 
Q 3016 2534 2758 2815 
Q 2500 3097 2075 3097 
Q 1594 3097 1305 2825 
Q 1016 2553 972 2059 
L 3022 2063 
z
" transform="scale(0.015625)"/>
      <path id="DejaVuSans-43" d="M 4122 4306 
L 4122 3641 
Q 3803 3938 3442 4084 
Q 3081 4231 2675 4231 
Q 1875 4231 1450 3742 
Q 1025 3253 1025 2328 
Q 1025 1406 1450 917 
Q 1875 428 2675 428 
Q 3081 428 3442 575 
Q 3803 722 4122 1019 
L 4122 359 
Q 3791 134 3420 21 
Q 3050 -91 2638 -91 
Q 1578 -91 968 557 
Q 359 1206 359 2328 
Q 359 3453 968 4101 
Q 1578 4750 2638 4750 
Q 3056 4750 3426 4639 
Q 3797 4528 4122 4306 
z
" transform="scale(0.015625)"/>
      <path id="DejaVuSans-29" d="M 513 4856 
L 1013 4856 
Q 1481 4119 1714 3412 
Q 1947 2706 1947 2009 
Q 1947 1309 1714 600 
Q 1481 -109 1013 -844 
L 513 -844 
Q 928 -128 1133 580 
Q 1338 1288 1338 2009 
Q 1338 2731 1133 3434 
Q 928 4138 513 4856 
z
" transform="scale(0.015625)"/>
     </defs>
     <use xlink:href="#DejaVuSans-50"/>
     <use xlink:href="#DejaVuSans-68" x="60.302734"/>
     <use xlink:href="#DejaVuSans-79" x="123.681641"/>
     <use xlink:href="#DejaVuSans-6c" x="182.861328"/>
     <use xlink:href="#DejaVuSans-75" x="210.644531"/>
     <use xlink:href="#DejaVuSans-6d" x="274.023438"/>
     <use xlink:href="#DejaVuSans-54" x="371.435547"/>
     <use xlink:href="#DejaVuSans-61" x="416.019531"/>
     <use xlink:href="#DejaVuSans-78" x="477.298828"/>
     <use xlink:href="#DejaVuSans-61" x="536.478516"/>
     <use xlink:href="#DejaVuSans-20" x="597.757812"/>
     <use xlink:href="#DejaVuSans-44" x="629.544922"/>
     <use xlink:href="#DejaVuSans-69" x="706.546875"/>
     <use xlink:href="#DejaVuSans-73" x="734.330078"/>
     <use xlink:href="#DejaVuSans-74" x="786.429688"/>
     <use xlink:href="#DejaVuSans-72" x="825.638672"/>
     <use xlink:href="#DejaVuSans-69" x="866.751953"/>
     <use xlink:href="#DejaVuSans-62" x="894.535156"/>
     <use xlink:href="#DejaVuSans-75" x="958.011719"/>
     <use xlink:href="#DejaVuSans-74" x="1021.390625"/>
     <use xlink:href="#DejaVuSans-69" x="1060.599609"/>
     <use xlink:href="#DejaVuSans-6f" x="1088.382812"/>
     <use xlink:href="#DejaVuSans-6e" x="1149.564453"/>
     <use xlink:href="#DejaVuSans-20" x="1212.943359"/>
     <use xlink:href="#DejaVuSans-28" x="1244.730469"/>
     <use xlink:href="#DejaVuSans-50" x="1283.744141"/>
     <use xlink:href="#DejaVuSans-69" x="1341.796875"/>
     <use xlink:href="#DejaVuSans-65" x="1369.580078"/>
     <use xlink:href="#DejaVuSans-20" x="1431.103516"/>
     <use xlink:href="#DejaVuSans-43" x="1462.890625"/>
     <use xlink:href="#DejaVuSans-68" x="1532.714844"/>
     <use xlink:href="#DejaVuSans-61" x="1596.09375"/>
     <use xlink:href="#DejaVuSans-72" x="1657.373047"/>
     <use xlink:href="#DejaVuSans-74" x="1698.486328"/>
     <use xlink:href="#DejaVuSans-29" x="1737.695312"/>
    </g>
   </g>
   <g id="legend_1">
    <g id="patch_10">
     <path d="M 384.4509 308.253562 
L 620.215744 308.253562 
Q 623.215744 308.253562 623.215744 305.253562 
L 623.215744 174.650438 
Q 623.215744 171.650438 620.215744 171.650438 
L 384.4509 171.650438 
Q 381.4509 171.650438 381.4509 174.650438 
L 381.4509 305.253562 
Q 381.4509 308.253562 384.4509 308.253562 
z
" style="fill: #ffffff; opacity: 0.8; stroke: #cccccc; stroke-linejoin: miter"/>
    </g>
    <g id="patch_11">
     <path d="M 387.4509 189.048094 
L 417.4509 189.048094 
L 417.4509 178.548094 
L 387.4509 178.548094 
z
" style="fill: #a1c9f4; stroke: #ffffff; stroke-linejoin: miter"/>
    </g>
    <g id="text_2">
     <!-- Pseudomonadota: 61.9% -->
     <g transform="translate(429.4509 189.048094) scale(0.15 -0.15)">
      <defs>
       <path id="DejaVuSans-64" d="M 2906 2969 
L 2906 4863 
L 3481 4863 
L 3481 0 
L 2906 0 
L 2906 525 
Q 2725 213 2448 61 
Q 2172 -91 1784 -91 
Q 1150 -91 751 415 
Q 353 922 353 1747 
Q 353 2572 751 3078 
Q 1150 3584 1784 3584 
Q 2172 3584 2448 3432 
Q 2725 3281 2906 2969 
z
M 947 1747 
Q 947 1113 1208 752 
Q 1469 391 1925 391 
Q 2381 391 2643 752 
Q 2906 1113 2906 1747 
Q 2906 2381 2643 2742 
Q 2381 3103 1925 3103 
Q 1469 3103 1208 2742 
Q 947 2381 947 1747 
z
" transform="scale(0.015625)"/>
       <path id="DejaVuSans-3a" d="M 750 794 
L 1409 794 
L 1409 0 
L 750 0 
L 750 794 
z
M 750 3309 
L 1409 3309 
L 1409 2516 
L 750 2516 
L 750 3309 
z
" transform="scale(0.015625)"/>
       <path id="DejaVuSans-36" d="M 2113 2584 
Q 1688 2584 1439 2293 
Q 1191 2003 1191 1497 
Q 1191 994 1439 701 
Q 1688 409 2113 409 
Q 2538 409 2786 701 
Q 3034 994 3034 1497 
Q 3034 2003 2786 2293 
Q 2538 2584 2113 2584 
z
M 3366 4563 
L 3366 3988 
Q 3128 4100 2886 4159 
Q 2644 4219 2406 4219 
Q 1781 4219 1451 3797 
Q 1122 3375 1075 2522 
Q 1259 2794 1537 2939 
Q 1816 3084 2150 3084 
Q 2853 3084 3261 2657 
Q 3669 2231 3669 1497 
Q 3669 778 3244 343 
Q 2819 -91 2113 -91 
Q 1303 -91 875 529 
Q 447 1150 447 2328 
Q 447 3434 972 4092 
Q 1497 4750 2381 4750 
Q 2619 4750 2861 4703 
Q 3103 4656 3366 4563 
z
" transform="scale(0.015625)"/>
       <path id="DejaVuSans-31" d="M 794 531 
L 1825 531 
L 1825 4091 
L 703 3866 
L 703 4441 
L 1819 4666 
L 2450 4666 
L 2450 531 
L 3481 531 
L 3481 0 
L 794 0 
L 794 531 
z
" transform="scale(0.015625)"/>
       <path id="DejaVuSans-2e" d="M 684 794 
L 1344 794 
L 1344 0 
L 684 0 
L 684 794 
z
" transform="scale(0.015625)"/>
       <path id="DejaVuSans-39" d="M 703 97 
L 703 672 
Q 941 559 1184 500 
Q 1428 441 1663 441 
Q 2288 441 2617 861 
Q 2947 1281 2994 2138 
Q 2813 1869 2534 1725 
Q 2256 1581 1919 1581 
Q 1219 1581 811 2004 
Q 403 2428 403 3163 
Q 403 3881 828 4315 
Q 1253 4750 1959 4750 
Q 2769 4750 3195 4129 
Q 3622 3509 3622 2328 
Q 3622 1225 3098 567 
Q 2575 -91 1691 -91 
Q 1453 -91 1209 -44 
Q 966 3 703 97 
z
M 1959 2075 
Q 2384 2075 2632 2365 
Q 2881 2656 2881 3163 
Q 2881 3666 2632 3958 
Q 2384 4250 1959 4250 
Q 1534 4250 1286 3958 
Q 1038 3666 1038 3163 
Q 1038 2656 1286 2365 
Q 1534 2075 1959 2075 
z
" transform="scale(0.015625)"/>
       <path id="DejaVuSans-25" d="M 4653 2053 
Q 4381 2053 4226 1822 
Q 4072 1591 4072 1178 
Q 4072 772 4226 539 
Q 4381 306 4653 306 
Q 4919 306 5073 539 
Q 5228 772 5228 1178 
Q 5228 1588 5073 1820 
Q 4919 2053 4653 2053 
z
M 4653 2450 
Q 5147 2450 5437 2106 
Q 5728 1763 5728 1178 
Q 5728 594 5436 251 
Q 5144 -91 4653 -91 
Q 4153 -91 3862 251 
Q 3572 594 3572 1178 
Q 3572 1766 3864 2108 
Q 4156 2450 4653 2450 
z
M 1428 4353 
Q 1159 4353 1004 4120 
Q 850 3888 850 3481 
Q 850 3069 1003 2837 
Q 1156 2606 1428 2606 
Q 1700 2606 1854 2837 
Q 2009 3069 2009 3481 
Q 2009 3884 1853 4118 
Q 1697 4353 1428 4353 
z
M 4250 4750 
L 4750 4750 
L 1831 -91 
L 1331 -91 
L 4250 4750 
z
M 1428 4750 
Q 1922 4750 2215 4408 
Q 2509 4066 2509 3481 
Q 2509 2891 2217 2550 
Q 1925 2209 1428 2209 
Q 931 2209 642 2551 
Q 353 2894 353 3481 
Q 353 4063 643 4406 
Q 934 4750 1428 4750 
z
" transform="scale(0.015625)"/>
      </defs>
      <use xlink:href="#DejaVuSans-50"/>
      <use xlink:href="#DejaVuSans-73" x="58.552734"/>
      <use xlink:href="#DejaVuSans-65" x="110.652344"/>
      <use xlink:href="#DejaVuSans-75" x="172.175781"/>
      <use xlink:href="#DejaVuSans-64" x="235.554688"/>
      <use xlink:href="#DejaVuSans-6f" x="299.03125"/>
      <use xlink:href="#DejaVuSans-6d" x="360.212891"/>
      <use xlink:href="#DejaVuSans-6f" x="457.625"/>
      <use xlink:href="#DejaVuSans-6e" x="518.806641"/>
      <use xlink:href="#DejaVuSans-61" x="582.185547"/>
      <use xlink:href="#DejaVuSans-64" x="643.464844"/>
      <use xlink:href="#DejaVuSans-6f" x="706.941406"/>
      <use xlink:href="#DejaVuSans-74" x="768.123047"/>
      <use xlink:href="#DejaVuSans-61" x="807.332031"/>
      <use xlink:href="#DejaVuSans-3a" x="868.611328"/>
      <use xlink:href="#DejaVuSans-20" x="902.302734"/>
      <use xlink:href="#DejaVuSans-36" x="934.089844"/>
      <use xlink:href="#DejaVuSans-31" x="997.712891"/>
      <use xlink:href="#DejaVuSans-2e" x="1061.335938"/>
      <use xlink:href="#DejaVuSans-39" x="1093.123047"/>
      <use xlink:href="#DejaVuSans-25" x="1156.746094"/>
     </g>
    </g>
    <g id="patch_12">
     <path d="M 387.4509 211.065281 
L 417.4509 211.065281 
L 417.4509 200.565281 
L 387.4509 200.565281 
z
" style="fill: #ffb482; stroke: #ffffff; stroke-linejoin: miter"/>
    </g>
    <g id="text_3">
     <!-- Actinomycetota: 16.9% -->
     <g transform="translate(429.4509 211.065281) scale(0.15 -0.15)">
      <defs>
       <path id="DejaVuSans-41" d="M 2188 4044 
L 1331 1722 
L 3047 1722 
L 2188 4044 
z
M 1831 4666 
L 2547 4666 
L 4325 0 
L 3669 0 
L 3244 1197 
L 1141 1197 
L 716 0 
L 50 0 
L 1831 4666 
z
" transform="scale(0.015625)"/>
       <path id="DejaVuSans-63" d="M 3122 3366 
L 3122 2828 
Q 2878 2963 2633 3030 
Q 2388 3097 2138 3097 
Q 1578 3097 1268 2742 
Q 959 2388 959 1747 
Q 959 1106 1268 751 
Q 1578 397 2138 397 
Q 2388 397 2633 464 
Q 2878 531 3122 666 
L 3122 134 
Q 2881 22 2623 -34 
Q 2366 -91 2075 -91 
Q 1284 -91 818 406 
Q 353 903 353 1747 
Q 353 2603 823 3093 
Q 1294 3584 2113 3584 
Q 2378 3584 2631 3529 
Q 2884 3475 3122 3366 
z
" transform="scale(0.015625)"/>
      </defs>
      <use xlink:href="#DejaVuSans-41"/>
      <use xlink:href="#DejaVuSans-63" x="66.658203"/>
      <use xlink:href="#DejaVuSans-74" x="121.638672"/>
      <use xlink:href="#DejaVuSans-69" x="160.847656"/>
      <use xlink:href="#DejaVuSans-6e" x="188.630859"/>
      <use xlink:href="#DejaVuSans-6f" x="252.009766"/>
      <use xlink:href="#DejaVuSans-6d" x="313.191406"/>
      <use xlink:href="#DejaVuSans-79" x="410.603516"/>
      <use xlink:href="#DejaVuSans-63" x="469.783203"/>
      <use xlink:href="#DejaVuSans-65" x="524.763672"/>
      <use xlink:href="#DejaVuSans-74" x="586.287109"/>
      <use xlink:href="#DejaVuSans-6f" x="625.496094"/>
      <use xlink:href="#DejaVuSans-74" x="686.677734"/>
      <use xlink:href="#DejaVuSans-61" x="725.886719"/>
      <use xlink:href="#DejaVuSans-3a" x="787.166016"/>
      <use xlink:href="#DejaVuSans-20" x="820.857422"/>
      <use xlink:href="#DejaVuSans-31" x="852.644531"/>
      <use xlink:href="#DejaVuSans-36" x="916.267578"/>
      <use xlink:href="#DejaVuSans-2e" x="979.890625"/>
      <use xlink:href="#DejaVuSans-39" x="1011.677734"/>
      <use xlink:href="#DejaVuSans-25" x="1075.300781"/>
     </g>
    </g>
    <g id="patch_13">
     <path d="M 387.4509 233.082469 
L 417.4509 233.082469 
L 417.4509 222.582469 
L 387.4509 222.582469 
z
" style="fill: #8de5a1; stroke: #ffffff; stroke-linejoin: miter"/>
    </g>
    <g id="text_4">
     <!-- Bacillota: 10.4% -->
     <g transform="translate(429.4509 233.082469) scale(0.15 -0.15)">
      <defs>
       <path id="DejaVuSans-42" d="M 1259 2228 
L 1259 519 
L 2272 519 
Q 2781 519 3026 730 
Q 3272 941 3272 1375 
Q 3272 1813 3026 2020 
Q 2781 2228 2272 2228 
L 1259 2228 
z
M 1259 4147 
L 1259 2741 
L 2194 2741 
Q 2656 2741 2882 2914 
Q 3109 3088 3109 3444 
Q 3109 3797 2882 3972 
Q 2656 4147 2194 4147 
L 1259 4147 
z
M 628 4666 
L 2241 4666 
Q 2963 4666 3353 4366 
Q 3744 4066 3744 3513 
Q 3744 3084 3544 2831 
Q 3344 2578 2956 2516 
Q 3422 2416 3680 2098 
Q 3938 1781 3938 1306 
Q 3938 681 3513 340 
Q 3088 0 2303 0 
L 628 0 
L 628 4666 
z
" transform="scale(0.015625)"/>
       <path id="DejaVuSans-30" d="M 2034 4250 
Q 1547 4250 1301 3770 
Q 1056 3291 1056 2328 
Q 1056 1369 1301 889 
Q 1547 409 2034 409 
Q 2525 409 2770 889 
Q 3016 1369 3016 2328 
Q 3016 3291 2770 3770 
Q 2525 4250 2034 4250 
z
M 2034 4750 
Q 2819 4750 3233 4129 
Q 3647 3509 3647 2328 
Q 3647 1150 3233 529 
Q 2819 -91 2034 -91 
Q 1250 -91 836 529 
Q 422 1150 422 2328 
Q 422 3509 836 4129 
Q 1250 4750 2034 4750 
z
" transform="scale(0.015625)"/>
       <path id="DejaVuSans-34" d="M 2419 4116 
L 825 1625 
L 2419 1625 
L 2419 4116 
z
M 2253 4666 
L 3047 4666 
L 3047 1625 
L 3713 1625 
L 3713 1100 
L 3047 1100 
L 3047 0 
L 2419 0 
L 2419 1100 
L 313 1100 
L 313 1709 
L 2253 4666 
z
" transform="scale(0.015625)"/>
      </defs>
      <use xlink:href="#DejaVuSans-42"/>
      <use xlink:href="#DejaVuSans-61" x="68.603516"/>
      <use xlink:href="#DejaVuSans-63" x="129.882812"/>
      <use xlink:href="#DejaVuSans-69" x="184.863281"/>
      <use xlink:href="#DejaVuSans-6c" x="212.646484"/>
      <use xlink:href="#DejaVuSans-6c" x="240.429688"/>
      <use xlink:href="#DejaVuSans-6f" x="268.212891"/>
      <use xlink:href="#DejaVuSans-74" x="329.394531"/>
      <use xlink:href="#DejaVuSans-61" x="368.603516"/>
      <use xlink:href="#DejaVuSans-3a" x="429.882812"/>
      <use xlink:href="#DejaVuSans-20" x="463.574219"/>
      <use xlink:href="#DejaVuSans-31" x="495.361328"/>
      <use xlink:href="#DejaVuSans-30" x="558.984375"/>
      <use xlink:href="#DejaVuSans-2e" x="622.607422"/>
      <use xlink:href="#DejaVuSans-34" x="654.394531"/>
      <use xlink:href="#DejaVuSans-25" x="718.017578"/>
     </g>
    </g>
    <g id="patch_14">
     <path d="M 387.4509 255.099656 
L 417.4509 255.099656 
L 417.4509 244.599656 
L 387.4509 244.599656 
z
" style="fill: #ff9f9b; stroke: #ffffff; stroke-linejoin: miter"/>
    </g>
    <g id="text_5">
     <!-- Bacteroidota: 2.7% -->
     <g transform="translate(429.4509 255.099656) scale(0.15 -0.15)">
      <defs>
       <path id="DejaVuSans-32" d="M 1228 531 
L 3431 531 
L 3431 0 
L 469 0 
L 469 531 
Q 828 903 1448 1529 
Q 2069 2156 2228 2338 
Q 2531 2678 2651 2914 
Q 2772 3150 2772 3378 
Q 2772 3750 2511 3984 
Q 2250 4219 1831 4219 
Q 1534 4219 1204 4116 
Q 875 4013 500 3803 
L 500 4441 
Q 881 4594 1212 4672 
Q 1544 4750 1819 4750 
Q 2544 4750 2975 4387 
Q 3406 4025 3406 3419 
Q 3406 3131 3298 2873 
Q 3191 2616 2906 2266 
Q 2828 2175 2409 1742 
Q 1991 1309 1228 531 
z
" transform="scale(0.015625)"/>
       <path id="DejaVuSans-37" d="M 525 4666 
L 3525 4666 
L 3525 4397 
L 1831 0 
L 1172 0 
L 2766 4134 
L 525 4134 
L 525 4666 
z
" transform="scale(0.015625)"/>
      </defs>
      <use xlink:href="#DejaVuSans-42"/>
      <use xlink:href="#DejaVuSans-61" x="68.603516"/>
      <use xlink:href="#DejaVuSans-63" x="129.882812"/>
      <use xlink:href="#DejaVuSans-74" x="184.863281"/>
      <use xlink:href="#DejaVuSans-65" x="224.072266"/>
      <use xlink:href="#DejaVuSans-72" x="285.595703"/>
      <use xlink:href="#DejaVuSans-6f" x="324.458984"/>
      <use xlink:href="#DejaVuSans-69" x="385.640625"/>
      <use xlink:href="#DejaVuSans-64" x="413.423828"/>
      <use xlink:href="#DejaVuSans-6f" x="476.900391"/>
      <use xlink:href="#DejaVuSans-74" x="538.082031"/>
      <use xlink:href="#DejaVuSans-61" x="577.291016"/>
      <use xlink:href="#DejaVuSans-3a" x="638.570312"/>
      <use xlink:href="#DejaVuSans-20" x="672.261719"/>
      <use xlink:href="#DejaVuSans-32" x="704.048828"/>
      <use xlink:href="#DejaVuSans-2e" x="767.671875"/>
      <use xlink:href="#DejaVuSans-37" x="799.458984"/>
      <use xlink:href="#DejaVuSans-25" x="863.082031"/>
     </g>
    </g>
    <g id="patch_15">
     <path d="M 387.4509 277.116844 
L 417.4509 277.116844 
L 417.4509 266.616844 
L 387.4509 266.616844 
z
" style="fill: #d0bbff; stroke: #ffffff; stroke-linejoin: miter"/>
    </g>
    <g id="text_6">
     <!-- Cyanobacteriota: 2.5% -->
     <g transform="translate(429.4509 277.116844) scale(0.15 -0.15)">
      <defs>
       <path id="DejaVuSans-35" d="M 691 4666 
L 3169 4666 
L 3169 4134 
L 1269 4134 
L 1269 2991 
Q 1406 3038 1543 3061 
Q 1681 3084 1819 3084 
Q 2600 3084 3056 2656 
Q 3513 2228 3513 1497 
Q 3513 744 3044 326 
Q 2575 -91 1722 -91 
Q 1428 -91 1123 -41 
Q 819 9 494 109 
L 494 744 
Q 775 591 1075 516 
Q 1375 441 1709 441 
Q 2250 441 2565 725 
Q 2881 1009 2881 1497 
Q 2881 1984 2565 2268 
Q 2250 2553 1709 2553 
Q 1456 2553 1204 2497 
Q 953 2441 691 2322 
L 691 4666 
z
" transform="scale(0.015625)"/>
      </defs>
      <use xlink:href="#DejaVuSans-43"/>
      <use xlink:href="#DejaVuSans-79" x="69.824219"/>
      <use xlink:href="#DejaVuSans-61" x="129.003906"/>
      <use xlink:href="#DejaVuSans-6e" x="190.283203"/>
      <use xlink:href="#DejaVuSans-6f" x="253.662109"/>
      <use xlink:href="#DejaVuSans-62" x="314.84375"/>
      <use xlink:href="#DejaVuSans-61" x="378.320312"/>
      <use xlink:href="#DejaVuSans-63" x="439.599609"/>
      <use xlink:href="#DejaVuSans-74" x="494.580078"/>
      <use xlink:href="#DejaVuSans-65" x="533.789062"/>
      <use xlink:href="#DejaVuSans-72" x="595.3125"/>
      <use xlink:href="#DejaVuSans-69" x="636.425781"/>
      <use xlink:href="#DejaVuSans-6f" x="664.208984"/>
      <use xlink:href="#DejaVuSans-74" x="725.390625"/>
      <use xlink:href="#DejaVuSans-61" x="764.599609"/>
      <use xlink:href="#DejaVuSans-3a" x="825.878906"/>
      <use xlink:href="#DejaVuSans-20" x="859.570312"/>
      <use xlink:href="#DejaVuSans-32" x="891.357422"/>
      <use xlink:href="#DejaVuSans-2e" x="954.980469"/>
      <use xlink:href="#DejaVuSans-35" x="986.767578"/>
      <use xlink:href="#DejaVuSans-25" x="1050.390625"/>
     </g>
    </g>
    <g id="patch_16">
     <path d="M 387.4509 299.134031 
L 417.4509 299.134031 
L 417.4509 288.634031 
L 387.4509 288.634031 
z
" style="fill: #debb9b; stroke: #ffffff; stroke-linejoin: miter"/>
    </g>
    <g id="text_7">
     <!-- Other: 5.5% -->
     <g transform="translate(429.4509 299.134031) scale(0.15 -0.15)">
      <defs>
       <path id="DejaVuSans-4f" d="M 2522 4238 
Q 1834 4238 1429 3725 
Q 1025 3213 1025 2328 
Q 1025 1447 1429 934 
Q 1834 422 2522 422 
Q 3209 422 3611 934 
Q 4013 1447 4013 2328 
Q 4013 3213 3611 3725 
Q 3209 4238 2522 4238 
z
M 2522 4750 
Q 3503 4750 4090 4092 
Q 4678 3434 4678 2328 
Q 4678 1225 4090 567 
Q 3503 -91 2522 -91 
Q 1538 -91 948 565 
Q 359 1222 359 2328 
Q 359 3434 948 4092 
Q 1538 4750 2522 4750 
z
" transform="scale(0.015625)"/>
      </defs>
      <use xlink:href="#DejaVuSans-4f"/>
      <use xlink:href="#DejaVuSans-74" x="78.710938"/>
      <use xlink:href="#DejaVuSans-68" x="117.919922"/>
      <use xlink:href="#DejaVuSans-65" x="181.298828"/>
      <use xlink:href="#DejaVuSans-72" x="242.822266"/>
      <use xlink:href="#DejaVuSans-3a" x="282.185547"/>
      <use xlink:href="#DejaVuSans-20" x="315.876953"/>
      <use xlink:href="#DejaVuSans-35" x="347.664062"/>
      <use xlink:href="#DejaVuSans-2e" x="411.287109"/>
      <use xlink:href="#DejaVuSans-35" x="443.074219"/>
      <use xlink:href="#DejaVuSans-25" x="506.697266"/>
     </g>
    </g>
   </g>
  </g>
 </g>
 <defs>
  <clipPath id="p0daf09a319">
   <path d="M 356.658 239.952 
C 356.658 217.243172 352.184856 194.755158 343.494564 173.774937 
C 334.804271 152.794715 322.065835 133.730298 306.008269 117.672731 
C 289.950702 101.615165 270.886285 88.876729 249.906063 80.186436 
C 228.925842 71.496144 206.437828 67.023 183.729 67.023 
C 161.020172 67.023 138.532158 71.496144 117.551937 80.186436 
C 96.571715 88.876729 77.507298 101.615165 61.449731 117.672731 
C 45.392165 133.730298 32.653729 152.794715 23.963436 173.774937 
C 15.273144 194.755158 10.8 217.243172 10.8 239.952 
C 10.8 262.660828 15.273144 285.148842 23.963436 306.129063 
C 32.653729 327.109285 45.392165 346.173702 61.449731 362.231269 
C 77.507298 378.288835 96.571715 391.027271 117.551937 399.717564 
C 138.532158 408.407856 161.020172 412.881 183.729 412.881 
C 206.437828 412.881 228.925842 408.407856 249.906063 399.717564 
C 270.886285 391.027271 289.950702 378.288835 306.008269 362.231269 
C 322.065835 346.173702 334.804271 327.109285 343.494564 306.129063 
C 352.184856 285.148842 356.658 262.660828 356.658 239.952 
M 183.729 239.952 
C 183.729 239.952 183.729 239.952 183.729 239.952 
C 183.729 239.952 183.729 239.952 183.729 239.952 
C 183.729 239.952 183.729 239.952 183.729 239.952 
C 183.729 239.952 183.729 239.952 183.729 239.952 
C 183.729 239.952 183.729 239.952 183.729 239.952 
C 183.729 239.952 183.729 239.952 183.729 239.952 
C 183.729 239.952 183.729 239.952 183.729 239.952 
C 183.729 239.952 183.729 239.952 183.729 239.952 
C 183.729 239.952 183.729 239.952 183.729 239.952 
C 183.729 239.952 183.729 239.952 183.729 239.952 
C 183.729 239.952 183.729 239.952 183.729 239.952 
C 183.729 239.952 183.729 239.952 183.729 239.952 
C 183.729 239.952 183.729 239.952 183.729 239.952 
C 183.729 239.952 183.729 239.952 183.729 239.952 
C 183.729 239.952 183.729 239.952 183.729 239.952 
C 183.729 239.952 183.729 239.952 183.729 239.952 
z
"/>
  </clipPath>
 </defs>
</svg>
