<?xml version="1.0" encoding="utf-8" standalone="no"?>
<!DOCTYPE svg PUBLIC "-//W3C//DTD SVG 1.1//EN"
  "http://www.w3.org/Graphics/SVG/1.1/DTD/svg11.dtd">
<svg xmlns:xlink="http://www.w3.org/1999/xlink" width="416pt" height="320pt" viewBox="0 0 416 320" xmlns="http://www.w3.org/2000/svg" version="1.1">
 <metadata>
  <rdf:RDF xmlns:dc="http://purl.org/dc/elements/1.1/" xmlns:cc="http://creativecommons.org/ns#" xmlns:rdf="http://www.w3.org/1999/02/22-rdf-syntax-ns#">
   <cc:Work>
    <dc:type rdf:resource="http://purl.org/dc/dcmitype/StillImage"/>
    <dc:date>2025-08-04T11:10:51.340076</dc:date>
    <dc:format>image/svg+xml</dc:format>
    <dc:creator>
     <cc:Agent>
      <dc:title>Matplotlib v3.7.0, https://matplotlib.org/</dc:title>
     </cc:Agent>
    </dc:creator>
   </cc:Work>
  </rdf:RDF>
 </metadata>
 <defs>
  <style type="text/css">*{stroke-linejoin: round; stroke-linecap: butt}</style>
 </defs>
 <g id="figure_1">
  <g id="patch_1">
   <path d="M 0 320 
L 416 320 
L 416 0 
L 0 0 
z
" style="fill: #ffffff"/>
  </g>
  <g id="axes_1">
   <g id="patch_2">
    <path d="M 52 280.673684 
L 374.4 280.673684 
L 374.4 263.299723 
L 52 263.299723 
z
" clip-path="url(#p1cbb0122e8)" style="fill-opacity: 0.05098"/>
   </g>
   <g id="patch_3">
    <path d="M 52 258.956233 
L 374.4 258.956233 
L 374.4 241.582271 
L 52 241.582271 
L 52 258.956233 
z
" clip-path="url(#p1cbb0122e8)" style="fill: none"/>
   </g>
   <g id="patch_4">
    <path d="M 52 237.238781 
L 374.4 237.238781 
L 374.4 219.86482 
L 52 219.86482 
z
" clip-path="url(#p1cbb0122e8)" style="fill-opacity: 0.05098"/>
   </g>
   <g id="patch_5">
    <path d="M 52 215.52133 
L 374.4 215.52133 
L 374.4 198.147368 
L 52 198.147368 
L 52 215.52133 
z
" clip-path="url(#p1cbb0122e8)" style="fill: none"/>
   </g>
   <g id="matplotlib.axis_1"/>
   <g id="matplotlib.axis_2">
    <g id="ytick_1"/>
    <g id="ytick_2"/>
    <g id="ytick_3"/>
    <g id="ytick_4"/>
   </g>
  </g>
  <g id="axes_2">
   <g id="matplotlib.axis_3">
    <g id="ytick_5">
     <g id="line2d_1"/>
     <g id="text_1">
      <!-- UniProt -->
      <g transform="translate(163.018405 275.785922) scale(0.1 -0.1)">
       <defs>
        <path id="DejaVuSans-55" d="M 556 4666 
L 1191 4666 
L 1191 1831 
Q 1191 1081 1462 751 
Q 1734 422 2344 422 
Q 2950 422 3222 751 
Q 3494 1081 3494 1831 
L 3494 4666 
L 4128 4666 
L 4128 1753 
Q 4128 841 3676 375 
Q 3225 -91 2344 -91 
Q 1459 -91 1007 375 
Q 556 841 556 1753 
L 556 4666 
z
" transform="scale(0.015625)"/>
        <path id="DejaVuSans-6e" d="M 3513 2113 
L 3513 0 
L 2938 0 
L 2938 2094 
Q 2938 2591 2744 2837 
Q 2550 3084 2163 3084 
Q 1697 3084 1428 2787 
Q 1159 2491 1159 1978 
L 1159 0 
L 581 0 
L 581 3500 
L 1159 3500 
L 1159 2956 
Q 1366 3272 1645 3428 
Q 1925 3584 2291 3584 
Q 2894 3584 3203 3211 
Q 3513 2838 3513 2113 
z
" transform="scale(0.015625)"/>
        <path id="DejaVuSans-69" d="M 603 3500 
L 1178 3500 
L 1178 0 
L 603 0 
L 603 3500 
z
M 603 4863 
L 1178 4863 
L 1178 4134 
L 603 4134 
L 603 4863 
z
" transform="scale(0.015625)"/>
        <path id="DejaVuSans-50" d="M 1259 4147 
L 1259 2394 
L 2053 2394 
Q 2494 2394 2734 2622 
Q 2975 2850 2975 3272 
Q 2975 3691 2734 3919 
Q 2494 4147 2053 4147 
L 1259 4147 
z
M 628 4666 
L 2053 4666 
Q 2838 4666 3239 4311 
Q 3641 3956 3641 3272 
Q 3641 2581 3239 2228 
Q 2838 1875 2053 1875 
L 1259 1875 
L 1259 0 
L 628 0 
L 628 4666 
z
" transform="scale(0.015625)"/>
        <path id="DejaVuSans-72" d="M 2631 2963 
Q 2534 3019 2420 3045 
Q 2306 3072 2169 3072 
Q 1681 3072 1420 2755 
Q 1159 2438 1159 1844 
L 1159 0 
L 581 0 
L 581 3500 
L 1159 3500 
L 1159 2956 
Q 1341 3275 1631 3429 
Q 1922 3584 2338 3584 
Q 2397 3584 2469 3576 
Q 2541 3569 2628 3553 
L 2631 2963 
z
" transform="scale(0.015625)"/>
        <path id="DejaVuSans-6f" d="M 1959 3097 
Q 1497 3097 1228 2736 
Q 959 2375 959 1747 
Q 959 1119 1226 758 
Q 1494 397 1959 397 
Q 2419 397 2687 759 
Q 2956 1122 2956 1747 
Q 2956 2369 2687 2733 
Q 2419 3097 1959 3097 
z
M 1959 3584 
Q 2709 3584 3137 3096 
Q 3566 2609 3566 1747 
Q 3566 888 3137 398 
Q 2709 -91 1959 -91 
Q 1206 -91 779 398 
Q 353 888 353 1747 
Q 353 2609 779 3096 
Q 1206 3584 1959 3584 
z
" transform="scale(0.015625)"/>
        <path id="DejaVuSans-74" d="M 1172 4494 
L 1172 3500 
L 2356 3500 
L 2356 3053 
L 1172 3053 
L 1172 1153 
Q 1172 725 1289 603 
Q 1406 481 1766 481 
L 2356 481 
L 2356 0 
L 1766 0 
Q 1100 0 847 248 
Q 594 497 594 1153 
L 594 3053 
L 172 3053 
L 172 3500 
L 594 3500 
L 594 4494 
L 1172 4494 
z
" transform="scale(0.015625)"/>
       </defs>
       <use xlink:href="#DejaVuSans-55"/>
       <use xlink:href="#DejaVuSans-6e" x="73.193359"/>
       <use xlink:href="#DejaVuSans-69" x="136.572266"/>
       <use xlink:href="#DejaVuSans-50" x="164.355469"/>
       <use xlink:href="#DejaVuSans-72" x="222.908203"/>
       <use xlink:href="#DejaVuSans-6f" x="261.771484"/>
       <use xlink:href="#DejaVuSans-74" x="322.953125"/>
      </g>
     </g>
    </g>
    <g id="ytick_6">
     <g id="line2d_2"/>
     <g id="text_2">
      <!-- DeepLocPro -->
      <g transform="translate(140.004343 254.068471) scale(0.1 -0.1)">
       <defs>
        <path id="DejaVuSans-44" d="M 1259 4147 
L 1259 519 
L 2022 519 
Q 2988 519 3436 956 
Q 3884 1394 3884 2338 
Q 3884 3275 3436 3711 
Q 2988 4147 2022 4147 
L 1259 4147 
z
M 628 4666 
L 1925 4666 
Q 3281 4666 3915 4102 
Q 4550 3538 4550 2338 
Q 4550 1131 3912 565 
Q 3275 0 1925 0 
L 628 0 
L 628 4666 
z
" transform="scale(0.015625)"/>
        <path id="DejaVuSans-65" d="M 3597 1894 
L 3597 1613 
L 953 1613 
Q 991 1019 1311 708 
Q 1631 397 2203 397 
Q 2534 397 2845 478 
Q 3156 559 3463 722 
L 3463 178 
Q 3153 47 2828 -22 
Q 2503 -91 2169 -91 
Q 1331 -91 842 396 
Q 353 884 353 1716 
Q 353 2575 817 3079 
Q 1281 3584 2069 3584 
Q 2775 3584 3186 3129 
Q 3597 2675 3597 1894 
z
M 3022 2063 
Q 3016 2534 2758 2815 
Q 2500 3097 2075 3097 
Q 1594 3097 1305 2825 
Q 1016 2553 972 2059 
L 3022 2063 
z
" transform="scale(0.015625)"/>
        <path id="DejaVuSans-70" d="M 1159 525 
L 1159 -1331 
L 581 -1331 
L 581 3500 
L 1159 3500 
L 1159 2969 
Q 1341 3281 1617 3432 
Q 1894 3584 2278 3584 
Q 2916 3584 3314 3078 
Q 3713 2572 3713 1747 
Q 3713 922 3314 415 
Q 2916 -91 2278 -91 
Q 1894 -91 1617 61 
Q 1341 213 1159 525 
z
M 3116 1747 
Q 3116 2381 2855 2742 
Q 2594 3103 2138 3103 
Q 1681 3103 1420 2742 
Q 1159 2381 1159 1747 
Q 1159 1113 1420 752 
Q 1681 391 2138 391 
Q 2594 391 2855 752 
Q 3116 1113 3116 1747 
z
" transform="scale(0.015625)"/>
        <path id="DejaVuSans-4c" d="M 628 4666 
L 1259 4666 
L 1259 531 
L 3531 531 
L 3531 0 
L 628 0 
L 628 4666 
z
" transform="scale(0.015625)"/>
        <path id="DejaVuSans-63" d="M 3122 3366 
L 3122 2828 
Q 2878 2963 2633 3030 
Q 2388 3097 2138 3097 
Q 1578 3097 1268 2742 
Q 959 2388 959 1747 
Q 959 1106 1268 751 
Q 1578 397 2138 397 
Q 2388 397 2633 464 
Q 2878 531 3122 666 
L 3122 134 
Q 2881 22 2623 -34 
Q 2366 -91 2075 -91 
Q 1284 -91 818 406 
Q 353 903 353 1747 
Q 353 2603 823 3093 
Q 1294 3584 2113 3584 
Q 2378 3584 2631 3529 
Q 2884 3475 3122 3366 
z
" transform="scale(0.015625)"/>
       </defs>
       <use xlink:href="#DejaVuSans-44"/>
       <use xlink:href="#DejaVuSans-65" x="77.001953"/>
       <use xlink:href="#DejaVuSans-65" x="138.525391"/>
       <use xlink:href="#DejaVuSans-70" x="200.048828"/>
       <use xlink:href="#DejaVuSans-4c" x="263.525391"/>
       <use xlink:href="#DejaVuSans-6f" x="317.488281"/>
       <use xlink:href="#DejaVuSans-63" x="378.669922"/>
       <use xlink:href="#DejaVuSans-50" x="433.650391"/>
       <use xlink:href="#DejaVuSans-72" x="492.203125"/>
       <use xlink:href="#DejaVuSans-6f" x="531.066406"/>
      </g>
     </g>
    </g>
    <g id="ytick_7">
     <g id="line2d_3"/>
     <g id="text_3">
      <!-- DeepTMHMM -->
      <g transform="translate(133.36528 232.351019) scale(0.1 -0.1)">
       <defs>
        <path id="DejaVuSans-54" d="M -19 4666 
L 3928 4666 
L 3928 4134 
L 2272 4134 
L 2272 0 
L 1638 0 
L 1638 4134 
L -19 4134 
L -19 4666 
z
" transform="scale(0.015625)"/>
        <path id="DejaVuSans-4d" d="M 628 4666 
L 1569 4666 
L 2759 1491 
L 3956 4666 
L 4897 4666 
L 4897 0 
L 4281 0 
L 4281 4097 
L 3078 897 
L 2444 897 
L 1241 4097 
L 1241 0 
L 628 0 
L 628 4666 
z
" transform="scale(0.015625)"/>
        <path id="DejaVuSans-48" d="M 628 4666 
L 1259 4666 
L 1259 2753 
L 3553 2753 
L 3553 4666 
L 4184 4666 
L 4184 0 
L 3553 0 
L 3553 2222 
L 1259 2222 
L 1259 0 
L 628 0 
L 628 4666 
z
" transform="scale(0.015625)"/>
       </defs>
       <use xlink:href="#DejaVuSans-44"/>
       <use xlink:href="#DejaVuSans-65" x="77.001953"/>
       <use xlink:href="#DejaVuSans-65" x="138.525391"/>
       <use xlink:href="#DejaVuSans-70" x="200.048828"/>
       <use xlink:href="#DejaVuSans-54" x="263.525391"/>
       <use xlink:href="#DejaVuSans-4d" x="324.609375"/>
       <use xlink:href="#DejaVuSans-48" x="410.888672"/>
       <use xlink:href="#DejaVuSans-4d" x="486.083984"/>
       <use xlink:href="#DejaVuSans-4d" x="572.363281"/>
      </g>
     </g>
    </g>
    <g id="ytick_8">
     <g id="line2d_4"/>
     <g id="text_4">
      <!-- SignalP -->
      <g transform="translate(162.48403 210.633568) scale(0.1 -0.1)">
       <defs>
        <path id="DejaVuSans-53" d="M 3425 4513 
L 3425 3897 
Q 3066 4069 2747 4153 
Q 2428 4238 2131 4238 
Q 1616 4238 1336 4038 
Q 1056 3838 1056 3469 
Q 1056 3159 1242 3001 
Q 1428 2844 1947 2747 
L 2328 2669 
Q 3034 2534 3370 2195 
Q 3706 1856 3706 1288 
Q 3706 609 3251 259 
Q 2797 -91 1919 -91 
Q 1588 -91 1214 -16 
Q 841 59 441 206 
L 441 856 
Q 825 641 1194 531 
Q 1563 422 1919 422 
Q 2459 422 2753 634 
Q 3047 847 3047 1241 
Q 3047 1584 2836 1778 
Q 2625 1972 2144 2069 
L 1759 2144 
Q 1053 2284 737 2584 
Q 422 2884 422 3419 
Q 422 4038 858 4394 
Q 1294 4750 2059 4750 
Q 2388 4750 2728 4690 
Q 3069 4631 3425 4513 
z
" transform="scale(0.015625)"/>
        <path id="DejaVuSans-67" d="M 2906 1791 
Q 2906 2416 2648 2759 
Q 2391 3103 1925 3103 
Q 1463 3103 1205 2759 
Q 947 2416 947 1791 
Q 947 1169 1205 825 
Q 1463 481 1925 481 
Q 2391 481 2648 825 
Q 2906 1169 2906 1791 
z
M 3481 434 
Q 3481 -459 3084 -895 
Q 2688 -1331 1869 -1331 
Q 1566 -1331 1297 -1286 
Q 1028 -1241 775 -1147 
L 775 -588 
Q 1028 -725 1275 -790 
Q 1522 -856 1778 -856 
Q 2344 -856 2625 -561 
Q 2906 -266 2906 331 
L 2906 616 
Q 2728 306 2450 153 
Q 2172 0 1784 0 
Q 1141 0 747 490 
Q 353 981 353 1791 
Q 353 2603 747 3093 
Q 1141 3584 1784 3584 
Q 2172 3584 2450 3431 
Q 2728 3278 2906 2969 
L 2906 3500 
L 3481 3500 
L 3481 434 
z
" transform="scale(0.015625)"/>
        <path id="DejaVuSans-61" d="M 2194 1759 
Q 1497 1759 1228 1600 
Q 959 1441 959 1056 
Q 959 750 1161 570 
Q 1363 391 1709 391 
Q 2188 391 2477 730 
Q 2766 1069 2766 1631 
L 2766 1759 
L 2194 1759 
z
M 3341 1997 
L 3341 0 
L 2766 0 
L 2766 531 
Q 2569 213 2275 61 
Q 1981 -91 1556 -91 
Q 1019 -91 701 211 
Q 384 513 384 1019 
Q 384 1609 779 1909 
Q 1175 2209 1959 2209 
L 2766 2209 
L 2766 2266 
Q 2766 2663 2505 2880 
Q 2244 3097 1772 3097 
Q 1472 3097 1187 3025 
Q 903 2953 641 2809 
L 641 3341 
Q 956 3463 1253 3523 
Q 1550 3584 1831 3584 
Q 2591 3584 2966 3190 
Q 3341 2797 3341 1997 
z
" transform="scale(0.015625)"/>
        <path id="DejaVuSans-6c" d="M 603 4863 
L 1178 4863 
L 1178 0 
L 603 0 
L 603 4863 
z
" transform="scale(0.015625)"/>
       </defs>
       <use xlink:href="#DejaVuSans-53"/>
       <use xlink:href="#DejaVuSans-69" x="63.476562"/>
       <use xlink:href="#DejaVuSans-67" x="91.259766"/>
       <use xlink:href="#DejaVuSans-6e" x="154.736328"/>
       <use xlink:href="#DejaVuSans-61" x="218.115234"/>
       <use xlink:href="#DejaVuSans-6c" x="279.394531"/>
       <use xlink:href="#DejaVuSans-50" x="307.177734"/>
      </g>
     </g>
    </g>
   </g>
   <g id="LineCollection_1">
    <path d="M 214.994434 271.986704 
L 214.994434 271.986704 
" clip-path="url(#pa2126ca632)" style="fill: none; stroke: #000000; stroke-width: 2"/>
    <path d="M 239.518367 250.269252 
L 239.518367 250.269252 
" clip-path="url(#pa2126ca632)" style="fill: none; stroke: #000000; stroke-width: 2"/>
    <path d="M 264.042301 228.551801 
L 264.042301 228.551801 
" clip-path="url(#pa2126ca632)" style="fill: none; stroke: #000000; stroke-width: 2"/>
    <path d="M 288.566234 206.834349 
L 288.566234 206.834349 
" clip-path="url(#pa2126ca632)" style="fill: none; stroke: #000000; stroke-width: 2"/>
    <path d="M 313.090167 271.986704 
L 313.090167 250.269252 
" clip-path="url(#pa2126ca632)" style="fill: none; stroke: #000000; stroke-width: 2"/>
    <path d="M 337.6141 250.269252 
L 337.6141 228.551801 
" clip-path="url(#pa2126ca632)" style="fill: none; stroke: #000000; stroke-width: 2"/>
    <path d="M 362.138033 228.551801 
L 362.138033 206.834349 
" clip-path="url(#pa2126ca632)" style="fill: none; stroke: #000000; stroke-width: 2"/>
   </g>
   <g id="PathCollection_1">
    <defs>
     <path id="C0_0_c4fbbc06a0" d="M 0 5.6 
C 1.485137 5.6 2.909647 5.009949 3.959798 3.959798 
C 5.009949 2.909647 5.6 1.485137 5.6 -0 
C 5.6 -1.485137 5.009949 -2.909647 3.959798 -3.959798 
C 2.909647 -5.009949 1.485137 -5.6 0 -5.6 
C -1.485137 -5.6 -2.909647 -5.009949 -3.959798 -3.959798 
C -5.009949 -2.909647 -5.6 -1.485137 -5.6 0 
C -5.6 1.485137 -5.009949 2.909647 -3.959798 3.959798 
C -2.909647 5.009949 -1.485137 5.6 0 5.6 
z
"/>
    </defs>
    <g clip-path="url(#pa2126ca632)">
     <use xlink:href="#C0_0_c4fbbc06a0" x="214.994434" y="271.986704" style="stroke: #000000"/>
    </g>
    <g clip-path="url(#pa2126ca632)">
     <use xlink:href="#C0_0_c4fbbc06a0" x="214.994434" y="250.269252" style="fill-opacity: 0.180392"/>
    </g>
    <g clip-path="url(#pa2126ca632)">
     <use xlink:href="#C0_0_c4fbbc06a0" x="214.994434" y="228.551801" style="fill-opacity: 0.180392"/>
    </g>
    <g clip-path="url(#pa2126ca632)">
     <use xlink:href="#C0_0_c4fbbc06a0" x="214.994434" y="206.834349" style="fill-opacity: 0.180392"/>
    </g>
    <g clip-path="url(#pa2126ca632)">
     <use xlink:href="#C0_0_c4fbbc06a0" x="239.518367" y="271.986704" style="fill-opacity: 0.180392"/>
    </g>
    <g clip-path="url(#pa2126ca632)">
     <use xlink:href="#C0_0_c4fbbc06a0" x="239.518367" y="250.269252" style="stroke: #000000"/>
    </g>
    <g clip-path="url(#pa2126ca632)">
     <use xlink:href="#C0_0_c4fbbc06a0" x="239.518367" y="228.551801" style="fill-opacity: 0.180392"/>
    </g>
    <g clip-path="url(#pa2126ca632)">
     <use xlink:href="#C0_0_c4fbbc06a0" x="239.518367" y="206.834349" style="fill-opacity: 0.180392"/>
    </g>
    <g clip-path="url(#pa2126ca632)">
     <use xlink:href="#C0_0_c4fbbc06a0" x="264.042301" y="271.986704" style="fill-opacity: 0.180392"/>
    </g>
    <g clip-path="url(#pa2126ca632)">
     <use xlink:href="#C0_0_c4fbbc06a0" x="264.042301" y="250.269252" style="fill-opacity: 0.180392"/>
    </g>
    <g clip-path="url(#pa2126ca632)">
     <use xlink:href="#C0_0_c4fbbc06a0" x="264.042301" y="228.551801" style="stroke: #000000"/>
    </g>
    <g clip-path="url(#pa2126ca632)">
     <use xlink:href="#C0_0_c4fbbc06a0" x="264.042301" y="206.834349" style="fill-opacity: 0.180392"/>
    </g>
    <g clip-path="url(#pa2126ca632)">
     <use xlink:href="#C0_0_c4fbbc06a0" x="288.566234" y="271.986704" style="fill-opacity: 0.180392"/>
    </g>
    <g clip-path="url(#pa2126ca632)">
     <use xlink:href="#C0_0_c4fbbc06a0" x="288.566234" y="250.269252" style="fill-opacity: 0.180392"/>
    </g>
    <g clip-path="url(#pa2126ca632)">
     <use xlink:href="#C0_0_c4fbbc06a0" x="288.566234" y="228.551801" style="fill-opacity: 0.180392"/>
    </g>
    <g clip-path="url(#pa2126ca632)">
     <use xlink:href="#C0_0_c4fbbc06a0" x="288.566234" y="206.834349" style="stroke: #000000"/>
    </g>
    <g clip-path="url(#pa2126ca632)">
     <use xlink:href="#C0_0_c4fbbc06a0" x="313.090167" y="271.986704" style="stroke: #000000"/>
    </g>
    <g clip-path="url(#pa2126ca632)">
     <use xlink:href="#C0_0_c4fbbc06a0" x="313.090167" y="250.269252" style="stroke: #000000"/>
    </g>
    <g clip-path="url(#pa2126ca632)">
     <use xlink:href="#C0_0_c4fbbc06a0" x="313.090167" y="228.551801" style="fill-opacity: 0.180392"/>
    </g>
    <g clip-path="url(#pa2126ca632)">
     <use xlink:href="#C0_0_c4fbbc06a0" x="313.090167" y="206.834349" style="fill-opacity: 0.180392"/>
    </g>
    <g clip-path="url(#pa2126ca632)">
     <use xlink:href="#C0_0_c4fbbc06a0" x="337.6141" y="271.986704" style="fill-opacity: 0.180392"/>
    </g>
    <g clip-path="url(#pa2126ca632)">
     <use xlink:href="#C0_0_c4fbbc06a0" x="337.6141" y="250.269252" style="stroke: #000000"/>
    </g>
    <g clip-path="url(#pa2126ca632)">
     <use xlink:href="#C0_0_c4fbbc06a0" x="337.6141" y="228.551801" style="stroke: #000000"/>
    </g>
    <g clip-path="url(#pa2126ca632)">
     <use xlink:href="#C0_0_c4fbbc06a0" x="337.6141" y="206.834349" style="fill-opacity: 0.180392"/>
    </g>
    <g clip-path="url(#pa2126ca632)">
     <use xlink:href="#C0_0_c4fbbc06a0" x="362.138033" y="271.986704" style="fill-opacity: 0.180392"/>
    </g>
    <g clip-path="url(#pa2126ca632)">
     <use xlink:href="#C0_0_c4fbbc06a0" x="362.138033" y="250.269252" style="fill-opacity: 0.180392"/>
    </g>
    <g clip-path="url(#pa2126ca632)">
     <use xlink:href="#C0_0_c4fbbc06a0" x="362.138033" y="228.551801" style="stroke: #000000"/>
    </g>
    <g clip-path="url(#pa2126ca632)">
     <use xlink:href="#C0_0_c4fbbc06a0" x="362.138033" y="206.834349" style="stroke: #000000"/>
    </g>
   </g>
  </g>
  <g id="axes_3">
   <g id="patch_6">
    <path d="M 98.057143 277.416066 
L 52 277.416066 
L 52 266.557341 
L 98.057143 266.557341 
z
" clip-path="url(#p04e7d2b321)" style="stroke: #000000; stroke-linejoin: miter"/>
   </g>
   <g id="patch_7">
    <path d="M 98.057143 255.698615 
L 96.47694 255.698615 
L 96.47694 244.839889 
L 98.057143 244.839889 
z
" clip-path="url(#p04e7d2b321)" style="stroke: #000000; stroke-linejoin: miter"/>
   </g>
   <g id="patch_8">
    <path d="M 98.057143 233.981163 
L 97.710269 233.981163 
L 97.710269 223.122438 
L 98.057143 223.122438 
z
" clip-path="url(#p04e7d2b321)" style="stroke: #000000; stroke-linejoin: miter"/>
   </g>
   <g id="patch_9">
    <path d="M 98.057143 212.263712 
L 97.748811 212.263712 
L 97.748811 201.404986 
L 98.057143 201.404986 
z
" clip-path="url(#p04e7d2b321)" style="stroke: #000000; stroke-linejoin: miter"/>
   </g>
   <g id="matplotlib.axis_4">
    <g id="xtick_1">
     <g id="line2d_5">
      <path d="M 98.057143 284.8 
L 98.057143 194.021053 
" clip-path="url(#p04e7d2b321)" style="fill: none; stroke: #b0b0b0; stroke-width: 0.8; stroke-linecap: square"/>
     </g>
     <g id="line2d_6">
      <defs>
       <path id="m21b7d52b00" d="M 0 0 
L 0 3.5 
" style="stroke: #000000; stroke-width: 0.8"/>
      </defs>
      <g>
       <use xlink:href="#m21b7d52b00" x="98.057143" y="284.8" style="stroke: #000000; stroke-width: 0.8"/>
      </g>
     </g>
     <g id="text_5">
      <!-- 0 -->
      <g transform="translate(94.875893 299.398438) scale(0.1 -0.1)">
       <defs>
        <path id="DejaVuSans-30" d="M 2034 4250 
Q 1547 4250 1301 3770 
Q 1056 3291 1056 2328 
Q 1056 1369 1301 889 
Q 1547 409 2034 409 
Q 2525 409 2770 889 
Q 3016 1369 3016 2328 
Q 3016 3291 2770 3770 
Q 2525 4250 2034 4250 
z
M 2034 4750 
Q 2819 4750 3233 4129 
Q 3647 3509 3647 2328 
Q 3647 1150 3233 529 
Q 2819 -91 2034 -91 
Q 1250 -91 836 529 
Q 422 1150 422 2328 
Q 422 3509 836 4129 
Q 1250 4750 2034 4750 
z
" transform="scale(0.015625)"/>
       </defs>
       <use xlink:href="#DejaVuSans-30"/>
      </g>
     </g>
    </g>
    <g id="xtick_2">
     <g id="line2d_7">
      <path d="M 59.515601 284.8 
L 59.515601 194.021053 
" clip-path="url(#p04e7d2b321)" style="fill: none; stroke: #b0b0b0; stroke-width: 0.8; stroke-linecap: square"/>
     </g>
     <g id="line2d_8">
      <g>
       <use xlink:href="#m21b7d52b00" x="59.515601" y="284.8" style="stroke: #000000; stroke-width: 0.8"/>
      </g>
     </g>
     <g id="text_6">
      <!-- 1000 -->
      <g transform="translate(46.790601 299.398438) scale(0.1 -0.1)">
       <defs>
        <path id="DejaVuSans-31" d="M 794 531 
L 1825 531 
L 1825 4091 
L 703 3866 
L 703 4441 
L 1819 4666 
L 2450 4666 
L 2450 531 
L 3481 531 
L 3481 0 
L 794 0 
L 794 531 
z
" transform="scale(0.015625)"/>
       </defs>
       <use xlink:href="#DejaVuSans-31"/>
       <use xlink:href="#DejaVuSans-30" x="63.623047"/>
       <use xlink:href="#DejaVuSans-30" x="127.246094"/>
       <use xlink:href="#DejaVuSans-30" x="190.869141"/>
      </g>
     </g>
    </g>
   </g>
   <g id="patch_10">
    <path d="M 52 284.8 
L 98.057143 284.8 
" style="fill: none; stroke: #000000; stroke-width: 0.8; stroke-linejoin: miter; stroke-linecap: square"/>
   </g>
   <g id="text_7">
    <!-- 1195 -->
    <g transform="translate(26.0664 274.746079) scale(0.1 -0.1)">
     <defs>
      <path id="DejaVuSans-39" d="M 703 97 
L 703 672 
Q 941 559 1184 500 
Q 1428 441 1663 441 
Q 2288 441 2617 861 
Q 2947 1281 2994 2138 
Q 2813 1869 2534 1725 
Q 2256 1581 1919 1581 
Q 1219 1581 811 2004 
Q 403 2428 403 3163 
Q 403 3881 828 4315 
Q 1253 4750 1959 4750 
Q 2769 4750 3195 4129 
Q 3622 3509 3622 2328 
Q 3622 1225 3098 567 
Q 2575 -91 1691 -91 
Q 1453 -91 1209 -44 
Q 966 3 703 97 
z
M 1959 2075 
Q 2384 2075 2632 2365 
Q 2881 2656 2881 3163 
Q 2881 3666 2632 3958 
Q 2384 4250 1959 4250 
Q 1534 4250 1286 3958 
Q 1038 3666 1038 3163 
Q 1038 2656 1286 2365 
Q 1534 2075 1959 2075 
z
" transform="scale(0.015625)"/>
      <path id="DejaVuSans-35" d="M 691 4666 
L 3169 4666 
L 3169 4134 
L 1269 4134 
L 1269 2991 
Q 1406 3038 1543 3061 
Q 1681 3084 1819 3084 
Q 2600 3084 3056 2656 
Q 3513 2228 3513 1497 
Q 3513 744 3044 326 
Q 2575 -91 1722 -91 
Q 1428 -91 1123 -41 
Q 819 9 494 109 
L 494 744 
Q 775 591 1075 516 
Q 1375 441 1709 441 
Q 2250 441 2565 725 
Q 2881 1009 2881 1497 
Q 2881 1984 2565 2268 
Q 2250 2553 1709 2553 
Q 1456 2553 1204 2497 
Q 953 2441 691 2322 
L 691 4666 
z
" transform="scale(0.015625)"/>
     </defs>
     <use xlink:href="#DejaVuSans-31"/>
     <use xlink:href="#DejaVuSans-31" x="63.623047"/>
     <use xlink:href="#DejaVuSans-39" x="127.246094"/>
     <use xlink:href="#DejaVuSans-35" x="190.869141"/>
    </g>
   </g>
   <g id="text_8">
    <!-- 41 -->
    <g transform="translate(83.26834 253.028627) scale(0.1 -0.1)">
     <defs>
      <path id="DejaVuSans-34" d="M 2419 4116 
L 825 1625 
L 2419 1625 
L 2419 4116 
z
M 2253 4666 
L 3047 4666 
L 3047 1625 
L 3713 1625 
L 3713 1100 
L 3047 1100 
L 3047 0 
L 2419 0 
L 2419 1100 
L 313 1100 
L 313 1709 
L 2253 4666 
z
" transform="scale(0.015625)"/>
     </defs>
     <use xlink:href="#DejaVuSans-34"/>
     <use xlink:href="#DejaVuSans-31" x="63.623047"/>
    </g>
   </g>
   <g id="text_9">
    <!-- 9 -->
    <g transform="translate(90.864169 231.311176) scale(0.1 -0.1)">
     <use xlink:href="#DejaVuSans-39"/>
    </g>
   </g>
   <g id="text_10">
    <!-- 8 -->
    <g transform="translate(90.902711 209.593724) scale(0.1 -0.1)">
     <defs>
      <path id="DejaVuSans-38" d="M 2034 2216 
Q 1584 2216 1326 1975 
Q 1069 1734 1069 1313 
Q 1069 891 1326 650 
Q 1584 409 2034 409 
Q 2484 409 2743 651 
Q 3003 894 3003 1313 
Q 3003 1734 2745 1975 
Q 2488 2216 2034 2216 
z
M 1403 2484 
Q 997 2584 770 2862 
Q 544 3141 544 3541 
Q 544 4100 942 4425 
Q 1341 4750 2034 4750 
Q 2731 4750 3128 4425 
Q 3525 4100 3525 3541 
Q 3525 3141 3298 2862 
Q 3072 2584 2669 2484 
Q 3125 2378 3379 2068 
Q 3634 1759 3634 1313 
Q 3634 634 3220 271 
Q 2806 -91 2034 -91 
Q 1263 -91 848 271 
Q 434 634 434 1313 
Q 434 1759 690 2068 
Q 947 2378 1403 2484 
z
M 1172 3481 
Q 1172 3119 1398 2916 
Q 1625 2713 2034 2713 
Q 2441 2713 2670 2916 
Q 2900 3119 2900 3481 
Q 2900 3844 2670 4047 
Q 2441 4250 2034 4250 
Q 1625 4250 1398 4047 
Q 1172 3844 1172 3481 
z
" transform="scale(0.015625)"/>
     </defs>
     <use xlink:href="#DejaVuSans-38"/>
    </g>
   </g>
  </g>
  <g id="axes_4">
   <g id="patch_11">
    <path d="M 202.732468 181.052632 
L 374.4 181.052632 
L 374.4 38.4 
L 202.732468 38.4 
z
" style="fill: #ffffff"/>
   </g>
   <g id="matplotlib.axis_5">
    <g id="ytick_9">
     <g id="line2d_9">
      <path d="M 202.732468 181.052632 
L 374.4 181.052632 
" clip-path="url(#p16231553a2)" style="fill: none; stroke: #b0b0b0; stroke-width: 0.8; stroke-linecap: square"/>
     </g>
     <g id="line2d_10">
      <defs>
       <path id="mbfd9f468a0" d="M 0 0 
L -3.5 0 
" style="stroke: #000000; stroke-width: 0.8"/>
      </defs>
      <g>
       <use xlink:href="#mbfd9f468a0" x="202.732468" y="181.052632" style="stroke: #000000; stroke-width: 0.8"/>
      </g>
     </g>
     <g id="text_11">
      <!-- 0 -->
      <g transform="translate(189.369968 184.85185) scale(0.1 -0.1)">
       <use xlink:href="#DejaVuSans-30"/>
      </g>
     </g>
    </g>
    <g id="ytick_10">
     <g id="line2d_11">
      <path d="M 202.732468 158.219077 
L 374.4 158.219077 
" clip-path="url(#p16231553a2)" style="fill: none; stroke: #b0b0b0; stroke-width: 0.8; stroke-linecap: square"/>
     </g>
     <g id="line2d_12">
      <g>
       <use xlink:href="#mbfd9f468a0" x="202.732468" y="158.219077" style="stroke: #000000; stroke-width: 0.8"/>
      </g>
     </g>
     <g id="text_12">
      <!-- 200 -->
      <g transform="translate(176.644968 162.018296) scale(0.1 -0.1)">
       <defs>
        <path id="DejaVuSans-32" d="M 1228 531 
L 3431 531 
L 3431 0 
L 469 0 
L 469 531 
Q 828 903 1448 1529 
Q 2069 2156 2228 2338 
Q 2531 2678 2651 2914 
Q 2772 3150 2772 3378 
Q 2772 3750 2511 3984 
Q 2250 4219 1831 4219 
Q 1534 4219 1204 4116 
Q 875 4013 500 3803 
L 500 4441 
Q 881 4594 1212 4672 
Q 1544 4750 1819 4750 
Q 2544 4750 2975 4387 
Q 3406 4025 3406 3419 
Q 3406 3131 3298 2873 
Q 3191 2616 2906 2266 
Q 2828 2175 2409 1742 
Q 1991 1309 1228 531 
z
" transform="scale(0.015625)"/>
       </defs>
       <use xlink:href="#DejaVuSans-32"/>
       <use xlink:href="#DejaVuSans-30" x="63.623047"/>
       <use xlink:href="#DejaVuSans-30" x="127.246094"/>
      </g>
     </g>
    </g>
    <g id="ytick_11">
     <g id="line2d_13">
      <path d="M 202.732468 135.385523 
L 374.4 135.385523 
" clip-path="url(#p16231553a2)" style="fill: none; stroke: #b0b0b0; stroke-width: 0.8; stroke-linecap: square"/>
     </g>
     <g id="line2d_14">
      <g>
       <use xlink:href="#mbfd9f468a0" x="202.732468" y="135.385523" style="stroke: #000000; stroke-width: 0.8"/>
      </g>
     </g>
     <g id="text_13">
      <!-- 400 -->
      <g transform="translate(176.644968 139.184741) scale(0.1 -0.1)">
       <use xlink:href="#DejaVuSans-34"/>
       <use xlink:href="#DejaVuSans-30" x="63.623047"/>
       <use xlink:href="#DejaVuSans-30" x="127.246094"/>
      </g>
     </g>
    </g>
    <g id="ytick_12">
     <g id="line2d_15">
      <path d="M 202.732468 112.551968 
L 374.4 112.551968 
" clip-path="url(#p16231553a2)" style="fill: none; stroke: #b0b0b0; stroke-width: 0.8; stroke-linecap: square"/>
     </g>
     <g id="line2d_16">
      <g>
       <use xlink:href="#mbfd9f468a0" x="202.732468" y="112.551968" style="stroke: #000000; stroke-width: 0.8"/>
      </g>
     </g>
     <g id="text_14">
      <!-- 600 -->
      <g transform="translate(176.644968 116.351187) scale(0.1 -0.1)">
       <defs>
        <path id="DejaVuSans-36" d="M 2113 2584 
Q 1688 2584 1439 2293 
Q 1191 2003 1191 1497 
Q 1191 994 1439 701 
Q 1688 409 2113 409 
Q 2538 409 2786 701 
Q 3034 994 3034 1497 
Q 3034 2003 2786 2293 
Q 2538 2584 2113 2584 
z
M 3366 4563 
L 3366 3988 
Q 3128 4100 2886 4159 
Q 2644 4219 2406 4219 
Q 1781 4219 1451 3797 
Q 1122 3375 1075 2522 
Q 1259 2794 1537 2939 
Q 1816 3084 2150 3084 
Q 2853 3084 3261 2657 
Q 3669 2231 3669 1497 
Q 3669 778 3244 343 
Q 2819 -91 2113 -91 
Q 1303 -91 875 529 
Q 447 1150 447 2328 
Q 447 3434 972 4092 
Q 1497 4750 2381 4750 
Q 2619 4750 2861 4703 
Q 3103 4656 3366 4563 
z
" transform="scale(0.015625)"/>
       </defs>
       <use xlink:href="#DejaVuSans-36"/>
       <use xlink:href="#DejaVuSans-30" x="63.623047"/>
       <use xlink:href="#DejaVuSans-30" x="127.246094"/>
      </g>
     </g>
    </g>
    <g id="ytick_13">
     <g id="line2d_17">
      <path d="M 202.732468 89.718414 
L 374.4 89.718414 
" clip-path="url(#p16231553a2)" style="fill: none; stroke: #b0b0b0; stroke-width: 0.8; stroke-linecap: square"/>
     </g>
     <g id="line2d_18">
      <g>
       <use xlink:href="#mbfd9f468a0" x="202.732468" y="89.718414" style="stroke: #000000; stroke-width: 0.8"/>
      </g>
     </g>
     <g id="text_15">
      <!-- 800 -->
      <g transform="translate(176.644968 93.517632) scale(0.1 -0.1)">
       <use xlink:href="#DejaVuSans-38"/>
       <use xlink:href="#DejaVuSans-30" x="63.623047"/>
       <use xlink:href="#DejaVuSans-30" x="127.246094"/>
      </g>
     </g>
    </g>
    <g id="ytick_14">
     <g id="line2d_19">
      <path d="M 202.732468 66.884859 
L 374.4 66.884859 
" clip-path="url(#p16231553a2)" style="fill: none; stroke: #b0b0b0; stroke-width: 0.8; stroke-linecap: square"/>
     </g>
     <g id="line2d_20">
      <g>
       <use xlink:href="#mbfd9f468a0" x="202.732468" y="66.884859" style="stroke: #000000; stroke-width: 0.8"/>
      </g>
     </g>
     <g id="text_16">
      <!-- 1000 -->
      <g transform="translate(170.282468 70.684078) scale(0.1 -0.1)">
       <use xlink:href="#DejaVuSans-31"/>
       <use xlink:href="#DejaVuSans-30" x="63.623047"/>
       <use xlink:href="#DejaVuSans-30" x="127.246094"/>
       <use xlink:href="#DejaVuSans-30" x="190.869141"/>
      </g>
     </g>
    </g>
    <g id="ytick_15">
     <g id="line2d_21">
      <path d="M 202.732468 44.051305 
L 374.4 44.051305 
" clip-path="url(#p16231553a2)" style="fill: none; stroke: #b0b0b0; stroke-width: 0.8; stroke-linecap: square"/>
     </g>
     <g id="line2d_22">
      <g>
       <use xlink:href="#mbfd9f468a0" x="202.732468" y="44.051305" style="stroke: #000000; stroke-width: 0.8"/>
      </g>
     </g>
     <g id="text_17">
      <!-- 1200 -->
      <g transform="translate(170.282468 47.850523) scale(0.1 -0.1)">
       <use xlink:href="#DejaVuSans-31"/>
       <use xlink:href="#DejaVuSans-32" x="63.623047"/>
       <use xlink:href="#DejaVuSans-30" x="127.246094"/>
       <use xlink:href="#DejaVuSans-30" x="190.869141"/>
      </g>
     </g>
    </g>
    <g id="text_18">
     <!-- Intersection size -->
     <g transform="translate(164.20278 150.75366) rotate(-90) scale(0.1 -0.1)">
      <defs>
       <path id="DejaVuSans-49" d="M 628 4666 
L 1259 4666 
L 1259 0 
L 628 0 
L 628 4666 
z
" transform="scale(0.015625)"/>
       <path id="DejaVuSans-73" d="M 2834 3397 
L 2834 2853 
Q 2591 2978 2328 3040 
Q 2066 3103 1784 3103 
Q 1356 3103 1142 2972 
Q 928 2841 928 2578 
Q 928 2378 1081 2264 
Q 1234 2150 1697 2047 
L 1894 2003 
Q 2506 1872 2764 1633 
Q 3022 1394 3022 966 
Q 3022 478 2636 193 
Q 2250 -91 1575 -91 
Q 1294 -91 989 -36 
Q 684 19 347 128 
L 347 722 
Q 666 556 975 473 
Q 1284 391 1588 391 
Q 1994 391 2212 530 
Q 2431 669 2431 922 
Q 2431 1156 2273 1281 
Q 2116 1406 1581 1522 
L 1381 1569 
Q 847 1681 609 1914 
Q 372 2147 372 2553 
Q 372 3047 722 3315 
Q 1072 3584 1716 3584 
Q 2034 3584 2315 3537 
Q 2597 3491 2834 3397 
z
" transform="scale(0.015625)"/>
       <path id="DejaVuSans-20" transform="scale(0.015625)"/>
       <path id="DejaVuSans-7a" d="M 353 3500 
L 3084 3500 
L 3084 2975 
L 922 459 
L 3084 459 
L 3084 0 
L 275 0 
L 275 525 
L 2438 3041 
L 353 3041 
L 353 3500 
z
" transform="scale(0.015625)"/>
      </defs>
      <use xlink:href="#DejaVuSans-49"/>
      <use xlink:href="#DejaVuSans-6e" x="29.492188"/>
      <use xlink:href="#DejaVuSans-74" x="92.871094"/>
      <use xlink:href="#DejaVuSans-65" x="132.080078"/>
      <use xlink:href="#DejaVuSans-72" x="193.603516"/>
      <use xlink:href="#DejaVuSans-73" x="234.716797"/>
      <use xlink:href="#DejaVuSans-65" x="286.816406"/>
      <use xlink:href="#DejaVuSans-63" x="348.339844"/>
      <use xlink:href="#DejaVuSans-74" x="403.320312"/>
      <use xlink:href="#DejaVuSans-69" x="442.529297"/>
      <use xlink:href="#DejaVuSans-6f" x="470.3125"/>
      <use xlink:href="#DejaVuSans-6e" x="531.494141"/>
      <use xlink:href="#DejaVuSans-20" x="594.873047"/>
      <use xlink:href="#DejaVuSans-73" x="626.660156"/>
      <use xlink:href="#DejaVuSans-69" x="678.759766"/>
      <use xlink:href="#DejaVuSans-7a" x="706.542969"/>
      <use xlink:href="#DejaVuSans-65" x="759.033203"/>
     </g>
    </g>
   </g>
   <g id="patch_12">
    <path d="M 202.732468 181.052632 
L 202.732468 38.4 
" style="fill: none; stroke: #000000; stroke-width: 0.8; stroke-linejoin: miter; stroke-linecap: square"/>
   </g>
   <g id="text_19">
    <!-- 1190 -->
    <g transform="translate(202.269434 41.686769) scale(0.1 -0.1)">
     <use xlink:href="#DejaVuSans-31"/>
     <use xlink:href="#DejaVuSans-31" x="63.623047"/>
     <use xlink:href="#DejaVuSans-39" x="127.246094"/>
     <use xlink:href="#DejaVuSans-30" x="190.869141"/>
    </g>
   </g>
   <g id="text_20">
    <!-- 35 -->
    <g transform="translate(233.155867 173.550546) scale(0.1 -0.1)">
     <defs>
      <path id="DejaVuSans-33" d="M 2597 2516 
Q 3050 2419 3304 2112 
Q 3559 1806 3559 1356 
Q 3559 666 3084 287 
Q 2609 -91 1734 -91 
Q 1441 -91 1130 -33 
Q 819 25 488 141 
L 488 750 
Q 750 597 1062 519 
Q 1375 441 1716 441 
Q 2309 441 2620 675 
Q 2931 909 2931 1356 
Q 2931 1769 2642 2001 
Q 2353 2234 1838 2234 
L 1294 2234 
L 1294 2753 
L 1863 2753 
Q 2328 2753 2575 2939 
Q 2822 3125 2822 3475 
Q 2822 3834 2567 4026 
Q 2313 4219 1838 4219 
Q 1578 4219 1281 4162 
Q 984 4106 628 3988 
L 628 4550 
Q 988 4650 1302 4700 
Q 1616 4750 1894 4750 
Q 2613 4750 3031 4423 
Q 3450 4097 3450 3541 
Q 3450 3153 3228 2886 
Q 3006 2619 2597 2516 
z
" transform="scale(0.015625)"/>
     </defs>
     <use xlink:href="#DejaVuSans-33"/>
     <use xlink:href="#DejaVuSans-35" x="63.623047"/>
    </g>
   </g>
   <g id="text_21">
    <!-- 2 -->
    <g transform="translate(260.861051 177.318082) scale(0.1 -0.1)">
     <use xlink:href="#DejaVuSans-32"/>
    </g>
   </g>
   <g id="text_22">
    <!-- 2 -->
    <g transform="translate(285.384984 177.318082) scale(0.1 -0.1)">
     <use xlink:href="#DejaVuSans-32"/>
    </g>
   </g>
   <g id="text_23">
    <!-- 5 -->
    <g transform="translate(309.908917 176.975579) scale(0.1 -0.1)">
     <use xlink:href="#DejaVuSans-35"/>
    </g>
   </g>
   <g id="text_24">
    <!-- 1 -->
    <g transform="translate(334.43285 177.43225) scale(0.1 -0.1)">
     <use xlink:href="#DejaVuSans-31"/>
    </g>
   </g>
   <g id="text_25">
    <!-- 6 -->
    <g transform="translate(358.956783 176.861411) scale(0.1 -0.1)">
     <use xlink:href="#DejaVuSans-36"/>
    </g>
   </g>
   <g id="patch_13">
    <path d="M 208.863451 181.052632 
L 221.125417 181.052632 
L 221.125417 45.192982 
L 208.863451 45.192982 
z
" clip-path="url(#p16231553a2)" style="stroke: #000000; stroke-linejoin: miter"/>
   </g>
   <g id="patch_14">
    <path d="M 233.387384 181.052632 
L 245.649351 181.052632 
L 245.649351 177.05676 
L 233.387384 177.05676 
z
" clip-path="url(#p16231553a2)" style="stroke: #000000; stroke-linejoin: miter"/>
   </g>
   <g id="patch_15">
    <path d="M 257.911317 181.052632 
L 270.173284 181.052632 
L 270.173284 180.824296 
L 257.911317 180.824296 
z
" clip-path="url(#p16231553a2)" style="stroke: #000000; stroke-linejoin: miter"/>
   </g>
   <g id="patch_16">
    <path d="M 282.43525 181.052632 
L 294.697217 181.052632 
L 294.697217 180.824296 
L 282.43525 180.824296 
z
" clip-path="url(#p16231553a2)" style="stroke: #000000; stroke-linejoin: miter"/>
   </g>
   <g id="patch_17">
    <path d="M 306.959184 181.052632 
L 319.22115 181.052632 
L 319.22115 180.481793 
L 306.959184 180.481793 
z
" clip-path="url(#p16231553a2)" style="stroke: #000000; stroke-linejoin: miter"/>
   </g>
   <g id="patch_18">
    <path d="M 331.483117 181.052632 
L 343.745083 181.052632 
L 343.745083 180.938464 
L 331.483117 180.938464 
z
" clip-path="url(#p16231553a2)" style="stroke: #000000; stroke-linejoin: miter"/>
   </g>
   <g id="patch_19">
    <path d="M 356.00705 181.052632 
L 368.269017 181.052632 
L 368.269017 180.367625 
L 356.00705 180.367625 
z
" clip-path="url(#p16231553a2)" style="stroke: #000000; stroke-linejoin: miter"/>
   </g>
  </g>
  <g id="text_26">
   <!-- Overlap of Secretion Prediction Methods -->
   <g transform="translate(67.129375 17.037812) scale(0.14 -0.14)">
    <defs>
     <path id="DejaVuSans-4f" d="M 2522 4238 
Q 1834 4238 1429 3725 
Q 1025 3213 1025 2328 
Q 1025 1447 1429 934 
Q 1834 422 2522 422 
Q 3209 422 3611 934 
Q 4013 1447 4013 2328 
Q 4013 3213 3611 3725 
Q 3209 4238 2522 4238 
z
M 2522 4750 
Q 3503 4750 4090 4092 
Q 4678 3434 4678 2328 
Q 4678 1225 4090 567 
Q 3503 -91 2522 -91 
Q 1538 -91 948 565 
Q 359 1222 359 2328 
Q 359 3434 948 4092 
Q 1538 4750 2522 4750 
z
" transform="scale(0.015625)"/>
     <path id="DejaVuSans-76" d="M 191 3500 
L 800 3500 
L 1894 563 
L 2988 3500 
L 3597 3500 
L 2284 0 
L 1503 0 
L 191 3500 
z
" transform="scale(0.015625)"/>
     <path id="DejaVuSans-66" d="M 2375 4863 
L 2375 4384 
L 1825 4384 
Q 1516 4384 1395 4259 
Q 1275 4134 1275 3809 
L 1275 3500 
L 2222 3500 
L 2222 3053 
L 1275 3053 
L 1275 0 
L 697 0 
L 697 3053 
L 147 3053 
L 147 3500 
L 697 3500 
L 697 3744 
Q 697 4328 969 4595 
Q 1241 4863 1831 4863 
L 2375 4863 
z
" transform="scale(0.015625)"/>
     <path id="DejaVuSans-64" d="M 2906 2969 
L 2906 4863 
L 3481 4863 
L 3481 0 
L 2906 0 
L 2906 525 
Q 2725 213 2448 61 
Q 2172 -91 1784 -91 
Q 1150 -91 751 415 
Q 353 922 353 1747 
Q 353 2572 751 3078 
Q 1150 3584 1784 3584 
Q 2172 3584 2448 3432 
Q 2725 3281 2906 2969 
z
M 947 1747 
Q 947 1113 1208 752 
Q 1469 391 1925 391 
Q 2381 391 2643 752 
Q 2906 1113 2906 1747 
Q 2906 2381 2643 2742 
Q 2381 3103 1925 3103 
Q 1469 3103 1208 2742 
Q 947 2381 947 1747 
z
" transform="scale(0.015625)"/>
     <path id="DejaVuSans-68" d="M 3513 2113 
L 3513 0 
L 2938 0 
L 2938 2094 
Q 2938 2591 2744 2837 
Q 2550 3084 2163 3084 
Q 1697 3084 1428 2787 
Q 1159 2491 1159 1978 
L 1159 0 
L 581 0 
L 581 4863 
L 1159 4863 
L 1159 2956 
Q 1366 3272 1645 3428 
Q 1925 3584 2291 3584 
Q 2894 3584 3203 3211 
Q 3513 2838 3513 2113 
z
" transform="scale(0.015625)"/>
    </defs>
    <use xlink:href="#DejaVuSans-4f"/>
    <use xlink:href="#DejaVuSans-76" x="78.710938"/>
    <use xlink:href="#DejaVuSans-65" x="137.890625"/>
    <use xlink:href="#DejaVuSans-72" x="199.414062"/>
    <use xlink:href="#DejaVuSans-6c" x="240.527344"/>
    <use xlink:href="#DejaVuSans-61" x="268.310547"/>
    <use xlink:href="#DejaVuSans-70" x="329.589844"/>
    <use xlink:href="#DejaVuSans-20" x="393.066406"/>
    <use xlink:href="#DejaVuSans-6f" x="424.853516"/>
    <use xlink:href="#DejaVuSans-66" x="486.035156"/>
    <use xlink:href="#DejaVuSans-20" x="521.240234"/>
    <use xlink:href="#DejaVuSans-53" x="553.027344"/>
    <use xlink:href="#DejaVuSans-65" x="616.503906"/>
    <use xlink:href="#DejaVuSans-63" x="678.027344"/>
    <use xlink:href="#DejaVuSans-72" x="733.007812"/>
    <use xlink:href="#DejaVuSans-65" x="771.871094"/>
    <use xlink:href="#DejaVuSans-74" x="833.394531"/>
    <use xlink:href="#DejaVuSans-69" x="872.603516"/>
    <use xlink:href="#DejaVuSans-6f" x="900.386719"/>
    <use xlink:href="#DejaVuSans-6e" x="961.568359"/>
    <use xlink:href="#DejaVuSans-20" x="1024.947266"/>
    <use xlink:href="#DejaVuSans-50" x="1056.734375"/>
    <use xlink:href="#DejaVuSans-72" x="1115.287109"/>
    <use xlink:href="#DejaVuSans-65" x="1154.150391"/>
    <use xlink:href="#DejaVuSans-64" x="1215.673828"/>
    <use xlink:href="#DejaVuSans-69" x="1279.150391"/>
    <use xlink:href="#DejaVuSans-63" x="1306.933594"/>
    <use xlink:href="#DejaVuSans-74" x="1361.914062"/>
    <use xlink:href="#DejaVuSans-69" x="1401.123047"/>
    <use xlink:href="#DejaVuSans-6f" x="1428.90625"/>
    <use xlink:href="#DejaVuSans-6e" x="1490.087891"/>
    <use xlink:href="#DejaVuSans-20" x="1553.466797"/>
    <use xlink:href="#DejaVuSans-4d" x="1585.253906"/>
    <use xlink:href="#DejaVuSans-65" x="1671.533203"/>
    <use xlink:href="#DejaVuSans-74" x="1733.056641"/>
    <use xlink:href="#DejaVuSans-68" x="1772.265625"/>
    <use xlink:href="#DejaVuSans-6f" x="1835.644531"/>
    <use xlink:href="#DejaVuSans-64" x="1896.826172"/>
    <use xlink:href="#DejaVuSans-73" x="1960.302734"/>
   </g>
  </g>
 </g>
 <defs>
  <clipPath id="p1cbb0122e8">
   <rect x="52" y="194.021053" width="322.4" height="90.778947"/>
  </clipPath>
  <clipPath id="pa2126ca632">
   <rect x="202.732468" y="194.021053" width="171.667532" height="90.778947"/>
  </clipPath>
  <clipPath id="p04e7d2b321">
   <rect x="52" y="194.021053" width="46.057143" height="90.778947"/>
  </clipPath>
  <clipPath id="p16231553a2">
   <rect x="202.732468" y="38.4" width="171.667532" height="142.652632"/>
  </clipPath>
 </defs>
</svg>
