<?xml version="1.0" encoding="utf-8" standalone="no"?>
<!DOCTYPE svg PUBLIC "-//W3C//DTD SVG 1.1//EN"
  "http://www.w3.org/Graphics/SVG/1.1/DTD/svg11.dtd">
<svg xmlns:xlink="http://www.w3.org/1999/xlink" width="460.8pt" height="345.6pt" viewBox="0 0 460.8 345.6" xmlns="http://www.w3.org/2000/svg" version="1.1">
 <metadata>
  <rdf:RDF xmlns:dc="http://purl.org/dc/elements/1.1/" xmlns:cc="http://creativecommons.org/ns#" xmlns:rdf="http://www.w3.org/1999/02/22-rdf-syntax-ns#">
   <cc:Work>
    <dc:type rdf:resource="http://purl.org/dc/dcmitype/StillImage"/>
    <dc:date>2025-07-29T13:55:17.079643</dc:date>
    <dc:format>image/svg+xml</dc:format>
    <dc:creator>
     <cc:Agent>
      <dc:title>Matplotlib v3.7.0, https://matplotlib.org/</dc:title>
     </cc:Agent>
    </dc:creator>
   </cc:Work>
  </rdf:RDF>
 </metadata>
 <defs>
  <style type="text/css">*{stroke-linejoin: round; stroke-linecap: butt}</style>
 </defs>
 <g id="figure_1">
  <g id="patch_1">
   <path d="M 0 345.6 
L 460.8 345.6 
L 460.8 0 
L 0 0 
z
" style="fill: #ffffff"/>
  </g>
  <g id="axes_1">
   <g id="patch_2">
    <path d="M 138.011339 189.031631 
C 137.388033 184.222223 137.075407 179.377631 137.075407 174.528 
C 137.075407 169.678369 137.388033 164.833777 138.011339 160.024369 
C 135.337042 158.082223 132.176974 156.917062 128.882007 156.658257 
C 125.587039 156.399452 122.283809 157.056949 119.339084 158.557745 
C 116.39436 160.05854 113.921316 162.344954 112.194544 165.163118 
C 110.467771 167.981282 109.553635 171.222884 109.553635 174.528 
C 109.553635 177.833116 110.467771 181.074718 112.194544 183.892882 
C 113.921316 186.711046 116.39436 188.99746 119.339084 190.498255 
C 122.283809 191.999051 125.587039 192.656548 128.882007 192.397743 
C 132.176974 192.138938 135.337042 190.973777 138.011339 189.031631 
" clip-path="url(#pa2c0e28d1b)" style="fill: #0000ff; opacity: 0.4"/>
   </g>
   <g id="patch_3">
    <path d="M 138.011339 160.024369 
C 140.300558 161.68686 142.163979 163.86796 143.448672 166.388668 
C 144.733365 168.909376 145.403198 171.698795 145.403198 174.528 
C 145.403198 177.357205 144.733365 180.146624 143.448672 182.667332 
C 142.163979 185.18804 140.300558 187.36914 138.011339 189.031631 
C 139.837336 203.120963 144.307771 216.739556 151.187167 229.17006 
C 158.066563 241.600565 167.231973 252.620824 178.200615 261.650355 
C 189.169257 270.679886 201.745101 277.557313 215.265724 281.920373 
C 228.786347 286.283433 243.010109 288.05415 257.187785 287.139253 
C 271.365461 286.224355 285.243669 282.640195 298.091384 276.575563 
C 310.939099 270.510932 322.526709 262.074217 332.243844 251.709816 
C 341.960979 241.345414 349.633977 229.238558 354.858667 216.026967 
C 360.083357 202.815375 362.766365 188.735165 362.766365 174.528 
C 362.766365 160.320835 360.083357 146.240625 354.858667 133.029033 
C 349.633977 119.817442 341.960979 107.710586 332.243844 97.346184 
C 322.526709 86.981783 310.939099 78.545068 298.091384 72.480437 
C 285.243669 66.415805 271.365461 62.831645 257.187785 61.916747 
C 243.010109 61.00185 228.786347 62.772567 215.265724 67.135627 
C 201.745101 71.498687 189.169257 78.376114 178.200615 87.405645 
C 167.231973 96.435176 158.066563 107.455435 151.187167 119.88594 
C 144.307771 132.316444 139.837336 145.935037 138.011339 160.024369 
" clip-path="url(#pa2c0e28d1b)" style="fill: #4682b4; opacity: 0.4"/>
   </g>
   <g id="patch_4">
    <path d="M 138.011339 189.031631 
C 140.300558 187.36914 142.163979 185.18804 143.448672 182.667332 
C 144.733365 180.146624 145.403198 177.357205 145.403198 174.528 
C 145.403198 171.698795 144.733365 168.909376 143.448672 166.388668 
C 142.163979 163.86796 140.300558 161.68686 138.011339 160.024369 
C 137.388033 164.833777 137.075407 169.678369 137.075407 174.528 
C 137.075407 179.377631 137.388033 184.222223 138.011339 189.031631 
" clip-path="url(#pa2c0e28d1b)" style="fill: #315bff; opacity: 0.4"/>
   </g>
   <g id="text_1">
    <!-- 25 -->
    <g transform="translate(116.952021 177.287375) scale(0.1 -0.1)">
     <defs>
      <path id="DejaVuSans-32" d="M 1228 531 
L 3431 531 
L 3431 0 
L 469 0 
L 469 531 
Q 828 903 1448 1529 
Q 2069 2156 2228 2338 
Q 2531 2678 2651 2914 
Q 2772 3150 2772 3378 
Q 2772 3750 2511 3984 
Q 2250 4219 1831 4219 
Q 1534 4219 1204 4116 
Q 875 4013 500 3803 
L 500 4441 
Q 881 4594 1212 4672 
Q 1544 4750 1819 4750 
Q 2544 4750 2975 4387 
Q 3406 4025 3406 3419 
Q 3406 3131 3298 2873 
Q 3191 2616 2906 2266 
Q 2828 2175 2409 1742 
Q 1991 1309 1228 531 
z
" transform="scale(0.015625)"/>
      <path id="DejaVuSans-35" d="M 691 4666 
L 3169 4666 
L 3169 4134 
L 1269 4134 
L 1269 2991 
Q 1406 3038 1543 3061 
Q 1681 3084 1819 3084 
Q 2600 3084 3056 2656 
Q 3513 2228 3513 1497 
Q 3513 744 3044 326 
Q 2575 -91 1722 -91 
Q 1428 -91 1123 -41 
Q 819 9 494 109 
L 494 744 
Q 775 591 1075 516 
Q 1375 441 1709 441 
Q 2250 441 2565 725 
Q 2881 1009 2881 1497 
Q 2881 1984 2565 2268 
Q 2250 2553 1709 2553 
Q 1456 2553 1204 2497 
Q 953 2441 691 2322 
L 691 4666 
z
" transform="scale(0.015625)"/>
     </defs>
     <use xlink:href="#DejaVuSans-32"/>
     <use xlink:href="#DejaVuSans-35" x="63.623047"/>
    </g>
   </g>
   <g id="text_2">
    <!-- 1184 -->
    <g transform="translate(241.359781 177.287375) scale(0.1 -0.1)">
     <defs>
      <path id="DejaVuSans-31" d="M 794 531 
L 1825 531 
L 1825 4091 
L 703 3866 
L 703 4441 
L 1819 4666 
L 2450 4666 
L 2450 531 
L 3481 531 
L 3481 0 
L 794 0 
L 794 531 
z
" transform="scale(0.015625)"/>
      <path id="DejaVuSans-38" d="M 2034 2216 
Q 1584 2216 1326 1975 
Q 1069 1734 1069 1313 
Q 1069 891 1326 650 
Q 1584 409 2034 409 
Q 2484 409 2743 651 
Q 3003 894 3003 1313 
Q 3003 1734 2745 1975 
Q 2488 2216 2034 2216 
z
M 1403 2484 
Q 997 2584 770 2862 
Q 544 3141 544 3541 
Q 544 4100 942 4425 
Q 1341 4750 2034 4750 
Q 2731 4750 3128 4425 
Q 3525 4100 3525 3541 
Q 3525 3141 3298 2862 
Q 3072 2584 2669 2484 
Q 3125 2378 3379 2068 
Q 3634 1759 3634 1313 
Q 3634 634 3220 271 
Q 2806 -91 2034 -91 
Q 1263 -91 848 271 
Q 434 634 434 1313 
Q 434 1759 690 2068 
Q 947 2378 1403 2484 
z
M 1172 3481 
Q 1172 3119 1398 2916 
Q 1625 2713 2034 2713 
Q 2441 2713 2670 2916 
Q 2900 3119 2900 3481 
Q 2900 3844 2670 4047 
Q 2441 4250 2034 4250 
Q 1625 4250 1398 4047 
Q 1172 3844 1172 3481 
z
" transform="scale(0.015625)"/>
      <path id="DejaVuSans-34" d="M 2419 4116 
L 825 1625 
L 2419 1625 
L 2419 4116 
z
M 2253 4666 
L 3047 4666 
L 3047 1625 
L 3713 1625 
L 3713 1100 
L 3047 1100 
L 3047 0 
L 2419 0 
L 2419 1100 
L 313 1100 
L 313 1709 
L 2253 4666 
z
" transform="scale(0.015625)"/>
     </defs>
     <use xlink:href="#DejaVuSans-31"/>
     <use xlink:href="#DejaVuSans-31" x="63.623047"/>
     <use xlink:href="#DejaVuSans-38" x="127.246094"/>
     <use xlink:href="#DejaVuSans-34" x="190.869141"/>
    </g>
   </g>
   <g id="text_3">
    <!-- 5 -->
    <g transform="translate(138.058053 177.287375) scale(0.1 -0.1)">
     <use xlink:href="#DejaVuSans-35"/>
    </g>
   </g>
  </g>
 </g>
 <defs>
  <clipPath id="pa2c0e28d1b">
   <rect x="89.343114" y="41.472" width="293.633772" height="266.112"/>
  </clipPath>
 </defs>
</svg>
