<?xml version="1.0" encoding="utf-8" standalone="no"?>
<!DOCTYPE svg PUBLIC "-//W3C//DTD SVG 1.1//EN"
  "http://www.w3.org/Graphics/SVG/1.1/DTD/svg11.dtd">
<svg xmlns:xlink="http://www.w3.org/1999/xlink" width="576pt" height="432pt" viewBox="0 0 576 432" xmlns="http://www.w3.org/2000/svg" version="1.1">
 <metadata>
  <rdf:RDF xmlns:dc="http://purl.org/dc/elements/1.1/" xmlns:cc="http://creativecommons.org/ns#" xmlns:rdf="http://www.w3.org/1999/02/22-rdf-syntax-ns#">
   <cc:Work>
    <dc:type rdf:resource="http://purl.org/dc/dcmitype/StillImage"/>
    <dc:date>2025-08-18T12:37:47.925225</dc:date>
    <dc:format>image/svg+xml</dc:format>
    <dc:creator>
     <cc:Agent>
      <dc:title>Matplotlib v3.7.0, https://matplotlib.org/</dc:title>
     </cc:Agent>
    </dc:creator>
   </cc:Work>
  </rdf:RDF>
 </metadata>
 <defs>
  <style type="text/css">*{stroke-linejoin: round; stroke-linecap: butt}</style>
 </defs>
 <g id="figure_1">
  <g id="patch_1">
   <path d="M 0 432 
L 576 432 
L 576 0 
L 0 0 
z
" style="fill: #ffffff"/>
  </g>
  <g id="axes_1">
   <g id="patch_2">
    <path d="M 245.508 239.952 
C 245.508 224.541214 242.472411 209.280278 236.574959 195.042568 
C 230.677506 180.804859 222.032881 167.867262 211.135809 156.970191 
C 200.238738 146.073119 187.301141 137.428494 173.063432 131.531041 
C 158.825722 125.633589 143.564786 122.598 128.154 122.598 
C 112.743214 122.598 97.482278 125.633589 83.244568 131.531041 
C 69.006859 137.428494 56.069262 146.073119 45.172191 156.970191 
C 34.275119 167.867262 25.630494 180.804859 19.733041 195.042568 
C 13.835589 209.280278 10.8 224.541214 10.8 239.952 
C 10.8 255.362786 13.835589 270.623722 19.733041 284.861432 
C 25.630494 299.099141 34.275119 312.036738 45.172191 322.933809 
C 56.069262 333.830881 69.006859 342.475506 83.244568 348.372959 
C 97.482278 354.270411 112.743214 357.306 128.154 357.306 
C 143.564786 357.306 158.825722 354.270411 173.063432 348.372959 
C 187.301141 342.475506 200.238738 333.830881 211.135809 322.933809 
C 222.032881 312.036738 230.677506 299.099141 236.574959 284.861432 
C 242.472411 270.623722 245.508 255.362786 245.508 239.952 
M 128.154 239.952 
C 128.154 239.952 128.154 239.952 128.154 239.952 
C 128.154 239.952 128.154 239.952 128.154 239.952 
C 128.154 239.952 128.154 239.952 128.154 239.952 
C 128.154 239.952 128.154 239.952 128.154 239.952 
C 128.154 239.952 128.154 239.952 128.154 239.952 
C 128.154 239.952 128.154 239.952 128.154 239.952 
C 128.154 239.952 128.154 239.952 128.154 239.952 
C 128.154 239.952 128.154 239.952 128.154 239.952 
C 128.154 239.952 128.154 239.952 128.154 239.952 
C 128.154 239.952 128.154 239.952 128.154 239.952 
C 128.154 239.952 128.154 239.952 128.154 239.952 
C 128.154 239.952 128.154 239.952 128.154 239.952 
C 128.154 239.952 128.154 239.952 128.154 239.952 
C 128.154 239.952 128.154 239.952 128.154 239.952 
C 128.154 239.952 128.154 239.952 128.154 239.952 
C 128.154 239.952 128.154 239.952 128.154 239.952 
z
" style="fill: #ffffff"/>
   </g>
   <g id="patch_3">
    <path d="M 128.154 239.952 
C 128.154 239.952 128.154 239.952 128.154 239.952 
C 128.154 239.952 128.154 239.952 128.154 239.952 
L 238.267829 220.807299 
C 238.817182 223.966991 239.23028 227.148863 239.505977 230.344083 
C 239.781674 233.539302 239.919714 236.744908 239.919714 239.952 
z
" clip-path="url(#p6aa11c0e47)" style="fill: #a1c9f4; stroke: #ffffff; stroke-linejoin: miter"/>
   </g>
   <g id="patch_4">
    <path d="M 128.154 239.952 
C 128.154 239.952 128.154 239.952 128.154 239.952 
C 128.154 239.952 128.154 239.952 128.154 239.952 
L 234.103352 204.366755 
C 235.004301 207.049186 235.803055 209.764865 236.497885 212.507921 
C 237.192716 215.250977 237.783122 218.019432 238.267829 220.807299 
z
" clip-path="url(#p6aa11c0e47)" style="fill: #ffb482; stroke: #ffffff; stroke-linejoin: miter"/>
   </g>
   <g id="patch_5">
    <path d="M 128.154 239.952 
C 128.154 239.952 128.154 239.952 128.154 239.952 
C 128.154 239.952 128.154 239.952 128.154 239.952 
L 229.491274 192.810386 
C 230.366484 194.691767 231.18913 196.597157 231.958257 198.524339 
C 232.727384 200.451521 233.442693 202.399748 234.103352 204.366755 
z
" clip-path="url(#p6aa11c0e47)" style="fill: #8de5a1; stroke: #ffffff; stroke-linejoin: miter"/>
   </g>
   <g id="patch_6">
    <path d="M 128.154 239.952 
C 128.154 239.952 128.154 239.952 128.154 239.952 
C 128.154 239.952 128.154 239.952 128.154 239.952 
L 225.898113 185.751785 
C 226.538433 186.906532 227.15824 188.072535 227.757241 189.249246 
C 228.356242 190.425956 228.934344 191.61319 229.491274 192.810386 
z
" clip-path="url(#p6aa11c0e47)" style="fill: #ff9f9b; stroke: #ffffff; stroke-linejoin: miter"/>
   </g>
   <g id="patch_7">
    <path d="M 128.154 239.952 
C 128.154 239.952 128.154 239.952 128.154 239.952 
C 128.154 239.952 128.154 239.952 128.154 239.952 
L 222.729551 180.394968 
C 223.282379 181.272849 223.822956 182.158384 224.351126 183.051317 
C 224.879297 183.944249 225.395009 184.844492 225.898113 185.751785 
z
" clip-path="url(#p6aa11c0e47)" style="fill: #d0bbff; stroke: #ffffff; stroke-linejoin: miter"/>
   </g>
   <g id="patch_8">
    <path d="M 128.154 239.952 
C 128.154 239.952 128.154 239.952 128.154 239.952 
C 128.154 239.952 128.154 239.952 128.154 239.952 
C 128.154 239.952 128.154 239.952 128.154 239.952 
C 128.154 239.952 128.154 239.952 128.154 239.952 
C 128.154 239.952 128.154 239.952 128.154 239.952 
C 128.154 239.952 128.154 239.952 128.154 239.952 
C 128.154 239.952 128.154 239.952 128.154 239.952 
C 128.154 239.952 128.154 239.952 128.154 239.952 
C 128.154 239.952 128.154 239.952 128.154 239.952 
C 128.154 239.952 128.154 239.952 128.154 239.952 
C 128.154 239.952 128.154 239.952 128.154 239.952 
C 128.154 239.952 128.154 239.952 128.154 239.952 
C 128.154 239.952 128.154 239.952 128.154 239.952 
C 128.154 239.952 128.154 239.952 128.154 239.952 
C 128.154 239.952 128.154 239.952 128.154 239.952 
C 128.154 239.952 128.154 239.952 128.154 239.952 
L 239.919714 239.952 
C 239.919714 253.308908 237.525326 266.558293 232.850366 279.070356 
C 228.175406 291.58242 221.29514 303.155718 212.536616 313.240124 
C 203.778091 323.324529 193.282321 331.757684 181.548212 338.138725 
C 169.814104 344.519766 157.030575 348.745958 143.805282 350.616413 
C 130.579989 352.486868 117.125857 351.971471 104.082418 349.094722 
C 91.038979 346.217973 78.616231 341.026187 67.404681 333.766152 
C 56.19313 326.506116 46.373281 317.294717 38.411914 306.569812 
C 30.450546 295.844906 24.475836 283.779163 20.771788 270.946119 
C 17.06774 258.113076 15.693988 244.719342 16.715832 231.401579 
C 17.737677 218.083815 21.138667 205.056437 26.757138 192.938692 
C 32.375608 180.820946 40.121104 169.807926 49.625448 160.423128 
C 59.129792 151.038331 70.239966 143.432849 82.427855 137.968205 
C 94.615744 132.50356 107.685125 129.267733 121.014755 128.414535 
C 134.344385 127.561338 147.719658 129.104506 160.504791 132.970688 
C 173.289924 136.836869 185.279077 142.963818 195.902356 151.060295 
C 206.525634 159.156772 215.612004 169.092424 222.729551 180.394968 
z
" clip-path="url(#p6aa11c0e47)" style="fill: #debb9b; stroke: #ffffff; stroke-linejoin: miter"/>
   </g>
   <g id="matplotlib.axis_1"/>
   <g id="matplotlib.axis_2"/>
   <g id="patch_9">
    <path d="M 245.508 239.952 
C 245.508 224.541214 242.472411 209.280278 236.574959 195.042568 
C 230.677506 180.804859 222.032881 167.867262 211.135809 156.970191 
C 200.238738 146.073119 187.301141 137.428494 173.063432 131.531041 
C 158.825722 125.633589 143.564786 122.598 128.154 122.598 
C 112.743214 122.598 97.482278 125.633589 83.244568 131.531041 
C 69.006859 137.428494 56.069262 146.073119 45.172191 156.970191 
C 34.275119 167.867262 25.630494 180.804859 19.733041 195.042568 
C 13.835589 209.280278 10.8 224.541214 10.8 239.952 
C 10.8 255.362786 13.835589 270.623722 19.733041 284.861432 
C 25.630494 299.099141 34.275119 312.036738 45.172191 322.933809 
C 56.069262 333.830881 69.006859 342.475506 83.244568 348.372959 
C 97.482278 354.270411 112.743214 357.306 128.154 357.306 
C 143.564786 357.306 158.825722 354.270411 173.063432 348.372959 
C 187.301141 342.475506 200.238738 333.830881 211.135809 322.933809 
C 222.032881 312.036738 230.677506 299.099141 236.574959 284.861432 
C 242.472411 270.623722 245.508 255.362786 245.508 239.952 
" style="fill: none; stroke: #000000; stroke-width: 0.8; stroke-linejoin: miter; stroke-linecap: square"/>
   </g>
   <g id="text_1">
    <!-- Species_SecretedTaxa Distribution (Pie Chart) -->
    <g transform="translate(-8.930063 93.1272) scale(0.12 -0.12)">
     <defs>
      <path id="DejaVuSans-53" d="M 3425 4513 
L 3425 3897 
Q 3066 4069 2747 4153 
Q 2428 4238 2131 4238 
Q 1616 4238 1336 4038 
Q 1056 3838 1056 3469 
Q 1056 3159 1242 3001 
Q 1428 2844 1947 2747 
L 2328 2669 
Q 3034 2534 3370 2195 
Q 3706 1856 3706 1288 
Q 3706 609 3251 259 
Q 2797 -91 1919 -91 
Q 1588 -91 1214 -16 
Q 841 59 441 206 
L 441 856 
Q 825 641 1194 531 
Q 1563 422 1919 422 
Q 2459 422 2753 634 
Q 3047 847 3047 1241 
Q 3047 1584 2836 1778 
Q 2625 1972 2144 2069 
L 1759 2144 
Q 1053 2284 737 2584 
Q 422 2884 422 3419 
Q 422 4038 858 4394 
Q 1294 4750 2059 4750 
Q 2388 4750 2728 4690 
Q 3069 4631 3425 4513 
z
" transform="scale(0.015625)"/>
      <path id="DejaVuSans-70" d="M 1159 525 
L 1159 -1331 
L 581 -1331 
L 581 3500 
L 1159 3500 
L 1159 2969 
Q 1341 3281 1617 3432 
Q 1894 3584 2278 3584 
Q 2916 3584 3314 3078 
Q 3713 2572 3713 1747 
Q 3713 922 3314 415 
Q 2916 -91 2278 -91 
Q 1894 -91 1617 61 
Q 1341 213 1159 525 
z
M 3116 1747 
Q 3116 2381 2855 2742 
Q 2594 3103 2138 3103 
Q 1681 3103 1420 2742 
Q 1159 2381 1159 1747 
Q 1159 1113 1420 752 
Q 1681 391 2138 391 
Q 2594 391 2855 752 
Q 3116 1113 3116 1747 
z
" transform="scale(0.015625)"/>
      <path id="DejaVuSans-65" d="M 3597 1894 
L 3597 1613 
L 953 1613 
Q 991 1019 1311 708 
Q 1631 397 2203 397 
Q 2534 397 2845 478 
Q 3156 559 3463 722 
L 3463 178 
Q 3153 47 2828 -22 
Q 2503 -91 2169 -91 
Q 1331 -91 842 396 
Q 353 884 353 1716 
Q 353 2575 817 3079 
Q 1281 3584 2069 3584 
Q 2775 3584 3186 3129 
Q 3597 2675 3597 1894 
z
M 3022 2063 
Q 3016 2534 2758 2815 
Q 2500 3097 2075 3097 
Q 1594 3097 1305 2825 
Q 1016 2553 972 2059 
L 3022 2063 
z
" transform="scale(0.015625)"/>
      <path id="DejaVuSans-63" d="M 3122 3366 
L 3122 2828 
Q 2878 2963 2633 3030 
Q 2388 3097 2138 3097 
Q 1578 3097 1268 2742 
Q 959 2388 959 1747 
Q 959 1106 1268 751 
Q 1578 397 2138 397 
Q 2388 397 2633 464 
Q 2878 531 3122 666 
L 3122 134 
Q 2881 22 2623 -34 
Q 2366 -91 2075 -91 
Q 1284 -91 818 406 
Q 353 903 353 1747 
Q 353 2603 823 3093 
Q 1294 3584 2113 3584 
Q 2378 3584 2631 3529 
Q 2884 3475 3122 3366 
z
" transform="scale(0.015625)"/>
      <path id="DejaVuSans-69" d="M 603 3500 
L 1178 3500 
L 1178 0 
L 603 0 
L 603 3500 
z
M 603 4863 
L 1178 4863 
L 1178 4134 
L 603 4134 
L 603 4863 
z
" transform="scale(0.015625)"/>
      <path id="DejaVuSans-73" d="M 2834 3397 
L 2834 2853 
Q 2591 2978 2328 3040 
Q 2066 3103 1784 3103 
Q 1356 3103 1142 2972 
Q 928 2841 928 2578 
Q 928 2378 1081 2264 
Q 1234 2150 1697 2047 
L 1894 2003 
Q 2506 1872 2764 1633 
Q 3022 1394 3022 966 
Q 3022 478 2636 193 
Q 2250 -91 1575 -91 
Q 1294 -91 989 -36 
Q 684 19 347 128 
L 347 722 
Q 666 556 975 473 
Q 1284 391 1588 391 
Q 1994 391 2212 530 
Q 2431 669 2431 922 
Q 2431 1156 2273 1281 
Q 2116 1406 1581 1522 
L 1381 1569 
Q 847 1681 609 1914 
Q 372 2147 372 2553 
Q 372 3047 722 3315 
Q 1072 3584 1716 3584 
Q 2034 3584 2315 3537 
Q 2597 3491 2834 3397 
z
" transform="scale(0.015625)"/>
      <path id="DejaVuSans-5f" d="M 3263 -1063 
L 3263 -1509 
L -63 -1509 
L -63 -1063 
L 3263 -1063 
z
" transform="scale(0.015625)"/>
      <path id="DejaVuSans-72" d="M 2631 2963 
Q 2534 3019 2420 3045 
Q 2306 3072 2169 3072 
Q 1681 3072 1420 2755 
Q 1159 2438 1159 1844 
L 1159 0 
L 581 0 
L 581 3500 
L 1159 3500 
L 1159 2956 
Q 1341 3275 1631 3429 
Q 1922 3584 2338 3584 
Q 2397 3584 2469 3576 
Q 2541 3569 2628 3553 
L 2631 2963 
z
" transform="scale(0.015625)"/>
      <path id="DejaVuSans-74" d="M 1172 4494 
L 1172 3500 
L 2356 3500 
L 2356 3053 
L 1172 3053 
L 1172 1153 
Q 1172 725 1289 603 
Q 1406 481 1766 481 
L 2356 481 
L 2356 0 
L 1766 0 
Q 1100 0 847 248 
Q 594 497 594 1153 
L 594 3053 
L 172 3053 
L 172 3500 
L 594 3500 
L 594 4494 
L 1172 4494 
z
" transform="scale(0.015625)"/>
      <path id="DejaVuSans-64" d="M 2906 2969 
L 2906 4863 
L 3481 4863 
L 3481 0 
L 2906 0 
L 2906 525 
Q 2725 213 2448 61 
Q 2172 -91 1784 -91 
Q 1150 -91 751 415 
Q 353 922 353 1747 
Q 353 2572 751 3078 
Q 1150 3584 1784 3584 
Q 2172 3584 2448 3432 
Q 2725 3281 2906 2969 
z
M 947 1747 
Q 947 1113 1208 752 
Q 1469 391 1925 391 
Q 2381 391 2643 752 
Q 2906 1113 2906 1747 
Q 2906 2381 2643 2742 
Q 2381 3103 1925 3103 
Q 1469 3103 1208 2742 
Q 947 2381 947 1747 
z
" transform="scale(0.015625)"/>
      <path id="DejaVuSans-54" d="M -19 4666 
L 3928 4666 
L 3928 4134 
L 2272 4134 
L 2272 0 
L 1638 0 
L 1638 4134 
L -19 4134 
L -19 4666 
z
" transform="scale(0.015625)"/>
      <path id="DejaVuSans-61" d="M 2194 1759 
Q 1497 1759 1228 1600 
Q 959 1441 959 1056 
Q 959 750 1161 570 
Q 1363 391 1709 391 
Q 2188 391 2477 730 
Q 2766 1069 2766 1631 
L 2766 1759 
L 2194 1759 
z
M 3341 1997 
L 3341 0 
L 2766 0 
L 2766 531 
Q 2569 213 2275 61 
Q 1981 -91 1556 -91 
Q 1019 -91 701 211 
Q 384 513 384 1019 
Q 384 1609 779 1909 
Q 1175 2209 1959 2209 
L 2766 2209 
L 2766 2266 
Q 2766 2663 2505 2880 
Q 2244 3097 1772 3097 
Q 1472 3097 1187 3025 
Q 903 2953 641 2809 
L 641 3341 
Q 956 3463 1253 3523 
Q 1550 3584 1831 3584 
Q 2591 3584 2966 3190 
Q 3341 2797 3341 1997 
z
" transform="scale(0.015625)"/>
      <path id="DejaVuSans-78" d="M 3513 3500 
L 2247 1797 
L 3578 0 
L 2900 0 
L 1881 1375 
L 863 0 
L 184 0 
L 1544 1831 
L 300 3500 
L 978 3500 
L 1906 2253 
L 2834 3500 
L 3513 3500 
z
" transform="scale(0.015625)"/>
      <path id="DejaVuSans-20" transform="scale(0.015625)"/>
      <path id="DejaVuSans-44" d="M 1259 4147 
L 1259 519 
L 2022 519 
Q 2988 519 3436 956 
Q 3884 1394 3884 2338 
Q 3884 3275 3436 3711 
Q 2988 4147 2022 4147 
L 1259 4147 
z
M 628 4666 
L 1925 4666 
Q 3281 4666 3915 4102 
Q 4550 3538 4550 2338 
Q 4550 1131 3912 565 
Q 3275 0 1925 0 
L 628 0 
L 628 4666 
z
" transform="scale(0.015625)"/>
      <path id="DejaVuSans-62" d="M 3116 1747 
Q 3116 2381 2855 2742 
Q 2594 3103 2138 3103 
Q 1681 3103 1420 2742 
Q 1159 2381 1159 1747 
Q 1159 1113 1420 752 
Q 1681 391 2138 391 
Q 2594 391 2855 752 
Q 3116 1113 3116 1747 
z
M 1159 2969 
Q 1341 3281 1617 3432 
Q 1894 3584 2278 3584 
Q 2916 3584 3314 3078 
Q 3713 2572 3713 1747 
Q 3713 922 3314 415 
Q 2916 -91 2278 -91 
Q 1894 -91 1617 61 
Q 1341 213 1159 525 
L 1159 0 
L 581 0 
L 581 4863 
L 1159 4863 
L 1159 2969 
z
" transform="scale(0.015625)"/>
      <path id="DejaVuSans-75" d="M 544 1381 
L 544 3500 
L 1119 3500 
L 1119 1403 
Q 1119 906 1312 657 
Q 1506 409 1894 409 
Q 2359 409 2629 706 
Q 2900 1003 2900 1516 
L 2900 3500 
L 3475 3500 
L 3475 0 
L 2900 0 
L 2900 538 
Q 2691 219 2414 64 
Q 2138 -91 1772 -91 
Q 1169 -91 856 284 
Q 544 659 544 1381 
z
M 1991 3584 
L 1991 3584 
z
" transform="scale(0.015625)"/>
      <path id="DejaVuSans-6f" d="M 1959 3097 
Q 1497 3097 1228 2736 
Q 959 2375 959 1747 
Q 959 1119 1226 758 
Q 1494 397 1959 397 
Q 2419 397 2687 759 
Q 2956 1122 2956 1747 
Q 2956 2369 2687 2733 
Q 2419 3097 1959 3097 
z
M 1959 3584 
Q 2709 3584 3137 3096 
Q 3566 2609 3566 1747 
Q 3566 888 3137 398 
Q 2709 -91 1959 -91 
Q 1206 -91 779 398 
Q 353 888 353 1747 
Q 353 2609 779 3096 
Q 1206 3584 1959 3584 
z
" transform="scale(0.015625)"/>
      <path id="DejaVuSans-6e" d="M 3513 2113 
L 3513 0 
L 2938 0 
L 2938 2094 
Q 2938 2591 2744 2837 
Q 2550 3084 2163 3084 
Q 1697 3084 1428 2787 
Q 1159 2491 1159 1978 
L 1159 0 
L 581 0 
L 581 3500 
L 1159 3500 
L 1159 2956 
Q 1366 3272 1645 3428 
Q 1925 3584 2291 3584 
Q 2894 3584 3203 3211 
Q 3513 2838 3513 2113 
z
" transform="scale(0.015625)"/>
      <path id="DejaVuSans-28" d="M 1984 4856 
Q 1566 4138 1362 3434 
Q 1159 2731 1159 2009 
Q 1159 1288 1364 580 
Q 1569 -128 1984 -844 
L 1484 -844 
Q 1016 -109 783 600 
Q 550 1309 550 2009 
Q 550 2706 781 3412 
Q 1013 4119 1484 4856 
L 1984 4856 
z
" transform="scale(0.015625)"/>
      <path id="DejaVuSans-50" d="M 1259 4147 
L 1259 2394 
L 2053 2394 
Q 2494 2394 2734 2622 
Q 2975 2850 2975 3272 
Q 2975 3691 2734 3919 
Q 2494 4147 2053 4147 
L 1259 4147 
z
M 628 4666 
L 2053 4666 
Q 2838 4666 3239 4311 
Q 3641 3956 3641 3272 
Q 3641 2581 3239 2228 
Q 2838 1875 2053 1875 
L 1259 1875 
L 1259 0 
L 628 0 
L 628 4666 
z
" transform="scale(0.015625)"/>
      <path id="DejaVuSans-43" d="M 4122 4306 
L 4122 3641 
Q 3803 3938 3442 4084 
Q 3081 4231 2675 4231 
Q 1875 4231 1450 3742 
Q 1025 3253 1025 2328 
Q 1025 1406 1450 917 
Q 1875 428 2675 428 
Q 3081 428 3442 575 
Q 3803 722 4122 1019 
L 4122 359 
Q 3791 134 3420 21 
Q 3050 -91 2638 -91 
Q 1578 -91 968 557 
Q 359 1206 359 2328 
Q 359 3453 968 4101 
Q 1578 4750 2638 4750 
Q 3056 4750 3426 4639 
Q 3797 4528 4122 4306 
z
" transform="scale(0.015625)"/>
      <path id="DejaVuSans-68" d="M 3513 2113 
L 3513 0 
L 2938 0 
L 2938 2094 
Q 2938 2591 2744 2837 
Q 2550 3084 2163 3084 
Q 1697 3084 1428 2787 
Q 1159 2491 1159 1978 
L 1159 0 
L 581 0 
L 581 4863 
L 1159 4863 
L 1159 2956 
Q 1366 3272 1645 3428 
Q 1925 3584 2291 3584 
Q 2894 3584 3203 3211 
Q 3513 2838 3513 2113 
z
" transform="scale(0.015625)"/>
      <path id="DejaVuSans-29" d="M 513 4856 
L 1013 4856 
Q 1481 4119 1714 3412 
Q 1947 2706 1947 2009 
Q 1947 1309 1714 600 
Q 1481 -109 1013 -844 
L 513 -844 
Q 928 -128 1133 580 
Q 1338 1288 1338 2009 
Q 1338 2731 1133 3434 
Q 928 4138 513 4856 
z
" transform="scale(0.015625)"/>
     </defs>
     <use xlink:href="#DejaVuSans-53"/>
     <use xlink:href="#DejaVuSans-70" x="63.476562"/>
     <use xlink:href="#DejaVuSans-65" x="126.953125"/>
     <use xlink:href="#DejaVuSans-63" x="188.476562"/>
     <use xlink:href="#DejaVuSans-69" x="243.457031"/>
     <use xlink:href="#DejaVuSans-65" x="271.240234"/>
     <use xlink:href="#DejaVuSans-73" x="332.763672"/>
     <use xlink:href="#DejaVuSans-5f" x="384.863281"/>
     <use xlink:href="#DejaVuSans-53" x="434.863281"/>
     <use xlink:href="#DejaVuSans-65" x="498.339844"/>
     <use xlink:href="#DejaVuSans-63" x="559.863281"/>
     <use xlink:href="#DejaVuSans-72" x="614.84375"/>
     <use xlink:href="#DejaVuSans-65" x="653.707031"/>
     <use xlink:href="#DejaVuSans-74" x="715.230469"/>
     <use xlink:href="#DejaVuSans-65" x="754.439453"/>
     <use xlink:href="#DejaVuSans-64" x="815.962891"/>
     <use xlink:href="#DejaVuSans-54" x="879.439453"/>
     <use xlink:href="#DejaVuSans-61" x="924.023438"/>
     <use xlink:href="#DejaVuSans-78" x="985.302734"/>
     <use xlink:href="#DejaVuSans-61" x="1044.482422"/>
     <use xlink:href="#DejaVuSans-20" x="1105.761719"/>
     <use xlink:href="#DejaVuSans-44" x="1137.548828"/>
     <use xlink:href="#DejaVuSans-69" x="1214.550781"/>
     <use xlink:href="#DejaVuSans-73" x="1242.333984"/>
     <use xlink:href="#DejaVuSans-74" x="1294.433594"/>
     <use xlink:href="#DejaVuSans-72" x="1333.642578"/>
     <use xlink:href="#DejaVuSans-69" x="1374.755859"/>
     <use xlink:href="#DejaVuSans-62" x="1402.539062"/>
     <use xlink:href="#DejaVuSans-75" x="1466.015625"/>
     <use xlink:href="#DejaVuSans-74" x="1529.394531"/>
     <use xlink:href="#DejaVuSans-69" x="1568.603516"/>
     <use xlink:href="#DejaVuSans-6f" x="1596.386719"/>
     <use xlink:href="#DejaVuSans-6e" x="1657.568359"/>
     <use xlink:href="#DejaVuSans-20" x="1720.947266"/>
     <use xlink:href="#DejaVuSans-28" x="1752.734375"/>
     <use xlink:href="#DejaVuSans-50" x="1791.748047"/>
     <use xlink:href="#DejaVuSans-69" x="1849.800781"/>
     <use xlink:href="#DejaVuSans-65" x="1877.583984"/>
     <use xlink:href="#DejaVuSans-20" x="1939.107422"/>
     <use xlink:href="#DejaVuSans-43" x="1970.894531"/>
     <use xlink:href="#DejaVuSans-68" x="2040.71875"/>
     <use xlink:href="#DejaVuSans-61" x="2104.097656"/>
     <use xlink:href="#DejaVuSans-72" x="2165.376953"/>
     <use xlink:href="#DejaVuSans-74" x="2206.490234"/>
     <use xlink:href="#DejaVuSans-29" x="2245.699219"/>
    </g>
   </g>
   <g id="legend_1">
    <g id="patch_10">
     <path d="M 267.7434 308.253562 
L 614.606681 308.253562 
Q 617.606681 308.253562 617.606681 305.253562 
L 617.606681 174.650438 
Q 617.606681 171.650438 614.606681 171.650438 
L 267.7434 171.650438 
Q 264.7434 171.650438 264.7434 174.650438 
L 264.7434 305.253562 
Q 264.7434 308.253562 267.7434 308.253562 
z
" style="fill: #ffffff; opacity: 0.8; stroke: #cccccc; stroke-linejoin: miter"/>
    </g>
    <g id="patch_11">
     <path d="M 270.7434 189.048094 
L 300.7434 189.048094 
L 300.7434 178.548094 
L 270.7434 178.548094 
z
" style="fill: #a1c9f4; stroke: #ffffff; stroke-linejoin: miter"/>
    </g>
    <g id="text_2">
     <!-- Gammaproteobacteria bacterium: 2.7% -->
     <g transform="translate(312.7434 189.048094) scale(0.15 -0.15)">
      <defs>
       <path id="DejaVuSans-47" d="M 3809 666 
L 3809 1919 
L 2778 1919 
L 2778 2438 
L 4434 2438 
L 4434 434 
Q 4069 175 3628 42 
Q 3188 -91 2688 -91 
Q 1594 -91 976 548 
Q 359 1188 359 2328 
Q 359 3472 976 4111 
Q 1594 4750 2688 4750 
Q 3144 4750 3555 4637 
Q 3966 4525 4313 4306 
L 4313 3634 
Q 3963 3931 3569 4081 
Q 3175 4231 2741 4231 
Q 1884 4231 1454 3753 
Q 1025 3275 1025 2328 
Q 1025 1384 1454 906 
Q 1884 428 2741 428 
Q 3075 428 3337 486 
Q 3600 544 3809 666 
z
" transform="scale(0.015625)"/>
       <path id="DejaVuSans-6d" d="M 3328 2828 
Q 3544 3216 3844 3400 
Q 4144 3584 4550 3584 
Q 5097 3584 5394 3201 
Q 5691 2819 5691 2113 
L 5691 0 
L 5113 0 
L 5113 2094 
Q 5113 2597 4934 2840 
Q 4756 3084 4391 3084 
Q 3944 3084 3684 2787 
Q 3425 2491 3425 1978 
L 3425 0 
L 2847 0 
L 2847 2094 
Q 2847 2600 2669 2842 
Q 2491 3084 2119 3084 
Q 1678 3084 1418 2786 
Q 1159 2488 1159 1978 
L 1159 0 
L 581 0 
L 581 3500 
L 1159 3500 
L 1159 2956 
Q 1356 3278 1631 3431 
Q 1906 3584 2284 3584 
Q 2666 3584 2933 3390 
Q 3200 3197 3328 2828 
z
" transform="scale(0.015625)"/>
       <path id="DejaVuSans-3a" d="M 750 794 
L 1409 794 
L 1409 0 
L 750 0 
L 750 794 
z
M 750 3309 
L 1409 3309 
L 1409 2516 
L 750 2516 
L 750 3309 
z
" transform="scale(0.015625)"/>
       <path id="DejaVuSans-32" d="M 1228 531 
L 3431 531 
L 3431 0 
L 469 0 
L 469 531 
Q 828 903 1448 1529 
Q 2069 2156 2228 2338 
Q 2531 2678 2651 2914 
Q 2772 3150 2772 3378 
Q 2772 3750 2511 3984 
Q 2250 4219 1831 4219 
Q 1534 4219 1204 4116 
Q 875 4013 500 3803 
L 500 4441 
Q 881 4594 1212 4672 
Q 1544 4750 1819 4750 
Q 2544 4750 2975 4387 
Q 3406 4025 3406 3419 
Q 3406 3131 3298 2873 
Q 3191 2616 2906 2266 
Q 2828 2175 2409 1742 
Q 1991 1309 1228 531 
z
" transform="scale(0.015625)"/>
       <path id="DejaVuSans-2e" d="M 684 794 
L 1344 794 
L 1344 0 
L 684 0 
L 684 794 
z
" transform="scale(0.015625)"/>
       <path id="DejaVuSans-37" d="M 525 4666 
L 3525 4666 
L 3525 4397 
L 1831 0 
L 1172 0 
L 2766 4134 
L 525 4134 
L 525 4666 
z
" transform="scale(0.015625)"/>
       <path id="DejaVuSans-25" d="M 4653 2053 
Q 4381 2053 4226 1822 
Q 4072 1591 4072 1178 
Q 4072 772 4226 539 
Q 4381 306 4653 306 
Q 4919 306 5073 539 
Q 5228 772 5228 1178 
Q 5228 1588 5073 1820 
Q 4919 2053 4653 2053 
z
M 4653 2450 
Q 5147 2450 5437 2106 
Q 5728 1763 5728 1178 
Q 5728 594 5436 251 
Q 5144 -91 4653 -91 
Q 4153 -91 3862 251 
Q 3572 594 3572 1178 
Q 3572 1766 3864 2108 
Q 4156 2450 4653 2450 
z
M 1428 4353 
Q 1159 4353 1004 4120 
Q 850 3888 850 3481 
Q 850 3069 1003 2837 
Q 1156 2606 1428 2606 
Q 1700 2606 1854 2837 
Q 2009 3069 2009 3481 
Q 2009 3884 1853 4118 
Q 1697 4353 1428 4353 
z
M 4250 4750 
L 4750 4750 
L 1831 -91 
L 1331 -91 
L 4250 4750 
z
M 1428 4750 
Q 1922 4750 2215 4408 
Q 2509 4066 2509 3481 
Q 2509 2891 2217 2550 
Q 1925 2209 1428 2209 
Q 931 2209 642 2551 
Q 353 2894 353 3481 
Q 353 4063 643 4406 
Q 934 4750 1428 4750 
z
" transform="scale(0.015625)"/>
      </defs>
      <use xlink:href="#DejaVuSans-47"/>
      <use xlink:href="#DejaVuSans-61" x="77.490234"/>
      <use xlink:href="#DejaVuSans-6d" x="138.769531"/>
      <use xlink:href="#DejaVuSans-6d" x="236.181641"/>
      <use xlink:href="#DejaVuSans-61" x="333.59375"/>
      <use xlink:href="#DejaVuSans-70" x="394.873047"/>
      <use xlink:href="#DejaVuSans-72" x="458.349609"/>
      <use xlink:href="#DejaVuSans-6f" x="497.212891"/>
      <use xlink:href="#DejaVuSans-74" x="558.394531"/>
      <use xlink:href="#DejaVuSans-65" x="597.603516"/>
      <use xlink:href="#DejaVuSans-6f" x="659.126953"/>
      <use xlink:href="#DejaVuSans-62" x="720.308594"/>
      <use xlink:href="#DejaVuSans-61" x="783.785156"/>
      <use xlink:href="#DejaVuSans-63" x="845.064453"/>
      <use xlink:href="#DejaVuSans-74" x="900.044922"/>
      <use xlink:href="#DejaVuSans-65" x="939.253906"/>
      <use xlink:href="#DejaVuSans-72" x="1000.777344"/>
      <use xlink:href="#DejaVuSans-69" x="1041.890625"/>
      <use xlink:href="#DejaVuSans-61" x="1069.673828"/>
      <use xlink:href="#DejaVuSans-20" x="1130.953125"/>
      <use xlink:href="#DejaVuSans-62" x="1162.740234"/>
      <use xlink:href="#DejaVuSans-61" x="1226.216797"/>
      <use xlink:href="#DejaVuSans-63" x="1287.496094"/>
      <use xlink:href="#DejaVuSans-74" x="1342.476562"/>
      <use xlink:href="#DejaVuSans-65" x="1381.685547"/>
      <use xlink:href="#DejaVuSans-72" x="1443.208984"/>
      <use xlink:href="#DejaVuSans-69" x="1484.322266"/>
      <use xlink:href="#DejaVuSans-75" x="1512.105469"/>
      <use xlink:href="#DejaVuSans-6d" x="1575.484375"/>
      <use xlink:href="#DejaVuSans-3a" x="1672.896484"/>
      <use xlink:href="#DejaVuSans-20" x="1706.587891"/>
      <use xlink:href="#DejaVuSans-32" x="1738.375"/>
      <use xlink:href="#DejaVuSans-2e" x="1801.998047"/>
      <use xlink:href="#DejaVuSans-37" x="1833.785156"/>
      <use xlink:href="#DejaVuSans-25" x="1897.408203"/>
     </g>
    </g>
    <g id="patch_12">
     <path d="M 270.7434 211.065281 
L 300.7434 211.065281 
L 300.7434 200.565281 
L 270.7434 200.565281 
z
" style="fill: #ffb482; stroke: #ffffff; stroke-linejoin: miter"/>
    </g>
    <g id="text_3">
     <!-- Microcystis aeruginosa: 2.4% -->
     <g transform="translate(312.7434 211.065281) scale(0.15 -0.15)">
      <defs>
       <path id="DejaVuSans-4d" d="M 628 4666 
L 1569 4666 
L 2759 1491 
L 3956 4666 
L 4897 4666 
L 4897 0 
L 4281 0 
L 4281 4097 
L 3078 897 
L 2444 897 
L 1241 4097 
L 1241 0 
L 628 0 
L 628 4666 
z
" transform="scale(0.015625)"/>
       <path id="DejaVuSans-79" d="M 2059 -325 
Q 1816 -950 1584 -1140 
Q 1353 -1331 966 -1331 
L 506 -1331 
L 506 -850 
L 844 -850 
Q 1081 -850 1212 -737 
Q 1344 -625 1503 -206 
L 1606 56 
L 191 3500 
L 800 3500 
L 1894 763 
L 2988 3500 
L 3597 3500 
L 2059 -325 
z
" transform="scale(0.015625)"/>
       <path id="DejaVuSans-67" d="M 2906 1791 
Q 2906 2416 2648 2759 
Q 2391 3103 1925 3103 
Q 1463 3103 1205 2759 
Q 947 2416 947 1791 
Q 947 1169 1205 825 
Q 1463 481 1925 481 
Q 2391 481 2648 825 
Q 2906 1169 2906 1791 
z
M 3481 434 
Q 3481 -459 3084 -895 
Q 2688 -1331 1869 -1331 
Q 1566 -1331 1297 -1286 
Q 1028 -1241 775 -1147 
L 775 -588 
Q 1028 -725 1275 -790 
Q 1522 -856 1778 -856 
Q 2344 -856 2625 -561 
Q 2906 -266 2906 331 
L 2906 616 
Q 2728 306 2450 153 
Q 2172 0 1784 0 
Q 1141 0 747 490 
Q 353 981 353 1791 
Q 353 2603 747 3093 
Q 1141 3584 1784 3584 
Q 2172 3584 2450 3431 
Q 2728 3278 2906 2969 
L 2906 3500 
L 3481 3500 
L 3481 434 
z
" transform="scale(0.015625)"/>
       <path id="DejaVuSans-34" d="M 2419 4116 
L 825 1625 
L 2419 1625 
L 2419 4116 
z
M 2253 4666 
L 3047 4666 
L 3047 1625 
L 3713 1625 
L 3713 1100 
L 3047 1100 
L 3047 0 
L 2419 0 
L 2419 1100 
L 313 1100 
L 313 1709 
L 2253 4666 
z
" transform="scale(0.015625)"/>
      </defs>
      <use xlink:href="#DejaVuSans-4d"/>
      <use xlink:href="#DejaVuSans-69" x="86.279297"/>
      <use xlink:href="#DejaVuSans-63" x="114.0625"/>
      <use xlink:href="#DejaVuSans-72" x="169.042969"/>
      <use xlink:href="#DejaVuSans-6f" x="207.90625"/>
      <use xlink:href="#DejaVuSans-63" x="269.087891"/>
      <use xlink:href="#DejaVuSans-79" x="324.068359"/>
      <use xlink:href="#DejaVuSans-73" x="383.248047"/>
      <use xlink:href="#DejaVuSans-74" x="435.347656"/>
      <use xlink:href="#DejaVuSans-69" x="474.556641"/>
      <use xlink:href="#DejaVuSans-73" x="502.339844"/>
      <use xlink:href="#DejaVuSans-20" x="554.439453"/>
      <use xlink:href="#DejaVuSans-61" x="586.226562"/>
      <use xlink:href="#DejaVuSans-65" x="647.505859"/>
      <use xlink:href="#DejaVuSans-72" x="709.029297"/>
      <use xlink:href="#DejaVuSans-75" x="750.142578"/>
      <use xlink:href="#DejaVuSans-67" x="813.521484"/>
      <use xlink:href="#DejaVuSans-69" x="876.998047"/>
      <use xlink:href="#DejaVuSans-6e" x="904.78125"/>
      <use xlink:href="#DejaVuSans-6f" x="968.160156"/>
      <use xlink:href="#DejaVuSans-73" x="1029.341797"/>
      <use xlink:href="#DejaVuSans-61" x="1081.441406"/>
      <use xlink:href="#DejaVuSans-3a" x="1142.720703"/>
      <use xlink:href="#DejaVuSans-20" x="1176.412109"/>
      <use xlink:href="#DejaVuSans-32" x="1208.199219"/>
      <use xlink:href="#DejaVuSans-2e" x="1271.822266"/>
      <use xlink:href="#DejaVuSans-34" x="1303.609375"/>
      <use xlink:href="#DejaVuSans-25" x="1367.232422"/>
     </g>
    </g>
    <g id="patch_13">
     <path d="M 270.7434 233.082469 
L 300.7434 233.082469 
L 300.7434 222.582469 
L 270.7434 222.582469 
z
" style="fill: #8de5a1; stroke: #ffffff; stroke-linejoin: miter"/>
    </g>
    <g id="text_4">
     <!-- Prochlorococcus marinus: 1.8% -->
     <g transform="translate(312.7434 233.082469) scale(0.15 -0.15)">
      <defs>
       <path id="DejaVuSans-6c" d="M 603 4863 
L 1178 4863 
L 1178 0 
L 603 0 
L 603 4863 
z
" transform="scale(0.015625)"/>
       <path id="DejaVuSans-31" d="M 794 531 
L 1825 531 
L 1825 4091 
L 703 3866 
L 703 4441 
L 1819 4666 
L 2450 4666 
L 2450 531 
L 3481 531 
L 3481 0 
L 794 0 
L 794 531 
z
" transform="scale(0.015625)"/>
       <path id="DejaVuSans-38" d="M 2034 2216 
Q 1584 2216 1326 1975 
Q 1069 1734 1069 1313 
Q 1069 891 1326 650 
Q 1584 409 2034 409 
Q 2484 409 2743 651 
Q 3003 894 3003 1313 
Q 3003 1734 2745 1975 
Q 2488 2216 2034 2216 
z
M 1403 2484 
Q 997 2584 770 2862 
Q 544 3141 544 3541 
Q 544 4100 942 4425 
Q 1341 4750 2034 4750 
Q 2731 4750 3128 4425 
Q 3525 4100 3525 3541 
Q 3525 3141 3298 2862 
Q 3072 2584 2669 2484 
Q 3125 2378 3379 2068 
Q 3634 1759 3634 1313 
Q 3634 634 3220 271 
Q 2806 -91 2034 -91 
Q 1263 -91 848 271 
Q 434 634 434 1313 
Q 434 1759 690 2068 
Q 947 2378 1403 2484 
z
M 1172 3481 
Q 1172 3119 1398 2916 
Q 1625 2713 2034 2713 
Q 2441 2713 2670 2916 
Q 2900 3119 2900 3481 
Q 2900 3844 2670 4047 
Q 2441 4250 2034 4250 
Q 1625 4250 1398 4047 
Q 1172 3844 1172 3481 
z
" transform="scale(0.015625)"/>
      </defs>
      <use xlink:href="#DejaVuSans-50"/>
      <use xlink:href="#DejaVuSans-72" x="58.552734"/>
      <use xlink:href="#DejaVuSans-6f" x="97.416016"/>
      <use xlink:href="#DejaVuSans-63" x="158.597656"/>
      <use xlink:href="#DejaVuSans-68" x="213.578125"/>
      <use xlink:href="#DejaVuSans-6c" x="276.957031"/>
      <use xlink:href="#DejaVuSans-6f" x="304.740234"/>
      <use xlink:href="#DejaVuSans-72" x="365.921875"/>
      <use xlink:href="#DejaVuSans-6f" x="404.785156"/>
      <use xlink:href="#DejaVuSans-63" x="465.966797"/>
      <use xlink:href="#DejaVuSans-6f" x="520.947266"/>
      <use xlink:href="#DejaVuSans-63" x="582.128906"/>
      <use xlink:href="#DejaVuSans-63" x="637.109375"/>
      <use xlink:href="#DejaVuSans-75" x="692.089844"/>
      <use xlink:href="#DejaVuSans-73" x="755.46875"/>
      <use xlink:href="#DejaVuSans-20" x="807.568359"/>
      <use xlink:href="#DejaVuSans-6d" x="839.355469"/>
      <use xlink:href="#DejaVuSans-61" x="936.767578"/>
      <use xlink:href="#DejaVuSans-72" x="998.046875"/>
      <use xlink:href="#DejaVuSans-69" x="1039.160156"/>
      <use xlink:href="#DejaVuSans-6e" x="1066.943359"/>
      <use xlink:href="#DejaVuSans-75" x="1130.322266"/>
      <use xlink:href="#DejaVuSans-73" x="1193.701172"/>
      <use xlink:href="#DejaVuSans-3a" x="1245.800781"/>
      <use xlink:href="#DejaVuSans-20" x="1279.492188"/>
      <use xlink:href="#DejaVuSans-31" x="1311.279297"/>
      <use xlink:href="#DejaVuSans-2e" x="1374.902344"/>
      <use xlink:href="#DejaVuSans-38" x="1406.689453"/>
      <use xlink:href="#DejaVuSans-25" x="1470.3125"/>
     </g>
    </g>
    <g id="patch_14">
     <path d="M 270.7434 255.099656 
L 300.7434 255.099656 
L 300.7434 244.599656 
L 270.7434 244.599656 
z
" style="fill: #ff9f9b; stroke: #ffffff; stroke-linejoin: miter"/>
    </g>
    <g id="text_5">
     <!-- Opitutia bacterium: 1.1% -->
     <g transform="translate(312.7434 255.099656) scale(0.15 -0.15)">
      <defs>
       <path id="DejaVuSans-4f" d="M 2522 4238 
Q 1834 4238 1429 3725 
Q 1025 3213 1025 2328 
Q 1025 1447 1429 934 
Q 1834 422 2522 422 
Q 3209 422 3611 934 
Q 4013 1447 4013 2328 
Q 4013 3213 3611 3725 
Q 3209 4238 2522 4238 
z
M 2522 4750 
Q 3503 4750 4090 4092 
Q 4678 3434 4678 2328 
Q 4678 1225 4090 567 
Q 3503 -91 2522 -91 
Q 1538 -91 948 565 
Q 359 1222 359 2328 
Q 359 3434 948 4092 
Q 1538 4750 2522 4750 
z
" transform="scale(0.015625)"/>
      </defs>
      <use xlink:href="#DejaVuSans-4f"/>
      <use xlink:href="#DejaVuSans-70" x="78.710938"/>
      <use xlink:href="#DejaVuSans-69" x="142.1875"/>
      <use xlink:href="#DejaVuSans-74" x="169.970703"/>
      <use xlink:href="#DejaVuSans-75" x="209.179688"/>
      <use xlink:href="#DejaVuSans-74" x="272.558594"/>
      <use xlink:href="#DejaVuSans-69" x="311.767578"/>
      <use xlink:href="#DejaVuSans-61" x="339.550781"/>
      <use xlink:href="#DejaVuSans-20" x="400.830078"/>
      <use xlink:href="#DejaVuSans-62" x="432.617188"/>
      <use xlink:href="#DejaVuSans-61" x="496.09375"/>
      <use xlink:href="#DejaVuSans-63" x="557.373047"/>
      <use xlink:href="#DejaVuSans-74" x="612.353516"/>
      <use xlink:href="#DejaVuSans-65" x="651.5625"/>
      <use xlink:href="#DejaVuSans-72" x="713.085938"/>
      <use xlink:href="#DejaVuSans-69" x="754.199219"/>
      <use xlink:href="#DejaVuSans-75" x="781.982422"/>
      <use xlink:href="#DejaVuSans-6d" x="845.361328"/>
      <use xlink:href="#DejaVuSans-3a" x="942.773438"/>
      <use xlink:href="#DejaVuSans-20" x="976.464844"/>
      <use xlink:href="#DejaVuSans-31" x="1008.251953"/>
      <use xlink:href="#DejaVuSans-2e" x="1071.875"/>
      <use xlink:href="#DejaVuSans-31" x="1103.662109"/>
      <use xlink:href="#DejaVuSans-25" x="1167.285156"/>
     </g>
    </g>
    <g id="patch_15">
     <path d="M 270.7434 277.116844 
L 300.7434 277.116844 
L 300.7434 266.616844 
L 270.7434 266.616844 
z
" style="fill: #d0bbff; stroke: #ffffff; stroke-linejoin: miter"/>
    </g>
    <g id="text_6">
     <!-- Gardnerella vaginalis: 0.9% -->
     <g transform="translate(312.7434 277.116844) scale(0.15 -0.15)">
      <defs>
       <path id="DejaVuSans-76" d="M 191 3500 
L 800 3500 
L 1894 563 
L 2988 3500 
L 3597 3500 
L 2284 0 
L 1503 0 
L 191 3500 
z
" transform="scale(0.015625)"/>
       <path id="DejaVuSans-30" d="M 2034 4250 
Q 1547 4250 1301 3770 
Q 1056 3291 1056 2328 
Q 1056 1369 1301 889 
Q 1547 409 2034 409 
Q 2525 409 2770 889 
Q 3016 1369 3016 2328 
Q 3016 3291 2770 3770 
Q 2525 4250 2034 4250 
z
M 2034 4750 
Q 2819 4750 3233 4129 
Q 3647 3509 3647 2328 
Q 3647 1150 3233 529 
Q 2819 -91 2034 -91 
Q 1250 -91 836 529 
Q 422 1150 422 2328 
Q 422 3509 836 4129 
Q 1250 4750 2034 4750 
z
" transform="scale(0.015625)"/>
       <path id="DejaVuSans-39" d="M 703 97 
L 703 672 
Q 941 559 1184 500 
Q 1428 441 1663 441 
Q 2288 441 2617 861 
Q 2947 1281 2994 2138 
Q 2813 1869 2534 1725 
Q 2256 1581 1919 1581 
Q 1219 1581 811 2004 
Q 403 2428 403 3163 
Q 403 3881 828 4315 
Q 1253 4750 1959 4750 
Q 2769 4750 3195 4129 
Q 3622 3509 3622 2328 
Q 3622 1225 3098 567 
Q 2575 -91 1691 -91 
Q 1453 -91 1209 -44 
Q 966 3 703 97 
z
M 1959 2075 
Q 2384 2075 2632 2365 
Q 2881 2656 2881 3163 
Q 2881 3666 2632 3958 
Q 2384 4250 1959 4250 
Q 1534 4250 1286 3958 
Q 1038 3666 1038 3163 
Q 1038 2656 1286 2365 
Q 1534 2075 1959 2075 
z
" transform="scale(0.015625)"/>
      </defs>
      <use xlink:href="#DejaVuSans-47"/>
      <use xlink:href="#DejaVuSans-61" x="77.490234"/>
      <use xlink:href="#DejaVuSans-72" x="138.769531"/>
      <use xlink:href="#DejaVuSans-64" x="178.132812"/>
      <use xlink:href="#DejaVuSans-6e" x="241.609375"/>
      <use xlink:href="#DejaVuSans-65" x="304.988281"/>
      <use xlink:href="#DejaVuSans-72" x="366.511719"/>
      <use xlink:href="#DejaVuSans-65" x="405.375"/>
      <use xlink:href="#DejaVuSans-6c" x="466.898438"/>
      <use xlink:href="#DejaVuSans-6c" x="494.681641"/>
      <use xlink:href="#DejaVuSans-61" x="522.464844"/>
      <use xlink:href="#DejaVuSans-20" x="583.744141"/>
      <use xlink:href="#DejaVuSans-76" x="615.53125"/>
      <use xlink:href="#DejaVuSans-61" x="674.710938"/>
      <use xlink:href="#DejaVuSans-67" x="735.990234"/>
      <use xlink:href="#DejaVuSans-69" x="799.466797"/>
      <use xlink:href="#DejaVuSans-6e" x="827.25"/>
      <use xlink:href="#DejaVuSans-61" x="890.628906"/>
      <use xlink:href="#DejaVuSans-6c" x="951.908203"/>
      <use xlink:href="#DejaVuSans-69" x="979.691406"/>
      <use xlink:href="#DejaVuSans-73" x="1007.474609"/>
      <use xlink:href="#DejaVuSans-3a" x="1059.574219"/>
      <use xlink:href="#DejaVuSans-20" x="1093.265625"/>
      <use xlink:href="#DejaVuSans-30" x="1125.052734"/>
      <use xlink:href="#DejaVuSans-2e" x="1188.675781"/>
      <use xlink:href="#DejaVuSans-39" x="1220.462891"/>
      <use xlink:href="#DejaVuSans-25" x="1284.085938"/>
     </g>
    </g>
    <g id="patch_16">
     <path d="M 270.7434 299.134031 
L 300.7434 299.134031 
L 300.7434 288.634031 
L 270.7434 288.634031 
z
" style="fill: #debb9b; stroke: #ffffff; stroke-linejoin: miter"/>
    </g>
    <g id="text_7">
     <!-- Other: 91.1% -->
     <g transform="translate(312.7434 299.134031) scale(0.15 -0.15)">
      <use xlink:href="#DejaVuSans-4f"/>
      <use xlink:href="#DejaVuSans-74" x="78.710938"/>
      <use xlink:href="#DejaVuSans-68" x="117.919922"/>
      <use xlink:href="#DejaVuSans-65" x="181.298828"/>
      <use xlink:href="#DejaVuSans-72" x="242.822266"/>
      <use xlink:href="#DejaVuSans-3a" x="282.185547"/>
      <use xlink:href="#DejaVuSans-20" x="315.876953"/>
      <use xlink:href="#DejaVuSans-39" x="347.664062"/>
      <use xlink:href="#DejaVuSans-31" x="411.287109"/>
      <use xlink:href="#DejaVuSans-2e" x="474.910156"/>
      <use xlink:href="#DejaVuSans-31" x="506.697266"/>
      <use xlink:href="#DejaVuSans-25" x="570.320312"/>
     </g>
    </g>
   </g>
  </g>
 </g>
 <defs>
  <clipPath id="p6aa11c0e47">
   <path d="M 245.508 239.952 
C 245.508 224.541214 242.472411 209.280278 236.574959 195.042568 
C 230.677506 180.804859 222.032881 167.867262 211.135809 156.970191 
C 200.238738 146.073119 187.301141 137.428494 173.063432 131.531041 
C 158.825722 125.633589 143.564786 122.598 128.154 122.598 
C 112.743214 122.598 97.482278 125.633589 83.244568 131.531041 
C 69.006859 137.428494 56.069262 146.073119 45.172191 156.970191 
C 34.275119 167.867262 25.630494 180.804859 19.733041 195.042568 
C 13.835589 209.280278 10.8 224.541214 10.8 239.952 
C 10.8 255.362786 13.835589 270.623722 19.733041 284.861432 
C 25.630494 299.099141 34.275119 312.036738 45.172191 322.933809 
C 56.069262 333.830881 69.006859 342.475506 83.244568 348.372959 
C 97.482278 354.270411 112.743214 357.306 128.154 357.306 
C 143.564786 357.306 158.825722 354.270411 173.063432 348.372959 
C 187.301141 342.475506 200.238738 333.830881 211.135809 322.933809 
C 222.032881 312.036738 230.677506 299.099141 236.574959 284.861432 
C 242.472411 270.623722 245.508 255.362786 245.508 239.952 
M 128.154 239.952 
C 128.154 239.952 128.154 239.952 128.154 239.952 
C 128.154 239.952 128.154 239.952 128.154 239.952 
C 128.154 239.952 128.154 239.952 128.154 239.952 
C 128.154 239.952 128.154 239.952 128.154 239.952 
C 128.154 239.952 128.154 239.952 128.154 239.952 
C 128.154 239.952 128.154 239.952 128.154 239.952 
C 128.154 239.952 128.154 239.952 128.154 239.952 
C 128.154 239.952 128.154 239.952 128.154 239.952 
C 128.154 239.952 128.154 239.952 128.154 239.952 
C 128.154 239.952 128.154 239.952 128.154 239.952 
C 128.154 239.952 128.154 239.952 128.154 239.952 
C 128.154 239.952 128.154 239.952 128.154 239.952 
C 128.154 239.952 128.154 239.952 128.154 239.952 
C 128.154 239.952 128.154 239.952 128.154 239.952 
C 128.154 239.952 128.154 239.952 128.154 239.952 
C 128.154 239.952 128.154 239.952 128.154 239.952 
z
"/>
  </clipPath>
 </defs>
</svg>
